%TF.GenerationSoftware,KiCad,Pcbnew,8.99.0-unknown-3024a7c569~178~ubuntu22.04.1*%
%TF.CreationDate,2024-05-15T11:10:46+10:00*%
%TF.ProjectId,PSU-Plus,5053552d-506c-4757-932e-6b696361645f,rev?*%
%TF.SameCoordinates,Original*%
%TF.FileFunction,Copper,L1,Top*%
%TF.FilePolarity,Positive*%
%FSLAX46Y46*%
G04 Gerber Fmt 4.6, Leading zero omitted, Abs format (unit mm)*
G04 Created by KiCad (PCBNEW 8.99.0-unknown-3024a7c569~178~ubuntu22.04.1) date 2024-05-15 11:10:46*
%MOMM*%
%LPD*%
G01*
G04 APERTURE LIST*
G04 Aperture macros list*
%AMRoundRect*
0 Rectangle with rounded corners*
0 $1 Rounding radius*
0 $2 $3 $4 $5 $6 $7 $8 $9 X,Y pos of 4 corners*
0 Add a 4 corners polygon primitive as box body*
4,1,4,$2,$3,$4,$5,$6,$7,$8,$9,$2,$3,0*
0 Add four circle primitives for the rounded corners*
1,1,$1+$1,$2,$3*
1,1,$1+$1,$4,$5*
1,1,$1+$1,$6,$7*
1,1,$1+$1,$8,$9*
0 Add four rect primitives between the rounded corners*
20,1,$1+$1,$2,$3,$4,$5,0*
20,1,$1+$1,$4,$5,$6,$7,0*
20,1,$1+$1,$6,$7,$8,$9,0*
20,1,$1+$1,$8,$9,$2,$3,0*%
G04 Aperture macros list end*
%TA.AperFunction,Conductor*%
%ADD10C,0.000000*%
%TD*%
%TA.AperFunction,SMDPad,CuDef*%
%ADD11RoundRect,0.140000X0.140000X0.170000X-0.140000X0.170000X-0.140000X-0.170000X0.140000X-0.170000X0*%
%TD*%
%TA.AperFunction,SMDPad,CuDef*%
%ADD12R,2.500000X1.900000*%
%TD*%
%TA.AperFunction,SMDPad,CuDef*%
%ADD13R,2.000000X2.000000*%
%TD*%
%TA.AperFunction,SMDPad,CuDef*%
%ADD14RoundRect,0.250000X0.475000X-0.250000X0.475000X0.250000X-0.475000X0.250000X-0.475000X-0.250000X0*%
%TD*%
%TA.AperFunction,SMDPad,CuDef*%
%ADD15RoundRect,0.225000X0.250000X-0.225000X0.250000X0.225000X-0.250000X0.225000X-0.250000X-0.225000X0*%
%TD*%
%TA.AperFunction,SMDPad,CuDef*%
%ADD16RoundRect,0.135000X0.185000X-0.135000X0.185000X0.135000X-0.185000X0.135000X-0.185000X-0.135000X0*%
%TD*%
%TA.AperFunction,SMDPad,CuDef*%
%ADD17RoundRect,0.085000X-0.265000X-0.085000X0.265000X-0.085000X0.265000X0.085000X-0.265000X0.085000X0*%
%TD*%
%TA.AperFunction,SMDPad,CuDef*%
%ADD18R,1.000000X1.500000*%
%TD*%
%TA.AperFunction,ViaPad*%
%ADD19C,0.800000*%
%TD*%
%TA.AperFunction,Conductor*%
%ADD20C,0.250000*%
%TD*%
G04 APERTURE END LIST*
D10*
%TA.AperFunction,Conductor*%
%TO.N,+1V0*%
G36*
X172900000Y-143050000D02*
G01*
X172000000Y-143050000D01*
X172000000Y-142150000D01*
X172900000Y-143050000D01*
G37*
%TD.AperFunction*%
%TA.AperFunction,Conductor*%
%TO.N,+5V*%
G36*
X172900000Y-111050000D02*
G01*
X172000000Y-111050000D01*
X172000000Y-110150000D01*
X172900000Y-111050000D01*
G37*
%TD.AperFunction*%
%TA.AperFunction,Conductor*%
G36*
X177550000Y-111800000D02*
G01*
X176400000Y-111800000D01*
X176400000Y-111200000D01*
X177550000Y-111200000D01*
X177550000Y-111800000D01*
G37*
%TD.AperFunction*%
%TA.AperFunction,Conductor*%
G36*
X167550000Y-112150000D02*
G01*
X167550000Y-111950000D01*
X167750000Y-111950000D01*
X167550000Y-112150000D01*
G37*
%TD.AperFunction*%
%TA.AperFunction,Conductor*%
G36*
X176550000Y-111200000D02*
G01*
X176400000Y-111200000D01*
X176400000Y-111050000D01*
X176550000Y-111200000D01*
G37*
%TD.AperFunction*%
%TA.AperFunction,Conductor*%
G36*
X176400000Y-111950000D02*
G01*
X176400000Y-111800000D01*
X176550000Y-111800000D01*
X176400000Y-111950000D01*
G37*
%TD.AperFunction*%
%TA.AperFunction,Conductor*%
G36*
X172000000Y-111050000D02*
G01*
X176400000Y-111050000D01*
X176400000Y-111200000D01*
X176400000Y-111300000D01*
X176400000Y-111700000D01*
X176400000Y-111800000D01*
X176400000Y-111950000D01*
X165550000Y-111950000D01*
X165550000Y-110150000D01*
X172000000Y-110150000D01*
X172000000Y-111050000D01*
G37*
%TD.AperFunction*%
%TA.AperFunction,Conductor*%
%TO.N,+1V15*%
G36*
X176400000Y-136000000D02*
G01*
X176400000Y-135850000D01*
X176550000Y-135850000D01*
X176400000Y-136000000D01*
G37*
%TD.AperFunction*%
%TA.AperFunction,Conductor*%
G36*
X172000000Y-135100000D02*
G01*
X176400000Y-135100000D01*
X176400000Y-135250000D01*
X176400000Y-135350000D01*
X176400000Y-135750000D01*
X176400000Y-135850000D01*
X176400000Y-136000000D01*
X165550000Y-136000000D01*
X165550000Y-134200000D01*
X172000000Y-134200000D01*
X172000000Y-135100000D01*
G37*
%TD.AperFunction*%
%TA.AperFunction,Conductor*%
%TO.N,+3V3*%
G36*
X172900000Y-119050000D02*
G01*
X172000000Y-119050000D01*
X172000000Y-118150000D01*
X172900000Y-119050000D01*
G37*
%TD.AperFunction*%
%TA.AperFunction,Conductor*%
%TO.N,+1V0*%
G36*
X176400000Y-143950000D02*
G01*
X176400000Y-143800000D01*
X176550000Y-143800000D01*
X176400000Y-143950000D01*
G37*
%TD.AperFunction*%
%TA.AperFunction,Conductor*%
%TO.N,+3V3*%
G36*
X176550000Y-119200000D02*
G01*
X176400000Y-119200000D01*
X176400000Y-119050000D01*
X176550000Y-119200000D01*
G37*
%TD.AperFunction*%
%TA.AperFunction,Conductor*%
%TO.N,+1V8*%
G36*
X167550000Y-128200000D02*
G01*
X167550000Y-128000000D01*
X167750000Y-128000000D01*
X167550000Y-128200000D01*
G37*
%TD.AperFunction*%
%TA.AperFunction,Conductor*%
%TO.N,+1V15*%
G36*
X172900000Y-135100000D02*
G01*
X172000000Y-135100000D01*
X172000000Y-134200000D01*
X172900000Y-135100000D01*
G37*
%TD.AperFunction*%
%TA.AperFunction,Conductor*%
%TO.N,+1V8*%
G36*
X176400000Y-128000000D02*
G01*
X176400000Y-127850000D01*
X176550000Y-127850000D01*
X176400000Y-128000000D01*
G37*
%TD.AperFunction*%
%TA.AperFunction,Conductor*%
G36*
X172000000Y-127100000D02*
G01*
X176400000Y-127100000D01*
X176400000Y-127250000D01*
X176400000Y-127350000D01*
X176400000Y-127750000D01*
X176400000Y-127850000D01*
X176400000Y-128000000D01*
X165550000Y-128000000D01*
X165550000Y-126200000D01*
X172000000Y-126200000D01*
X172000000Y-127100000D01*
G37*
%TD.AperFunction*%
%TA.AperFunction,Conductor*%
%TO.N,+3V3*%
G36*
X177550000Y-119800000D02*
G01*
X176400000Y-119800000D01*
X176400000Y-119200000D01*
X177550000Y-119200000D01*
X177550000Y-119800000D01*
G37*
%TD.AperFunction*%
%TA.AperFunction,Conductor*%
G36*
X167550000Y-120150000D02*
G01*
X167550000Y-119950000D01*
X167750000Y-119950000D01*
X167550000Y-120150000D01*
G37*
%TD.AperFunction*%
%TA.AperFunction,Conductor*%
%TO.N,+1V0*%
G36*
X172000000Y-143050000D02*
G01*
X176400000Y-143050000D01*
X176400000Y-143200000D01*
X176400000Y-143300000D01*
X176400000Y-143700000D01*
X176400000Y-143800000D01*
X176400000Y-143950000D01*
X165550000Y-143950000D01*
X165550000Y-142150000D01*
X172000000Y-142150000D01*
X172000000Y-143050000D01*
G37*
%TD.AperFunction*%
%TA.AperFunction,Conductor*%
G36*
X176550000Y-143200000D02*
G01*
X176400000Y-143200000D01*
X176400000Y-143050000D01*
X176550000Y-143200000D01*
G37*
%TD.AperFunction*%
%TA.AperFunction,Conductor*%
%TO.N,+3V3*%
G36*
X172000000Y-119050000D02*
G01*
X176400000Y-119050000D01*
X176400000Y-119200000D01*
X176400000Y-119300000D01*
X176400000Y-119700000D01*
X176400000Y-119800000D01*
X176400000Y-119950000D01*
X165550000Y-119950000D01*
X165550000Y-118150000D01*
X172000000Y-118150000D01*
X172000000Y-119050000D01*
G37*
%TD.AperFunction*%
%TA.AperFunction,Conductor*%
%TO.N,+1V8*%
G36*
X176550000Y-127250000D02*
G01*
X176400000Y-127250000D01*
X176400000Y-127100000D01*
X176550000Y-127250000D01*
G37*
%TD.AperFunction*%
%TA.AperFunction,Conductor*%
%TO.N,+1V0*%
G36*
X167550000Y-144150000D02*
G01*
X167550000Y-143950000D01*
X167750000Y-143950000D01*
X167550000Y-144150000D01*
G37*
%TD.AperFunction*%
%TA.AperFunction,Conductor*%
G36*
X177550000Y-143800000D02*
G01*
X176400000Y-143800000D01*
X176400000Y-143200000D01*
X177550000Y-143200000D01*
X177550000Y-143800000D01*
G37*
%TD.AperFunction*%
%TA.AperFunction,Conductor*%
%TO.N,+1V8*%
G36*
X172900000Y-127100000D02*
G01*
X172000000Y-127100000D01*
X172000000Y-126200000D01*
X172900000Y-127100000D01*
G37*
%TD.AperFunction*%
%TA.AperFunction,Conductor*%
%TO.N,+3V3*%
G36*
X176400000Y-119950000D02*
G01*
X176400000Y-119800000D01*
X176550000Y-119800000D01*
X176400000Y-119950000D01*
G37*
%TD.AperFunction*%
%TA.AperFunction,Conductor*%
%TO.N,+1V15*%
G36*
X177550000Y-135850000D02*
G01*
X176400000Y-135850000D01*
X176400000Y-135250000D01*
X177550000Y-135250000D01*
X177550000Y-135850000D01*
G37*
%TD.AperFunction*%
%TA.AperFunction,Conductor*%
G36*
X167550000Y-136200000D02*
G01*
X167550000Y-136000000D01*
X167750000Y-136000000D01*
X167550000Y-136200000D01*
G37*
%TD.AperFunction*%
%TA.AperFunction,Conductor*%
%TO.N,+1V8*%
G36*
X177550000Y-127850000D02*
G01*
X176400000Y-127850000D01*
X176400000Y-127250000D01*
X177550000Y-127250000D01*
X177550000Y-127850000D01*
G37*
%TD.AperFunction*%
%TA.AperFunction,Conductor*%
%TO.N,+1V15*%
G36*
X176550000Y-135250000D02*
G01*
X176400000Y-135250000D01*
X176400000Y-135100000D01*
X176550000Y-135250000D01*
G37*
%TD.AperFunction*%
%TD*%
D11*
%TO.P,C1,2*%
%TO.N,Net-(U1-SW)*%
X169920000Y-137500000D03*
%TO.P,C1,1*%
%TO.N,Net-(U1-BST)*%
X170880000Y-137500000D03*
%TD*%
D12*
%TO.P,L2,1,1*%
%TO.N,Net-(U2-SW)*%
X170750000Y-131350000D03*
%TO.P,L2,2,2*%
%TO.N,+1V15*%
X170750000Y-135450000D03*
%TD*%
%TO.P,L5,1,1*%
%TO.N,Net-(U5-SW)*%
X170750000Y-107300000D03*
%TO.P,L5,2,2*%
%TO.N,+5V*%
X170750000Y-111400000D03*
%TD*%
%TO.P,L4,1,1*%
%TO.N,Net-(U4-SW)*%
X170750000Y-115300000D03*
%TO.P,L4,2,2*%
%TO.N,+3V3*%
X170750000Y-119400000D03*
%TD*%
%TO.P,L3,1,1*%
%TO.N,Net-(U3-SW)*%
X170750000Y-123350000D03*
%TO.P,L3,2,2*%
%TO.N,+1V8*%
X170750000Y-127450000D03*
%TD*%
%TO.P,L1,1,1*%
%TO.N,Net-(U1-SW)*%
X170750000Y-139300000D03*
%TO.P,L1,2,2*%
%TO.N,+1V0*%
X170750000Y-143400000D03*
%TD*%
D13*
%TO.P,TP1,1,1*%
%TO.N,VBUS*%
X176200000Y-148350000D03*
%TD*%
%TO.P,TP3,1,1*%
%TO.N,GND*%
X171700000Y-148350000D03*
%TD*%
D14*
%TO.P,C6,1*%
%TO.N,GND*%
X174536000Y-132450000D03*
%TO.P,C6,2*%
%TO.N,VBUS*%
X174536000Y-130550000D03*
%TD*%
%TO.P,C2,1*%
%TO.N,GND*%
X174536000Y-140400000D03*
%TO.P,C2,2*%
%TO.N,VBUS*%
X174536000Y-138500000D03*
%TD*%
D15*
%TO.P,C4,1*%
%TO.N,+1V0*%
X175900000Y-143500000D03*
%TO.P,C4,2*%
%TO.N,GND*%
X175900000Y-141950000D03*
%TD*%
%TO.P,C7,1*%
%TO.N,+1V15*%
X174400000Y-135550000D03*
%TO.P,C7,2*%
%TO.N,GND*%
X174400000Y-134000000D03*
%TD*%
D11*
%TO.P,C5,1*%
%TO.N,Net-(U2-BST)*%
X170880000Y-129600000D03*
%TO.P,C5,2*%
%TO.N,Net-(U2-SW)*%
X169920000Y-129600000D03*
%TD*%
D15*
%TO.P,C3,1*%
%TO.N,+1V0*%
X174400000Y-143500000D03*
%TO.P,C3,2*%
%TO.N,GND*%
X174400000Y-141950000D03*
%TD*%
D16*
%TO.P,R5,1*%
%TO.N,+1V8*%
X177200000Y-127560000D03*
%TO.P,R5,2*%
%TO.N,Net-(U3-FB)*%
X177200000Y-126540000D03*
%TD*%
D15*
%TO.P,C16,1*%
%TO.N,+3V3*%
X175900000Y-119500000D03*
%TO.P,C16,2*%
%TO.N,GND*%
X175900000Y-117950000D03*
%TD*%
D16*
%TO.P,R6,1*%
%TO.N,Net-(U3-FB)*%
X178200000Y-127560000D03*
%TO.P,R6,2*%
%TO.N,GND*%
X178200000Y-126540000D03*
%TD*%
D15*
%TO.P,C8,1*%
%TO.N,+1V15*%
X175900000Y-135550000D03*
%TO.P,C8,2*%
%TO.N,GND*%
X175900000Y-134000000D03*
%TD*%
D11*
%TO.P,C9,1*%
%TO.N,Net-(U3-BST)*%
X170880000Y-121600000D03*
%TO.P,C9,2*%
%TO.N,Net-(U3-SW)*%
X169920000Y-121600000D03*
%TD*%
D14*
%TO.P,C10,1*%
%TO.N,GND*%
X174536000Y-124450000D03*
%TO.P,C10,2*%
%TO.N,Net-(JP1-B)*%
X174536000Y-122550000D03*
%TD*%
D15*
%TO.P,C11,1*%
%TO.N,+1V8*%
X174400000Y-127550000D03*
%TO.P,C11,2*%
%TO.N,GND*%
X174400000Y-126000000D03*
%TD*%
%TO.P,C12,1*%
%TO.N,+1V8*%
X175900000Y-127550000D03*
%TO.P,C12,2*%
%TO.N,GND*%
X175900000Y-126000000D03*
%TD*%
D11*
%TO.P,C13,1*%
%TO.N,Net-(U4-BST)*%
X170880000Y-113500000D03*
%TO.P,C13,2*%
%TO.N,Net-(U4-SW)*%
X169920000Y-113500000D03*
%TD*%
D14*
%TO.P,C14,1*%
%TO.N,GND*%
X174536000Y-116400000D03*
%TO.P,C14,2*%
%TO.N,VBUS*%
X174536000Y-114500000D03*
%TD*%
D16*
%TO.P,R2,1*%
%TO.N,Net-(U1-FB)*%
X178200000Y-143510000D03*
%TO.P,R2,2*%
%TO.N,GND*%
X178200000Y-142490000D03*
%TD*%
D15*
%TO.P,C15,1*%
%TO.N,+3V3*%
X174400000Y-119500000D03*
%TO.P,C15,2*%
%TO.N,GND*%
X174400000Y-117950000D03*
%TD*%
D16*
%TO.P,R1,1*%
%TO.N,+1V0*%
X177200000Y-143510000D03*
%TO.P,R1,2*%
%TO.N,Net-(U1-FB)*%
X177200000Y-142490000D03*
%TD*%
D11*
%TO.P,C17,1*%
%TO.N,Net-(U5-BST)*%
X170880000Y-105500000D03*
%TO.P,C17,2*%
%TO.N,Net-(U5-SW)*%
X169920000Y-105500000D03*
%TD*%
D14*
%TO.P,C18,1*%
%TO.N,GND*%
X174541709Y-108386355D03*
%TO.P,C18,2*%
%TO.N,Net-(JP2-B)*%
X174541709Y-106486355D03*
%TD*%
D15*
%TO.P,C19,1*%
%TO.N,+5V*%
X174400000Y-111500000D03*
%TO.P,C19,2*%
%TO.N,GND*%
X174400000Y-109950000D03*
%TD*%
%TO.P,C20,1*%
%TO.N,+5V*%
X175900000Y-111500000D03*
%TO.P,C20,2*%
%TO.N,GND*%
X175900000Y-109950000D03*
%TD*%
D16*
%TO.P,R3,1*%
%TO.N,+1V15*%
X177200000Y-135560000D03*
%TO.P,R3,2*%
%TO.N,Net-(U2-FB)*%
X177200000Y-134540000D03*
%TD*%
%TO.P,R4,1*%
%TO.N,Net-(U2-FB)*%
X178200000Y-135560000D03*
%TO.P,R4,2*%
%TO.N,GND*%
X178200000Y-134540000D03*
%TD*%
%TO.P,R8,1*%
%TO.N,Net-(U4-FB)*%
X178200000Y-119510000D03*
%TO.P,R8,2*%
%TO.N,GND*%
X178200000Y-118490000D03*
%TD*%
%TO.P,R7,1*%
%TO.N,+3V3*%
X177200000Y-119510000D03*
%TO.P,R7,2*%
%TO.N,Net-(U4-FB)*%
X177200000Y-118490000D03*
%TD*%
%TO.P,R10,1*%
%TO.N,Net-(U5-FB)*%
X178200000Y-111510000D03*
%TO.P,R10,2*%
%TO.N,GND*%
X178200000Y-110490000D03*
%TD*%
D13*
%TO.P,TP2,1,1*%
%TO.N,+1V0*%
X166550000Y-143150000D03*
%TD*%
%TO.P,TP8,1,1*%
%TO.N,GND*%
X166550000Y-123200000D03*
%TD*%
%TO.P,TP11,1,1*%
%TO.N,+5V*%
X166550000Y-111150000D03*
%TD*%
%TO.P,TP10,1,1*%
%TO.N,GND*%
X166550000Y-115150000D03*
%TD*%
%TO.P,TP9,1,1*%
%TO.N,+3V3*%
X166550000Y-119150000D03*
%TD*%
%TO.P,TP5,1,1*%
%TO.N,+1V15*%
X166550000Y-135200000D03*
%TD*%
%TO.P,TP7,1,1*%
%TO.N,+1V8*%
X166550000Y-127200000D03*
%TD*%
%TO.P,TP6,1,1*%
%TO.N,GND*%
X166550000Y-131200000D03*
%TD*%
%TO.P,TP4,1,1*%
%TO.N,GND*%
X166550000Y-139200000D03*
%TD*%
%TO.P,TP12,1,1*%
%TO.N,GND*%
X166550000Y-107200000D03*
%TD*%
D16*
%TO.P,R9,1*%
%TO.N,+5V*%
X177200000Y-111510000D03*
%TO.P,R9,2*%
%TO.N,Net-(U5-FB)*%
X177200000Y-110490000D03*
%TD*%
D17*
%TO.P,U5,1,VIN*%
%TO.N,Net-(JP2-B)*%
X176330000Y-106850000D03*
%TO.P,U5,2,SW*%
%TO.N,Net-(U5-SW)*%
X176330000Y-107350000D03*
%TO.P,U5,3,GND*%
%TO.N,GND*%
X176330000Y-107850000D03*
%TO.P,U5,4,BST*%
%TO.N,Net-(U5-BST)*%
X177830000Y-107850000D03*
%TO.P,U5,5,EN*%
%TO.N,unconnected-(U5-EN-Pad5)*%
X177830000Y-107350000D03*
%TO.P,U5,6,FB*%
%TO.N,Net-(U5-FB)*%
X177830000Y-106850000D03*
%TD*%
%TO.P,U2,1,VIN*%
%TO.N,VBUS*%
X176330000Y-130900000D03*
%TO.P,U2,2,SW*%
%TO.N,Net-(U2-SW)*%
X176330000Y-131400000D03*
%TO.P,U2,3,GND*%
%TO.N,GND*%
X176330000Y-131900000D03*
%TO.P,U2,4,BST*%
%TO.N,Net-(U2-BST)*%
X177830000Y-131900000D03*
%TO.P,U2,5,EN*%
%TO.N,unconnected-(U2-EN-Pad5)*%
X177830000Y-131400000D03*
%TO.P,U2,6,FB*%
%TO.N,Net-(U2-FB)*%
X177830000Y-130900000D03*
%TD*%
%TO.P,U4,1,VIN*%
%TO.N,VBUS*%
X176330000Y-114850000D03*
%TO.P,U4,2,SW*%
%TO.N,Net-(U4-SW)*%
X176330000Y-115350000D03*
%TO.P,U4,3,GND*%
%TO.N,GND*%
X176330000Y-115850000D03*
%TO.P,U4,4,BST*%
%TO.N,Net-(U4-BST)*%
X177830000Y-115850000D03*
%TO.P,U4,5,EN*%
%TO.N,unconnected-(U4-EN-Pad5)*%
X177830000Y-115350000D03*
%TO.P,U4,6,FB*%
%TO.N,Net-(U4-FB)*%
X177830000Y-114850000D03*
%TD*%
D13*
%TO.P,TP13,1,1*%
%TO.N,VBUS*%
X181350000Y-141100000D03*
%TD*%
D17*
%TO.P,U3,1,VIN*%
%TO.N,Net-(JP1-B)*%
X176330000Y-122900000D03*
%TO.P,U3,2,SW*%
%TO.N,Net-(U3-SW)*%
X176330000Y-123400000D03*
%TO.P,U3,3,GND*%
%TO.N,GND*%
X176330000Y-123900000D03*
%TO.P,U3,4,BST*%
%TO.N,Net-(U3-BST)*%
X177830000Y-123900000D03*
%TO.P,U3,5,EN*%
%TO.N,unconnected-(U3-EN-Pad5)*%
X177830000Y-123400000D03*
%TO.P,U3,6,FB*%
%TO.N,Net-(U3-FB)*%
X177830000Y-122900000D03*
%TD*%
D18*
%TO.P,JP2,2,B*%
%TO.N,Net-(JP2-B)*%
X179275000Y-105700000D03*
%TO.P,JP2,1,A*%
%TO.N,VBUS*%
X180575000Y-105700000D03*
%TD*%
%TO.P,JP1,1,A*%
%TO.N,VBUS*%
X180600000Y-121800000D03*
%TO.P,JP1,2,B*%
%TO.N,Net-(JP1-B)*%
X179300000Y-121800000D03*
%TD*%
D17*
%TO.P,U1,1,VIN*%
%TO.N,VBUS*%
X176330000Y-138850000D03*
%TO.P,U1,2,SW*%
%TO.N,Net-(U1-SW)*%
X176330000Y-139350000D03*
%TO.P,U1,3,GND*%
%TO.N,GND*%
X176330000Y-139850000D03*
%TO.P,U1,4,BST*%
%TO.N,Net-(U1-BST)*%
X177830000Y-139850000D03*
%TO.P,U1,5,EN*%
%TO.N,unconnected-(U1-EN-Pad5)*%
X177830000Y-139350000D03*
%TO.P,U1,6,FB*%
%TO.N,Net-(U1-FB)*%
X177830000Y-138850000D03*
%TD*%
D19*
%TO.N,Net-(U1-BST)*%
X172000000Y-137500000D03*
%TO.N,GND*%
X172900000Y-142050000D03*
X167050000Y-106700000D03*
X171550000Y-117450000D03*
X177550000Y-141650000D03*
X169150000Y-109450000D03*
X167050000Y-131700000D03*
X172350000Y-109450000D03*
X177550000Y-109650000D03*
X166050000Y-131700000D03*
X175950000Y-108850000D03*
X167050000Y-130700000D03*
X169150000Y-125500000D03*
X169150000Y-117450000D03*
X167050000Y-114650000D03*
X177550000Y-124900000D03*
X166050000Y-115650000D03*
X172850000Y-126150000D03*
X178350000Y-125700000D03*
X176750000Y-108850000D03*
X170800000Y-141400000D03*
X177550000Y-133700000D03*
X170000000Y-141400000D03*
X178350000Y-116850000D03*
X167050000Y-123700000D03*
X176750000Y-116850000D03*
X169150000Y-133500000D03*
X166050000Y-123700000D03*
X171200000Y-147850000D03*
X171550000Y-109450000D03*
X167050000Y-138700000D03*
X176750000Y-140850000D03*
X178350000Y-133700000D03*
X175950000Y-124900000D03*
X166050000Y-138700000D03*
X177550000Y-132900000D03*
X172200000Y-147850000D03*
X175950000Y-132900000D03*
X169950000Y-117450000D03*
X171550000Y-125500000D03*
X169200000Y-141400000D03*
X172350000Y-117450000D03*
X171550000Y-133500000D03*
X167050000Y-107700000D03*
X171600000Y-141400000D03*
X175950000Y-140850000D03*
X172350000Y-133500000D03*
X169950000Y-125500000D03*
X166050000Y-106700000D03*
X178350000Y-109650000D03*
X177550000Y-117650000D03*
X167050000Y-139700000D03*
X178350000Y-140850000D03*
X166050000Y-130700000D03*
X172850000Y-110100000D03*
X167050000Y-115650000D03*
X177550000Y-140850000D03*
X170750000Y-109450000D03*
X166050000Y-114650000D03*
X171200000Y-148850000D03*
X172850000Y-118100000D03*
X170750000Y-133500000D03*
X178350000Y-117650000D03*
X177550000Y-108850000D03*
X166050000Y-139700000D03*
X177550000Y-125700000D03*
X178350000Y-124900000D03*
X170750000Y-117450000D03*
X178350000Y-108850000D03*
X166050000Y-107700000D03*
X176750000Y-124900000D03*
X177550000Y-116850000D03*
X169950000Y-133500000D03*
X172350000Y-125500000D03*
X175950000Y-116850000D03*
X167050000Y-122700000D03*
X178350000Y-132900000D03*
X166050000Y-122700000D03*
X176750000Y-132900000D03*
X170750000Y-125500000D03*
X178350000Y-141650000D03*
X172850000Y-134150000D03*
X169950000Y-109450000D03*
X172400000Y-141400000D03*
X172200000Y-148850000D03*
%TO.N,Net-(U1-BST)*%
X178900000Y-139850000D03*
%TO.N,VBUS*%
X177550000Y-129850000D03*
X176750000Y-129850000D03*
X177550000Y-113800000D03*
X175950000Y-137800000D03*
X176750000Y-113800000D03*
X177550000Y-137800000D03*
X175950000Y-113800000D03*
X178350000Y-113800000D03*
X175950000Y-129850000D03*
X178350000Y-129850000D03*
X178350000Y-137800000D03*
X176750000Y-137800000D03*
%TO.N,Net-(U2-BST)*%
X178900000Y-131900000D03*
X172000000Y-129600000D03*
%TO.N,Net-(U3-BST)*%
X178900000Y-123900000D03*
X172000000Y-121600000D03*
%TO.N,Net-(JP1-B)*%
X178350000Y-121850000D03*
X175950000Y-121850000D03*
X177550000Y-121850000D03*
X176750000Y-121850000D03*
%TO.N,Net-(U4-BST)*%
X178900000Y-115850000D03*
X172000000Y-113500000D03*
%TO.N,Net-(U5-BST)*%
X172000000Y-105500000D03*
X178900000Y-107850000D03*
%TO.N,Net-(JP2-B)*%
X175950000Y-105800000D03*
X178350000Y-105800000D03*
X177550000Y-105800000D03*
X176750000Y-105800000D03*
%TD*%
D20*
%TO.N,Net-(U5-BST)*%
X172000000Y-105500000D02*
X170880000Y-105500000D01*
%TO.N,Net-(U4-BST)*%
X172000000Y-113500000D02*
X170880000Y-113500000D01*
%TO.N,Net-(U3-BST)*%
X172000000Y-121600000D02*
X170880000Y-121600000D01*
%TO.N,Net-(U2-BST)*%
X172000000Y-129600000D02*
X170880000Y-129600000D01*
%TO.N,Net-(U1-BST)*%
X172000000Y-137500000D02*
X170880000Y-137500000D01*
%TO.N,Net-(U5-SW)*%
X169920000Y-105500000D02*
X169920000Y-106720000D01*
X169920000Y-106720000D02*
X170800000Y-107600000D01*
%TO.N,Net-(U4-SW)*%
X169920000Y-113500000D02*
X169920000Y-114720000D01*
X169920000Y-114720000D02*
X170800000Y-115600000D01*
%TO.N,Net-(U1-SW)*%
X169920000Y-137500000D02*
X169920000Y-138720000D01*
X169920000Y-138720000D02*
X170800000Y-139600000D01*
%TO.N,Net-(U2-SW)*%
X169920000Y-129600000D02*
X169920000Y-130770000D01*
X169920000Y-130770000D02*
X170800000Y-131650000D01*
%TO.N,Net-(U3-SW)*%
X169920000Y-121600000D02*
X169920000Y-122770000D01*
X169920000Y-122770000D02*
X170800000Y-123650000D01*
%TO.N,GND*%
X178200000Y-142520000D02*
X178200000Y-142400000D01*
X178200000Y-142400000D02*
X178224999Y-142375001D01*
%TO.N,Net-(U1-BST)*%
X178900000Y-139850000D02*
X177715000Y-139850000D01*
%TO.N,+1V0*%
X171550000Y-143050000D02*
X172000000Y-143500000D01*
X172000000Y-143500000D02*
X174300000Y-143500000D01*
X170800000Y-143050000D02*
X171550000Y-143050000D01*
X166550000Y-143150000D02*
X170700000Y-143150000D01*
X170700000Y-143150000D02*
X170800000Y-143050000D01*
X177180000Y-143500000D02*
X177200000Y-143480000D01*
X175900000Y-143500000D02*
X177180000Y-143500000D01*
X174300000Y-143500000D02*
X175900000Y-143500000D01*
%TO.N,Net-(U2-BST)*%
X177715000Y-131900000D02*
X178900000Y-131900000D01*
%TO.N,+1V15*%
X171550000Y-135100000D02*
X172000000Y-135550000D01*
X170800000Y-135100000D02*
X171550000Y-135100000D01*
X177180000Y-135550000D02*
X177200000Y-135530000D01*
X166550000Y-135200000D02*
X170700000Y-135200000D01*
X172000000Y-135550000D02*
X174300000Y-135550000D01*
X174300000Y-135550000D02*
X175900000Y-135550000D01*
X175900000Y-135550000D02*
X177180000Y-135550000D01*
X170700000Y-135200000D02*
X170800000Y-135100000D01*
%TO.N,Net-(U3-BST)*%
X178900000Y-123900000D02*
X177715000Y-123900000D01*
%TO.N,+1V8*%
X166550000Y-127200000D02*
X170700000Y-127200000D01*
X177180000Y-127550000D02*
X177200000Y-127530000D01*
X170800000Y-127100000D02*
X171500000Y-127100000D01*
X171950000Y-127550000D02*
X174300000Y-127550000D01*
X174300000Y-127550000D02*
X175900000Y-127550000D01*
X171500000Y-127100000D02*
X171950000Y-127550000D01*
X170700000Y-127200000D02*
X170800000Y-127100000D01*
X175900000Y-127550000D02*
X177180000Y-127550000D01*
%TO.N,Net-(U4-BST)*%
X177715000Y-115850000D02*
X178900000Y-115850000D01*
%TO.N,+3V3*%
X170800000Y-119050000D02*
X171500000Y-119050000D01*
X174300000Y-119500000D02*
X175900000Y-119500000D01*
X170700000Y-119150000D02*
X170800000Y-119050000D01*
X175900000Y-119500000D02*
X177180000Y-119500000D01*
X166550000Y-119150000D02*
X170700000Y-119150000D01*
X171500000Y-119050000D02*
X171950000Y-119500000D01*
X177180000Y-119500000D02*
X177200000Y-119480000D01*
X171950000Y-119500000D02*
X174300000Y-119500000D01*
%TO.N,Net-(U5-SW)*%
X176420001Y-107374999D02*
X176445000Y-107350000D01*
%TO.N,Net-(U5-BST)*%
X178900000Y-107850000D02*
X177715000Y-107850000D01*
%TO.N,+5V*%
X166550000Y-111150000D02*
X170700000Y-111150000D01*
X172000000Y-111500000D02*
X174300000Y-111500000D01*
X174300000Y-111500000D02*
X175900000Y-111500000D01*
X175900000Y-111500000D02*
X177180000Y-111500000D01*
X177180000Y-111500000D02*
X177200000Y-111480000D01*
X171550000Y-111050000D02*
X172000000Y-111500000D01*
X170800000Y-111050000D02*
X171550000Y-111050000D01*
X170700000Y-111150000D02*
X170800000Y-111050000D01*
%TO.N,Net-(U1-FB)*%
X178174999Y-143478001D02*
X178794999Y-143478001D01*
X179624999Y-142648001D02*
X179624999Y-139525001D01*
X178948001Y-138848001D02*
X177689999Y-138848001D01*
X179600000Y-139500000D02*
X178948001Y-138848001D01*
X177739999Y-138874999D02*
X177715000Y-138850000D01*
X178794999Y-143478001D02*
X179624999Y-142648001D01*
X177200000Y-142520000D02*
X177240000Y-142520000D01*
X177240000Y-142520000D02*
X178200000Y-143480000D01*
%TO.N,Net-(U2-FB)*%
X177200000Y-134570000D02*
X177240000Y-134570000D01*
X179650000Y-134711500D02*
X179650000Y-131588500D01*
X177739999Y-130924999D02*
X177715000Y-130900000D01*
X178973002Y-130911500D02*
X177715000Y-130911500D01*
X177240000Y-134570000D02*
X178200000Y-135530000D01*
X178200000Y-135541500D02*
X178820000Y-135541500D01*
X178820000Y-135541500D02*
X179650000Y-134711500D01*
X179625001Y-131563499D02*
X178973002Y-130911500D01*
%TO.N,Net-(U3-FB)*%
X178174999Y-127528001D02*
X178794999Y-127528001D01*
X177200000Y-126570000D02*
X177240000Y-126570000D01*
X178794999Y-127528001D02*
X179624999Y-126698001D01*
X177240000Y-126570000D02*
X178200000Y-127530000D01*
X179600000Y-123550000D02*
X178948001Y-122898001D01*
X178948001Y-122898001D02*
X177689999Y-122898001D01*
X179624999Y-126698001D02*
X179624999Y-123575001D01*
%TO.N,Net-(U4-FB)*%
X179625001Y-115501999D02*
X178973002Y-114850000D01*
X179650000Y-118650000D02*
X179650000Y-115527000D01*
X178820000Y-119480000D02*
X179650000Y-118650000D01*
X178973002Y-114850000D02*
X177715000Y-114850000D01*
X177240000Y-118520000D02*
X178200000Y-119480000D01*
X178200000Y-119480000D02*
X178820000Y-119480000D01*
X177200000Y-118520000D02*
X177240000Y-118520000D01*
%TO.N,Net-(U5-FB)*%
X179625001Y-107501999D02*
X178973002Y-106850000D01*
X179625001Y-110624999D02*
X179625001Y-107501999D01*
X177200000Y-110520000D02*
X177240000Y-110520000D01*
X178200000Y-111480000D02*
X178770000Y-111480000D01*
X178770000Y-111480000D02*
X179625001Y-110624999D01*
X178973002Y-106850000D02*
X177715000Y-106850000D01*
X177240000Y-110520000D02*
X178200000Y-111480000D01*
%TD*%
%TA.AperFunction,Conductor*%
%TO.N,Net-(JP1-B)*%
G36*
X178546703Y-120825001D02*
G01*
X178547239Y-120825003D01*
X178549475Y-120825012D01*
X178550445Y-120825020D01*
X178553409Y-120825060D01*
X178553622Y-120825064D01*
X179572216Y-120842934D01*
X179591677Y-120844793D01*
X179608906Y-120847801D01*
X179684497Y-120860999D01*
X179721400Y-120873565D01*
X179759078Y-120893350D01*
X179810091Y-120942729D01*
X179826500Y-121004905D01*
X179826500Y-122478082D01*
X179806498Y-122546203D01*
X179757702Y-122590349D01*
X179742299Y-122598197D01*
X179704809Y-122610379D01*
X179640520Y-122620562D01*
X179622291Y-122623449D01*
X179602582Y-122625000D01*
X178227531Y-122625000D01*
X178179315Y-122615410D01*
X178177911Y-122614828D01*
X178115931Y-122602500D01*
X177544075Y-122602500D01*
X177544070Y-122602501D01*
X177482086Y-122614829D01*
X177468356Y-122624003D01*
X177442020Y-122634912D01*
X177442647Y-122636425D01*
X177431184Y-122641173D01*
X177362238Y-122687241D01*
X177316177Y-122756176D01*
X177316175Y-122756180D01*
X177300000Y-122837500D01*
X177300000Y-122837501D01*
X177288713Y-122894240D01*
X177269901Y-122939656D01*
X177251686Y-122966918D01*
X177216918Y-123001686D01*
X177189656Y-123019901D01*
X177144241Y-123038712D01*
X177099673Y-123047578D01*
X177075089Y-123050000D01*
X174084917Y-123050000D01*
X174065208Y-123048449D01*
X174045425Y-123045316D01*
X173971103Y-123033544D01*
X173933611Y-123021362D01*
X173857664Y-122982665D01*
X173825772Y-122959493D01*
X173765506Y-122899227D01*
X173742334Y-122867335D01*
X173703637Y-122791388D01*
X173691455Y-122753895D01*
X173676551Y-122659792D01*
X173675000Y-122640082D01*
X173675000Y-122111200D01*
X173676520Y-122091691D01*
X173680466Y-122066507D01*
X173691124Y-121998511D01*
X173703059Y-121961370D01*
X173741010Y-121885993D01*
X173763733Y-121854288D01*
X173829907Y-121787043D01*
X173844656Y-121774220D01*
X175010796Y-120909667D01*
X175027810Y-120899043D01*
X175113674Y-120854508D01*
X175151670Y-120841959D01*
X175211438Y-120832345D01*
X175247164Y-120826599D01*
X175267174Y-120825000D01*
X178546186Y-120825000D01*
X178546703Y-120825001D01*
G37*
%TD.AperFunction*%
%TD*%
%TA.AperFunction,Conductor*%
%TO.N,Net-(U5-SW)*%
G36*
X173050100Y-106552862D02*
G01*
X173074649Y-106555296D01*
X173190853Y-106578481D01*
X173236218Y-106597293D01*
X173301164Y-106640707D01*
X173334722Y-106663139D01*
X173353790Y-106678790D01*
X173618266Y-106943266D01*
X173748678Y-107030241D01*
X173761544Y-107032765D01*
X173795058Y-107045083D01*
X173795305Y-107044600D01*
X173873435Y-107084410D01*
X173873448Y-107084415D01*
X173873457Y-107084420D01*
X173892666Y-107092377D01*
X173930158Y-107104559D01*
X173943007Y-107107644D01*
X173950356Y-107109409D01*
X173950359Y-107109409D01*
X173950374Y-107109413D01*
X174024696Y-107121185D01*
X174024699Y-107121185D01*
X174029586Y-107121959D01*
X174029585Y-107121959D01*
X174029591Y-107121960D01*
X174039067Y-107123460D01*
X174044482Y-107124318D01*
X174054813Y-107125541D01*
X174074522Y-107127092D01*
X174083225Y-107127433D01*
X174084914Y-107127500D01*
X174084917Y-107127500D01*
X175938504Y-107127500D01*
X175969724Y-107133710D01*
X175969915Y-107132750D01*
X175982087Y-107135171D01*
X176044071Y-107147500D01*
X176615928Y-107147499D01*
X176677913Y-107135171D01*
X176677913Y-107135170D01*
X176690086Y-107132750D01*
X176690276Y-107133710D01*
X176721496Y-107127500D01*
X176767235Y-107127500D01*
X176835356Y-107147502D01*
X176881849Y-107201158D01*
X176890803Y-107228864D01*
X176897569Y-107262801D01*
X176900001Y-107287437D01*
X176900001Y-107416877D01*
X176897579Y-107441461D01*
X176891894Y-107470038D01*
X176873081Y-107515456D01*
X176861593Y-107532649D01*
X176833431Y-107562687D01*
X176831079Y-107564488D01*
X176764833Y-107590022D01*
X176695299Y-107575687D01*
X176684474Y-107569213D01*
X176677913Y-107564829D01*
X176615931Y-107552500D01*
X176044075Y-107552500D01*
X176044070Y-107552501D01*
X175982086Y-107564829D01*
X175911795Y-107611795D01*
X175857934Y-107692406D01*
X175856583Y-107691503D01*
X175820975Y-107735691D01*
X175753611Y-107758111D01*
X175749115Y-107758191D01*
X174035475Y-107758191D01*
X173928253Y-107772832D01*
X173928244Y-107772835D01*
X173828861Y-107815688D01*
X173793569Y-107844141D01*
X173744603Y-107883620D01*
X173441573Y-108204651D01*
X173098272Y-108568345D01*
X173085729Y-108579945D01*
X173021533Y-108631702D01*
X172992340Y-108649314D01*
X172924550Y-108678545D01*
X172891707Y-108687684D01*
X172827355Y-108696471D01*
X172810003Y-108698841D01*
X172792958Y-108700000D01*
X169759917Y-108700000D01*
X169740208Y-108698449D01*
X169720425Y-108695316D01*
X169646103Y-108683544D01*
X169608611Y-108671362D01*
X169532664Y-108632665D01*
X169500772Y-108609493D01*
X169440506Y-108549227D01*
X169417334Y-108517335D01*
X169378637Y-108441388D01*
X169366455Y-108403895D01*
X169351551Y-108309792D01*
X169350000Y-108290082D01*
X169350000Y-106960230D01*
X169351553Y-106940509D01*
X169366472Y-106846363D01*
X169378664Y-106808858D01*
X169417399Y-106732879D01*
X169440586Y-106700985D01*
X169500914Y-106640704D01*
X169532826Y-106617541D01*
X169608842Y-106578861D01*
X169646346Y-106566702D01*
X169740515Y-106551854D01*
X169760217Y-106550317D01*
X173050100Y-106552862D01*
G37*
%TD.AperFunction*%
%TD*%
%TA.AperFunction,Conductor*%
%TO.N,VBUS*%
G36*
X179959000Y-131484000D02*
G01*
X179217157Y-130742157D01*
X179087388Y-130655448D01*
X179087387Y-130655447D01*
X178934320Y-130625000D01*
X178934315Y-130625000D01*
X178227531Y-130625000D01*
X178179315Y-130615410D01*
X178177911Y-130614828D01*
X178115931Y-130602500D01*
X177544075Y-130602500D01*
X177544070Y-130602501D01*
X177482086Y-130614829D01*
X177468356Y-130624003D01*
X177442020Y-130634912D01*
X177442647Y-130636425D01*
X177431184Y-130641173D01*
X177362238Y-130687241D01*
X177316177Y-130756176D01*
X177316175Y-130756180D01*
X177300000Y-130837500D01*
X177300000Y-130837501D01*
X177288713Y-130894240D01*
X177269901Y-130939656D01*
X177251686Y-130966918D01*
X177216918Y-131001686D01*
X177189656Y-131019901D01*
X177144241Y-131038712D01*
X177099673Y-131047578D01*
X177075089Y-131050000D01*
X174084917Y-131050000D01*
X174065208Y-131048449D01*
X174045425Y-131045316D01*
X173971103Y-131033544D01*
X173933611Y-131021362D01*
X173857664Y-130982665D01*
X173825772Y-130959493D01*
X173765506Y-130899227D01*
X173742334Y-130867335D01*
X173703637Y-130791388D01*
X173691455Y-130753895D01*
X173676551Y-130659792D01*
X173675000Y-130640082D01*
X173675000Y-130111200D01*
X173676520Y-130091691D01*
X173680466Y-130066507D01*
X173691124Y-129998511D01*
X173703059Y-129961370D01*
X173741010Y-129885993D01*
X173763733Y-129854288D01*
X173829907Y-129787043D01*
X173844656Y-129774220D01*
X175010796Y-128909667D01*
X175027810Y-128899043D01*
X175113674Y-128854508D01*
X175151670Y-128841959D01*
X175211438Y-128832345D01*
X175247164Y-128826599D01*
X175267174Y-128825000D01*
X179558998Y-128825000D01*
X179559000Y-128825000D01*
X179959000Y-128825000D01*
X179959000Y-131484000D01*
G37*
%TD.AperFunction*%
%TD*%
%TA.AperFunction,Conductor*%
%TO.N,Net-(U1-SW)*%
G36*
X173047100Y-138554671D02*
G01*
X173071649Y-138557105D01*
X173187853Y-138580290D01*
X173233218Y-138599102D01*
X173298164Y-138642516D01*
X173331722Y-138664948D01*
X173350790Y-138680599D01*
X173615266Y-138945075D01*
X173745678Y-139032050D01*
X173754848Y-139033849D01*
X173795296Y-139049617D01*
X173795305Y-139049600D01*
X173795310Y-139049602D01*
X173795358Y-139049517D01*
X173796090Y-139049927D01*
X173796422Y-139050056D01*
X173797510Y-139050723D01*
X173797519Y-139050727D01*
X173797532Y-139050735D01*
X173873435Y-139089410D01*
X173873448Y-139089415D01*
X173873457Y-139089420D01*
X173892666Y-139097377D01*
X173892668Y-139097377D01*
X173892669Y-139097378D01*
X173930141Y-139109554D01*
X173930153Y-139109557D01*
X173930158Y-139109559D01*
X173930162Y-139109560D01*
X173932537Y-139110230D01*
X173932510Y-139110324D01*
X173932513Y-139110325D01*
X173932491Y-139110390D01*
X173932486Y-139110408D01*
X173942429Y-139113983D01*
X173942449Y-139113921D01*
X173951792Y-139116808D01*
X173951794Y-139116808D01*
X173951796Y-139116809D01*
X174025173Y-139127500D01*
X174025182Y-139127499D01*
X174025183Y-139127500D01*
X174029737Y-139127831D01*
X174029722Y-139128025D01*
X174042825Y-139129055D01*
X174044482Y-139129318D01*
X174054813Y-139130541D01*
X174074522Y-139132092D01*
X174083225Y-139132433D01*
X174084914Y-139132500D01*
X174084917Y-139132500D01*
X175956248Y-139132500D01*
X175980829Y-139134921D01*
X176003408Y-139139412D01*
X176044071Y-139147500D01*
X176615928Y-139147499D01*
X176658426Y-139139046D01*
X176679171Y-139134921D01*
X176703750Y-139132500D01*
X176764871Y-139132500D01*
X176832992Y-139152502D01*
X176879485Y-139206158D01*
X176888439Y-139233864D01*
X176894569Y-139264610D01*
X176897001Y-139289246D01*
X176897001Y-139418686D01*
X176894579Y-139443270D01*
X176888894Y-139471847D01*
X176870082Y-139517264D01*
X176858798Y-139534152D01*
X176804321Y-139579680D01*
X176733878Y-139588529D01*
X176684031Y-139568917D01*
X176677912Y-139564828D01*
X176615931Y-139552500D01*
X176044075Y-139552500D01*
X176044070Y-139552501D01*
X175982086Y-139564829D01*
X175911795Y-139611795D01*
X175864830Y-139682084D01*
X175864776Y-139682216D01*
X175864581Y-139682457D01*
X175857934Y-139692406D01*
X175857043Y-139691811D01*
X175820228Y-139737498D01*
X175752865Y-139759920D01*
X175748366Y-139760000D01*
X174032475Y-139760000D01*
X173925253Y-139774641D01*
X173925244Y-139774644D01*
X173825861Y-139817497D01*
X173790569Y-139845950D01*
X173741603Y-139885429D01*
X173438573Y-140206460D01*
X173095272Y-140570154D01*
X173082729Y-140581754D01*
X173018533Y-140633511D01*
X172989340Y-140651123D01*
X172921550Y-140680354D01*
X172888707Y-140689493D01*
X172824355Y-140698280D01*
X172807003Y-140700650D01*
X172789958Y-140701809D01*
X169756917Y-140701809D01*
X169737208Y-140700258D01*
X169717425Y-140697125D01*
X169643103Y-140685353D01*
X169605611Y-140673171D01*
X169529664Y-140634474D01*
X169497772Y-140611302D01*
X169437506Y-140551036D01*
X169414334Y-140519144D01*
X169375637Y-140443197D01*
X169363455Y-140405704D01*
X169348551Y-140311601D01*
X169347000Y-140291891D01*
X169347000Y-138962039D01*
X169348553Y-138942318D01*
X169363472Y-138848172D01*
X169375664Y-138810667D01*
X169414399Y-138734688D01*
X169437586Y-138702794D01*
X169497914Y-138642513D01*
X169529826Y-138619350D01*
X169605842Y-138580670D01*
X169643346Y-138568511D01*
X169737515Y-138553663D01*
X169757217Y-138552126D01*
X173047100Y-138554671D01*
G37*
%TD.AperFunction*%
%TD*%
%TA.AperFunction,Conductor*%
%TO.N,Net-(JP2-B)*%
G36*
X178546703Y-104770001D02*
G01*
X178547239Y-104770003D01*
X178549475Y-104770012D01*
X178550445Y-104770020D01*
X178553409Y-104770060D01*
X178553622Y-104770064D01*
X179572216Y-104787934D01*
X179591677Y-104789793D01*
X179608906Y-104792801D01*
X179684497Y-104805999D01*
X179721395Y-104818562D01*
X179796043Y-104857760D01*
X179827446Y-104881116D01*
X179827646Y-104881319D01*
X179861043Y-104943970D01*
X179857493Y-105008450D01*
X179850446Y-105030136D01*
X179850439Y-105030162D01*
X179845585Y-105050382D01*
X179845584Y-105050387D01*
X179830679Y-105144493D01*
X179829459Y-105154801D01*
X179827907Y-105174525D01*
X179827500Y-105184915D01*
X179827500Y-106422573D01*
X179807498Y-106490694D01*
X179758699Y-106534842D01*
X179742296Y-106543199D01*
X179704809Y-106555379D01*
X179643829Y-106565038D01*
X179622291Y-106568449D01*
X179602582Y-106570000D01*
X178215459Y-106570000D01*
X178190523Y-106565038D01*
X178190084Y-106567250D01*
X178115931Y-106552500D01*
X177544075Y-106552500D01*
X177544070Y-106552501D01*
X177482086Y-106564829D01*
X177479014Y-106566882D01*
X177433598Y-106585694D01*
X177431182Y-106586174D01*
X177431178Y-106586176D01*
X177362238Y-106632240D01*
X177316177Y-106701176D01*
X177316175Y-106701180D01*
X177300000Y-106782500D01*
X177300000Y-106782501D01*
X177288713Y-106839240D01*
X177269901Y-106884656D01*
X177251686Y-106911918D01*
X177216918Y-106946686D01*
X177189656Y-106964901D01*
X177144241Y-106983712D01*
X177099673Y-106992578D01*
X177075089Y-106995000D01*
X174084917Y-106995000D01*
X174065208Y-106993449D01*
X174045425Y-106990316D01*
X173971103Y-106978544D01*
X173933611Y-106966362D01*
X173857664Y-106927665D01*
X173825772Y-106904493D01*
X173765506Y-106844227D01*
X173742334Y-106812335D01*
X173703637Y-106736388D01*
X173691455Y-106698895D01*
X173676551Y-106604792D01*
X173675000Y-106585082D01*
X173675000Y-106056200D01*
X173676520Y-106036691D01*
X173680466Y-106011507D01*
X173691124Y-105943511D01*
X173703059Y-105906370D01*
X173741010Y-105830993D01*
X173763733Y-105799288D01*
X173829907Y-105732043D01*
X173844656Y-105719220D01*
X175010796Y-104854667D01*
X175027810Y-104844043D01*
X175113674Y-104799508D01*
X175151670Y-104786959D01*
X175211438Y-104777345D01*
X175247164Y-104771599D01*
X175267174Y-104770000D01*
X178546186Y-104770000D01*
X178546703Y-104770001D01*
G37*
%TD.AperFunction*%
%TD*%
%TA.AperFunction,Conductor*%
%TO.N,Net-(U4-SW)*%
G36*
X173047100Y-114554671D02*
G01*
X173071649Y-114557105D01*
X173187853Y-114580290D01*
X173233218Y-114599102D01*
X173298164Y-114642516D01*
X173331722Y-114664948D01*
X173350790Y-114680599D01*
X173615266Y-114945075D01*
X173745678Y-115032050D01*
X173754848Y-115033849D01*
X173795296Y-115049617D01*
X173795305Y-115049600D01*
X173795310Y-115049602D01*
X173795358Y-115049517D01*
X173796090Y-115049927D01*
X173796422Y-115050056D01*
X173797510Y-115050723D01*
X173797519Y-115050727D01*
X173797532Y-115050735D01*
X173873435Y-115089410D01*
X173873448Y-115089415D01*
X173873457Y-115089420D01*
X173892666Y-115097377D01*
X173892668Y-115097377D01*
X173892669Y-115097378D01*
X173930141Y-115109554D01*
X173930153Y-115109557D01*
X173930158Y-115109559D01*
X173930162Y-115109560D01*
X173932537Y-115110230D01*
X173932510Y-115110324D01*
X173932513Y-115110325D01*
X173932491Y-115110390D01*
X173932486Y-115110408D01*
X173942429Y-115113983D01*
X173942449Y-115113921D01*
X173951792Y-115116808D01*
X173951794Y-115116808D01*
X173951796Y-115116809D01*
X174025173Y-115127500D01*
X174025182Y-115127499D01*
X174025183Y-115127500D01*
X174029737Y-115127831D01*
X174029722Y-115128025D01*
X174042825Y-115129055D01*
X174044482Y-115129318D01*
X174054813Y-115130541D01*
X174074522Y-115132092D01*
X174083225Y-115132433D01*
X174084914Y-115132500D01*
X174084917Y-115132500D01*
X175956248Y-115132500D01*
X175980829Y-115134921D01*
X176003408Y-115139412D01*
X176044071Y-115147500D01*
X176615928Y-115147499D01*
X176658426Y-115139046D01*
X176679171Y-115134921D01*
X176703750Y-115132500D01*
X176764871Y-115132500D01*
X176832992Y-115152502D01*
X176879485Y-115206158D01*
X176888439Y-115233864D01*
X176894569Y-115264610D01*
X176897001Y-115289246D01*
X176897001Y-115418686D01*
X176894579Y-115443270D01*
X176888894Y-115471847D01*
X176870082Y-115517264D01*
X176858798Y-115534152D01*
X176804321Y-115579680D01*
X176733878Y-115588529D01*
X176684031Y-115568917D01*
X176677912Y-115564828D01*
X176615931Y-115552500D01*
X176044075Y-115552500D01*
X176044070Y-115552501D01*
X175982086Y-115564829D01*
X175911795Y-115611795D01*
X175864830Y-115682084D01*
X175864776Y-115682216D01*
X175864581Y-115682457D01*
X175857934Y-115692406D01*
X175857043Y-115691811D01*
X175820228Y-115737498D01*
X175752865Y-115759920D01*
X175748366Y-115760000D01*
X174032475Y-115760000D01*
X173925253Y-115774641D01*
X173925244Y-115774644D01*
X173825861Y-115817497D01*
X173790569Y-115845950D01*
X173741603Y-115885429D01*
X173438573Y-116206460D01*
X173095272Y-116570154D01*
X173082729Y-116581754D01*
X173018533Y-116633511D01*
X172989340Y-116651123D01*
X172921550Y-116680354D01*
X172888707Y-116689493D01*
X172824355Y-116698280D01*
X172807003Y-116700650D01*
X172789958Y-116701809D01*
X169756917Y-116701809D01*
X169737208Y-116700258D01*
X169717425Y-116697125D01*
X169643103Y-116685353D01*
X169605611Y-116673171D01*
X169529664Y-116634474D01*
X169497772Y-116611302D01*
X169437506Y-116551036D01*
X169414334Y-116519144D01*
X169375637Y-116443197D01*
X169363455Y-116405704D01*
X169348551Y-116311601D01*
X169347000Y-116291891D01*
X169347000Y-114962039D01*
X169348553Y-114942318D01*
X169363472Y-114848172D01*
X169375664Y-114810667D01*
X169414399Y-114734688D01*
X169437586Y-114702794D01*
X169497914Y-114642513D01*
X169529826Y-114619350D01*
X169605842Y-114580670D01*
X169643346Y-114568511D01*
X169737515Y-114553663D01*
X169757217Y-114552126D01*
X173047100Y-114554671D01*
G37*
%TD.AperFunction*%
%TD*%
%TA.AperFunction,Conductor*%
%TO.N,VBUS*%
G36*
X179959000Y-115434000D02*
G01*
X179217157Y-114692157D01*
X179087388Y-114605448D01*
X179087387Y-114605447D01*
X178934320Y-114575000D01*
X178934315Y-114575000D01*
X178227531Y-114575000D01*
X178179315Y-114565410D01*
X178177911Y-114564828D01*
X178115931Y-114552500D01*
X177544075Y-114552500D01*
X177544070Y-114552501D01*
X177482086Y-114564829D01*
X177468356Y-114574003D01*
X177442020Y-114584912D01*
X177442647Y-114586425D01*
X177431184Y-114591173D01*
X177362238Y-114637241D01*
X177316177Y-114706176D01*
X177316175Y-114706180D01*
X177300000Y-114787500D01*
X177300000Y-114787501D01*
X177288713Y-114844240D01*
X177269901Y-114889656D01*
X177251686Y-114916918D01*
X177216918Y-114951686D01*
X177189656Y-114969901D01*
X177144241Y-114988712D01*
X177099673Y-114997578D01*
X177075089Y-115000000D01*
X174084917Y-115000000D01*
X174065208Y-114998449D01*
X174045425Y-114995316D01*
X173971103Y-114983544D01*
X173933611Y-114971362D01*
X173857664Y-114932665D01*
X173825772Y-114909493D01*
X173765506Y-114849227D01*
X173742334Y-114817335D01*
X173703637Y-114741388D01*
X173691455Y-114703895D01*
X173676551Y-114609792D01*
X173675000Y-114590082D01*
X173675000Y-114061200D01*
X173676520Y-114041691D01*
X173680466Y-114016507D01*
X173691124Y-113948511D01*
X173703059Y-113911370D01*
X173741010Y-113835993D01*
X173763733Y-113804288D01*
X173829907Y-113737043D01*
X173844656Y-113724220D01*
X175010796Y-112859667D01*
X175027810Y-112849043D01*
X175113674Y-112804508D01*
X175151670Y-112791959D01*
X175211438Y-112782345D01*
X175247164Y-112776599D01*
X175267174Y-112775000D01*
X179558998Y-112775000D01*
X179559000Y-112775000D01*
X179959000Y-112775000D01*
X179959000Y-115434000D01*
G37*
%TD.AperFunction*%
%TD*%
%TA.AperFunction,Conductor*%
%TO.N,VBUS*%
G36*
X181736428Y-104776731D02*
G01*
X181835647Y-104793355D01*
X181875014Y-104806927D01*
X181956791Y-104851393D01*
X181963398Y-104854985D01*
X181980860Y-104866451D01*
X182789008Y-105498883D01*
X182803059Y-105511703D01*
X182865952Y-105578455D01*
X182887514Y-105609669D01*
X182911769Y-105659448D01*
X182924500Y-105714639D01*
X182924500Y-147446194D01*
X182924270Y-147453802D01*
X182906918Y-147740660D01*
X182905084Y-147755764D01*
X182853970Y-148034688D01*
X182850329Y-148049462D01*
X182765964Y-148320197D01*
X182760568Y-148334423D01*
X182644190Y-148593002D01*
X182637120Y-148606474D01*
X182490417Y-148849153D01*
X182481773Y-148861676D01*
X182306886Y-149084902D01*
X182296796Y-149096290D01*
X182096290Y-149296796D01*
X182084902Y-149306886D01*
X181861676Y-149481773D01*
X181849153Y-149490417D01*
X181606474Y-149637120D01*
X181593002Y-149644190D01*
X181334423Y-149760568D01*
X181320197Y-149765964D01*
X181049462Y-149850329D01*
X181034688Y-149853970D01*
X180755764Y-149905084D01*
X180740660Y-149906918D01*
X180453802Y-149924270D01*
X180446194Y-149924500D01*
X175047020Y-149924500D01*
X174989817Y-149910767D01*
X174934664Y-149882665D01*
X174902772Y-149859493D01*
X174842506Y-149799227D01*
X174819334Y-149767335D01*
X174818635Y-149765964D01*
X174780637Y-149691388D01*
X174768455Y-149653895D01*
X174753551Y-149559792D01*
X174752000Y-149540082D01*
X174752000Y-148006094D01*
X174754421Y-147981513D01*
X174777559Y-147865190D01*
X174796370Y-147819775D01*
X174862267Y-147721153D01*
X174877929Y-147702070D01*
X175129999Y-147450000D01*
X179169628Y-147450000D01*
X179189080Y-147672334D01*
X179211435Y-147755764D01*
X179246843Y-147887911D01*
X179246845Y-147887916D01*
X179290490Y-147981513D01*
X179341165Y-148090186D01*
X179469178Y-148273007D01*
X179626993Y-148430822D01*
X179809814Y-148558835D01*
X180012087Y-148653156D01*
X180227666Y-148710920D01*
X180450000Y-148730372D01*
X180672334Y-148710920D01*
X180887913Y-148653156D01*
X181090186Y-148558835D01*
X181273007Y-148430822D01*
X181430822Y-148273007D01*
X181558835Y-148090186D01*
X181653156Y-147887913D01*
X181710920Y-147672334D01*
X181730372Y-147450000D01*
X181710920Y-147227666D01*
X181653156Y-147012087D01*
X181558835Y-146809814D01*
X181430822Y-146626993D01*
X181273007Y-146469178D01*
X181090186Y-146341165D01*
X180887916Y-146246845D01*
X180887911Y-146246843D01*
X180787860Y-146220034D01*
X180672334Y-146189080D01*
X180450000Y-146169628D01*
X180227666Y-146189080D01*
X180169903Y-146204557D01*
X180012088Y-146246843D01*
X180012083Y-146246845D01*
X179809813Y-146341165D01*
X179626996Y-146469175D01*
X179626990Y-146469180D01*
X179469180Y-146626990D01*
X179469175Y-146626996D01*
X179341165Y-146809813D01*
X179246845Y-147012083D01*
X179246843Y-147012088D01*
X179204557Y-147169903D01*
X179189080Y-147227666D01*
X179169628Y-147450000D01*
X175129999Y-147450000D01*
X178834803Y-143745196D01*
X178875670Y-143717889D01*
X178938029Y-143692060D01*
X179839058Y-142791031D01*
X179877499Y-142698226D01*
X179882248Y-142686761D01*
X179883251Y-142687176D01*
X179895224Y-142658265D01*
X179928552Y-142608388D01*
X179959000Y-142455315D01*
X179959000Y-139599685D01*
X179959000Y-107442433D01*
X179959000Y-107442000D01*
X179959001Y-107441567D01*
X179959999Y-106980433D01*
X179960000Y-106980000D01*
X179960000Y-106979567D01*
X179960000Y-105184917D01*
X179961551Y-105165207D01*
X179976455Y-105071104D01*
X179988637Y-105033611D01*
X180027336Y-104957661D01*
X180050503Y-104925775D01*
X180110775Y-104865503D01*
X180142661Y-104842336D01*
X180218613Y-104803636D01*
X180256103Y-104791455D01*
X180350207Y-104776550D01*
X180369917Y-104775000D01*
X181715609Y-104775000D01*
X181736428Y-104776731D01*
G37*
%TD.AperFunction*%
%TD*%
%TA.AperFunction,Conductor*%
%TO.N,Net-(U2-SW)*%
G36*
X173047100Y-130604671D02*
G01*
X173071649Y-130607105D01*
X173187853Y-130630290D01*
X173233218Y-130649102D01*
X173298164Y-130692516D01*
X173331722Y-130714948D01*
X173350790Y-130730599D01*
X173615266Y-130995075D01*
X173745678Y-131082050D01*
X173754848Y-131083849D01*
X173795296Y-131099617D01*
X173795305Y-131099600D01*
X173795310Y-131099602D01*
X173795358Y-131099517D01*
X173796090Y-131099927D01*
X173796422Y-131100056D01*
X173797510Y-131100723D01*
X173797519Y-131100727D01*
X173797532Y-131100735D01*
X173873435Y-131139410D01*
X173873448Y-131139415D01*
X173873457Y-131139420D01*
X173892666Y-131147377D01*
X173892668Y-131147377D01*
X173892669Y-131147378D01*
X173930141Y-131159554D01*
X173930153Y-131159557D01*
X173930158Y-131159559D01*
X173930162Y-131159560D01*
X173932537Y-131160230D01*
X173932510Y-131160324D01*
X173932513Y-131160325D01*
X173932491Y-131160390D01*
X173932486Y-131160408D01*
X173942429Y-131163983D01*
X173942449Y-131163921D01*
X173951792Y-131166808D01*
X173951794Y-131166808D01*
X173951796Y-131166809D01*
X174025173Y-131177500D01*
X174025182Y-131177499D01*
X174025183Y-131177500D01*
X174029737Y-131177831D01*
X174029722Y-131178025D01*
X174042825Y-131179055D01*
X174044482Y-131179318D01*
X174054813Y-131180541D01*
X174074522Y-131182092D01*
X174083225Y-131182433D01*
X174084914Y-131182500D01*
X174084917Y-131182500D01*
X175956248Y-131182500D01*
X175980829Y-131184921D01*
X176003408Y-131189412D01*
X176044071Y-131197500D01*
X176615928Y-131197499D01*
X176658426Y-131189046D01*
X176679171Y-131184921D01*
X176703750Y-131182500D01*
X176764871Y-131182500D01*
X176832992Y-131202502D01*
X176879485Y-131256158D01*
X176888439Y-131283864D01*
X176894569Y-131314610D01*
X176897001Y-131339246D01*
X176897001Y-131468686D01*
X176894579Y-131493270D01*
X176888894Y-131521847D01*
X176870082Y-131567264D01*
X176858798Y-131584152D01*
X176804321Y-131629680D01*
X176733878Y-131638529D01*
X176684031Y-131618917D01*
X176677912Y-131614828D01*
X176615931Y-131602500D01*
X176044075Y-131602500D01*
X176044070Y-131602501D01*
X175982086Y-131614829D01*
X175911795Y-131661795D01*
X175864830Y-131732084D01*
X175864776Y-131732216D01*
X175864581Y-131732457D01*
X175857934Y-131742406D01*
X175857043Y-131741811D01*
X175820228Y-131787498D01*
X175752865Y-131809920D01*
X175748366Y-131810000D01*
X174032475Y-131810000D01*
X173925253Y-131824641D01*
X173925244Y-131824644D01*
X173825861Y-131867497D01*
X173790569Y-131895950D01*
X173741603Y-131935429D01*
X173438573Y-132256460D01*
X173095272Y-132620154D01*
X173082729Y-132631754D01*
X173018533Y-132683511D01*
X172989340Y-132701123D01*
X172921550Y-132730354D01*
X172888707Y-132739493D01*
X172824355Y-132748280D01*
X172807003Y-132750650D01*
X172789958Y-132751809D01*
X169756917Y-132751809D01*
X169737208Y-132750258D01*
X169717425Y-132747125D01*
X169643103Y-132735353D01*
X169605611Y-132723171D01*
X169529664Y-132684474D01*
X169497772Y-132661302D01*
X169437506Y-132601036D01*
X169414334Y-132569144D01*
X169375637Y-132493197D01*
X169363455Y-132455704D01*
X169348551Y-132361601D01*
X169347000Y-132341891D01*
X169347000Y-131012039D01*
X169348553Y-130992318D01*
X169363472Y-130898172D01*
X169375664Y-130860667D01*
X169414399Y-130784688D01*
X169437586Y-130752794D01*
X169497914Y-130692513D01*
X169529826Y-130669350D01*
X169605842Y-130630670D01*
X169643346Y-130618511D01*
X169737515Y-130603663D01*
X169757217Y-130602126D01*
X173047100Y-130604671D01*
G37*
%TD.AperFunction*%
%TD*%
%TA.AperFunction,Conductor*%
%TO.N,VBUS*%
G36*
X179959000Y-139434000D02*
G01*
X179217157Y-138692157D01*
X179087388Y-138605448D01*
X179087387Y-138605447D01*
X178934320Y-138575000D01*
X178934315Y-138575000D01*
X178227531Y-138575000D01*
X178179315Y-138565410D01*
X178177911Y-138564828D01*
X178115931Y-138552500D01*
X177544075Y-138552500D01*
X177544070Y-138552501D01*
X177482086Y-138564829D01*
X177468356Y-138574003D01*
X177442020Y-138584912D01*
X177442647Y-138586425D01*
X177431184Y-138591173D01*
X177362238Y-138637241D01*
X177316177Y-138706176D01*
X177316175Y-138706180D01*
X177300000Y-138787500D01*
X177300000Y-138787501D01*
X177288713Y-138844240D01*
X177269901Y-138889656D01*
X177251686Y-138916918D01*
X177216918Y-138951686D01*
X177189656Y-138969901D01*
X177144241Y-138988712D01*
X177099673Y-138997578D01*
X177075089Y-139000000D01*
X174084917Y-139000000D01*
X174065208Y-138998449D01*
X174045425Y-138995316D01*
X173971103Y-138983544D01*
X173933611Y-138971362D01*
X173857664Y-138932665D01*
X173825772Y-138909493D01*
X173765506Y-138849227D01*
X173742334Y-138817335D01*
X173703637Y-138741388D01*
X173691455Y-138703895D01*
X173676551Y-138609792D01*
X173675000Y-138590082D01*
X173675000Y-138061200D01*
X173676520Y-138041691D01*
X173680466Y-138016507D01*
X173691124Y-137948511D01*
X173703059Y-137911370D01*
X173741010Y-137835993D01*
X173763733Y-137804288D01*
X173829907Y-137737043D01*
X173844656Y-137724220D01*
X175010796Y-136859667D01*
X175027810Y-136849043D01*
X175113674Y-136804508D01*
X175151670Y-136791959D01*
X175211438Y-136782345D01*
X175247164Y-136776599D01*
X175267174Y-136775000D01*
X179558998Y-136775000D01*
X179559000Y-136775000D01*
X179959000Y-136775000D01*
X179959000Y-139434000D01*
G37*
%TD.AperFunction*%
%TD*%
%TA.AperFunction,Conductor*%
%TO.N,Net-(U3-SW)*%
G36*
X173040287Y-122604673D02*
G01*
X173064438Y-122607029D01*
X173178866Y-122629480D01*
X173223620Y-122647704D01*
X173321180Y-122711575D01*
X173340102Y-122726756D01*
X173606493Y-122986431D01*
X173734991Y-123070521D01*
X173734994Y-123070521D01*
X173746297Y-123075119D01*
X173746093Y-123075619D01*
X173777630Y-123088622D01*
X173777667Y-123088563D01*
X173778039Y-123088790D01*
X173778415Y-123088946D01*
X173779773Y-123089854D01*
X173779780Y-123089858D01*
X173797510Y-123100723D01*
X173797519Y-123100727D01*
X173797532Y-123100735D01*
X173873435Y-123139410D01*
X173873448Y-123139415D01*
X173873457Y-123139420D01*
X173892666Y-123147377D01*
X173892668Y-123147377D01*
X173892669Y-123147378D01*
X173930141Y-123159554D01*
X173930153Y-123159557D01*
X173930158Y-123159559D01*
X173930162Y-123159560D01*
X173932537Y-123160230D01*
X173932510Y-123160324D01*
X173932513Y-123160325D01*
X173932491Y-123160390D01*
X173932486Y-123160408D01*
X173942429Y-123163983D01*
X173942449Y-123163921D01*
X173951792Y-123166808D01*
X173951794Y-123166808D01*
X173951796Y-123166809D01*
X174025173Y-123177500D01*
X174025182Y-123177499D01*
X174025183Y-123177500D01*
X174029737Y-123177831D01*
X174029722Y-123178025D01*
X174042825Y-123179055D01*
X174044482Y-123179318D01*
X174054813Y-123180541D01*
X174074522Y-123182092D01*
X174083225Y-123182433D01*
X174084914Y-123182500D01*
X174084917Y-123182500D01*
X175956248Y-123182500D01*
X175980829Y-123184921D01*
X176003408Y-123189412D01*
X176044071Y-123197500D01*
X176615928Y-123197499D01*
X176658426Y-123189046D01*
X176679171Y-123184921D01*
X176703750Y-123182500D01*
X176755070Y-123182500D01*
X176823191Y-123202502D01*
X176869684Y-123256158D01*
X176878649Y-123283919D01*
X176884580Y-123313736D01*
X176887001Y-123338317D01*
X176887001Y-123468686D01*
X176884579Y-123493270D01*
X176878894Y-123521847D01*
X176860078Y-123567269D01*
X176851880Y-123579537D01*
X176797401Y-123625063D01*
X176726958Y-123633908D01*
X176689541Y-123619185D01*
X176689379Y-123619578D01*
X176677914Y-123614829D01*
X176615931Y-123602500D01*
X176044075Y-123602500D01*
X176044070Y-123602501D01*
X175982086Y-123614829D01*
X175911795Y-123661795D01*
X175864830Y-123732084D01*
X175864776Y-123732216D01*
X175864581Y-123732457D01*
X175857934Y-123742406D01*
X175857043Y-123741811D01*
X175820228Y-123787498D01*
X175752865Y-123809920D01*
X175748366Y-123810000D01*
X174022475Y-123810000D01*
X173915253Y-123824641D01*
X173915244Y-123824644D01*
X173815861Y-123867497D01*
X173780569Y-123895950D01*
X173731603Y-123935429D01*
X173428573Y-124256460D01*
X173085272Y-124620154D01*
X173072729Y-124631754D01*
X173008533Y-124683511D01*
X172979340Y-124701123D01*
X172911550Y-124730354D01*
X172878707Y-124739493D01*
X172814355Y-124748280D01*
X172797003Y-124750650D01*
X172779958Y-124751809D01*
X169746917Y-124751809D01*
X169727208Y-124750258D01*
X169707425Y-124747125D01*
X169633103Y-124735353D01*
X169595611Y-124723171D01*
X169519664Y-124684474D01*
X169487772Y-124661302D01*
X169427506Y-124601036D01*
X169404334Y-124569144D01*
X169365637Y-124493197D01*
X169353455Y-124455704D01*
X169338551Y-124361601D01*
X169337000Y-124341891D01*
X169337000Y-123012039D01*
X169338553Y-122992318D01*
X169353472Y-122898172D01*
X169365664Y-122860667D01*
X169404399Y-122784688D01*
X169427586Y-122752794D01*
X169487914Y-122692513D01*
X169519826Y-122669350D01*
X169595842Y-122630670D01*
X169633346Y-122618511D01*
X169727515Y-122603663D01*
X169747217Y-122602126D01*
X173040287Y-122604673D01*
G37*
%TD.AperFunction*%
%TD*%
%TA.AperFunction,Conductor*%
%TO.N,GND*%
G36*
X180453801Y-100475730D02*
G01*
X180482017Y-100477436D01*
X180740671Y-100493082D01*
X180755753Y-100494913D01*
X181034700Y-100546032D01*
X181049446Y-100549666D01*
X181320206Y-100634038D01*
X181334418Y-100639429D01*
X181488976Y-100708990D01*
X181593002Y-100755809D01*
X181606474Y-100762879D01*
X181641985Y-100784346D01*
X181849161Y-100909587D01*
X181861668Y-100918220D01*
X182084426Y-101092740D01*
X182084902Y-101093113D01*
X182096290Y-101103203D01*
X182296796Y-101303709D01*
X182306886Y-101315097D01*
X182481552Y-101538042D01*
X182481773Y-101538323D01*
X182490417Y-101550846D01*
X182637120Y-101793525D01*
X182644190Y-101806997D01*
X182760568Y-102065576D01*
X182765964Y-102079802D01*
X182850329Y-102350537D01*
X182853970Y-102365311D01*
X182905084Y-102644235D01*
X182906918Y-102659339D01*
X182924270Y-102946197D01*
X182924500Y-102953805D01*
X182924500Y-105178066D01*
X182904498Y-105246187D01*
X182850842Y-105292680D01*
X182780568Y-105302784D01*
X182720848Y-105277294D01*
X182446375Y-105062500D01*
X182086089Y-104780551D01*
X182074754Y-104764713D01*
X181938318Y-104690526D01*
X181938309Y-104690522D01*
X181918206Y-104681664D01*
X181912604Y-104679732D01*
X181878833Y-104668090D01*
X181878828Y-104668088D01*
X181878826Y-104668088D01*
X181878816Y-104668085D01*
X181857540Y-104662676D01*
X181758325Y-104646053D01*
X181747403Y-104644686D01*
X181730683Y-104643296D01*
X181726588Y-104642956D01*
X181726584Y-104642955D01*
X181726574Y-104642955D01*
X181715619Y-104642500D01*
X181715609Y-104642500D01*
X180369917Y-104642500D01*
X180366454Y-104642636D01*
X180359527Y-104642908D01*
X180339805Y-104644459D01*
X180329475Y-104645680D01*
X180235373Y-104660586D01*
X180215144Y-104665443D01*
X180177682Y-104677615D01*
X180158454Y-104685580D01*
X180082497Y-104724283D01*
X180064783Y-104735138D01*
X180064769Y-104735148D01*
X180032686Y-104758458D01*
X179965818Y-104782317D01*
X179896667Y-104766236D01*
X179883428Y-104757623D01*
X179875121Y-104751444D01*
X179857653Y-104740456D01*
X179857648Y-104740453D01*
X179857643Y-104740450D01*
X179826845Y-104724278D01*
X179783009Y-104701259D01*
X179783002Y-104701256D01*
X179782995Y-104701252D01*
X179782983Y-104701247D01*
X179782977Y-104701244D01*
X179764114Y-104693138D01*
X179764111Y-104693137D01*
X179764107Y-104693135D01*
X179764101Y-104693133D01*
X179740081Y-104684954D01*
X179727201Y-104680569D01*
X179727188Y-104680565D01*
X179707304Y-104675478D01*
X179707259Y-104675468D01*
X179650856Y-104665621D01*
X179650847Y-104665618D01*
X179614475Y-104659268D01*
X179606765Y-104658228D01*
X179604277Y-104657893D01*
X179594911Y-104656998D01*
X179584813Y-104656033D01*
X179574542Y-104655454D01*
X178556136Y-104637587D01*
X178556084Y-104637586D01*
X178556010Y-104637585D01*
X178555897Y-104637583D01*
X178555240Y-104637572D01*
X178555081Y-104637570D01*
X178553654Y-104637551D01*
X178552233Y-104637532D01*
X178551783Y-104637527D01*
X178551385Y-104637523D01*
X178550623Y-104637517D01*
X178550568Y-104637517D01*
X178550154Y-104637514D01*
X178549912Y-104637512D01*
X178547630Y-104637503D01*
X178547465Y-104637503D01*
X178547286Y-104637502D01*
X178547262Y-104637502D01*
X178547197Y-104637502D01*
X178547014Y-104637501D01*
X178546847Y-104637500D01*
X178546442Y-104637500D01*
X175267174Y-104637500D01*
X175256626Y-104637920D01*
X175236591Y-104639521D01*
X175226127Y-104640779D01*
X175185388Y-104647331D01*
X175185346Y-104647339D01*
X175130633Y-104656140D01*
X175130621Y-104656142D01*
X175110120Y-104661141D01*
X175110118Y-104661142D01*
X175072129Y-104673688D01*
X175052665Y-104681888D01*
X174966805Y-104726422D01*
X174957634Y-104731652D01*
X174940600Y-104742288D01*
X174931881Y-104748228D01*
X173765756Y-105612770D01*
X173757728Y-105619221D01*
X173742966Y-105632055D01*
X173735462Y-105639109D01*
X173669291Y-105706352D01*
X173656037Y-105722099D01*
X173656033Y-105722105D01*
X173633310Y-105753810D01*
X173622664Y-105771408D01*
X173622658Y-105771417D01*
X173584715Y-105846779D01*
X173576912Y-105865831D01*
X173564981Y-105902960D01*
X173560221Y-105922996D01*
X173560220Y-105923002D01*
X173549453Y-105991689D01*
X173549454Y-105991690D01*
X173549447Y-105991735D01*
X173549425Y-105991871D01*
X173545620Y-106016156D01*
X173544418Y-106026412D01*
X173542899Y-106045904D01*
X173542500Y-106056197D01*
X173542500Y-106406868D01*
X173522498Y-106474989D01*
X173468842Y-106521482D01*
X173398568Y-106531586D01*
X173346479Y-106511620D01*
X173309857Y-106487140D01*
X173309853Y-106487137D01*
X173286980Y-106474903D01*
X173286971Y-106474898D01*
X173241610Y-106456088D01*
X173241589Y-106456081D01*
X173216790Y-106448545D01*
X173216778Y-106448542D01*
X173100574Y-106425357D01*
X173100566Y-106425355D01*
X173100562Y-106425355D01*
X173087730Y-106423444D01*
X173087687Y-106423438D01*
X173063190Y-106421010D01*
X173063123Y-106421005D01*
X173050231Y-106420362D01*
X173050202Y-106420361D01*
X172247177Y-106419740D01*
X172179072Y-106399685D01*
X172132621Y-106345994D01*
X172123696Y-106318319D01*
X172120103Y-106300255D01*
X172120102Y-106300254D01*
X172120102Y-106300252D01*
X172091922Y-106258078D01*
X172072550Y-106245134D01*
X172027024Y-106190657D01*
X172018178Y-106120214D01*
X172048820Y-106056170D01*
X172109222Y-106018860D01*
X172126097Y-106015451D01*
X172137705Y-106013923D01*
X172236952Y-105972813D01*
X172266022Y-105960773D01*
X172266022Y-105960772D01*
X172266026Y-105960771D01*
X172376218Y-105876218D01*
X172460771Y-105766026D01*
X172513923Y-105637705D01*
X172532052Y-105500000D01*
X172513923Y-105362295D01*
X172478715Y-105277294D01*
X172460773Y-105233977D01*
X172460771Y-105233974D01*
X172376218Y-105123782D01*
X172266026Y-105039229D01*
X172266025Y-105039228D01*
X172266022Y-105039226D01*
X172137705Y-104986077D01*
X172000000Y-104967948D01*
X171862294Y-104986077D01*
X171733977Y-105039226D01*
X171683420Y-105078020D01*
X171623782Y-105123782D01*
X171566675Y-105198205D01*
X171509339Y-105240071D01*
X171466714Y-105247500D01*
X171353944Y-105247500D01*
X171285823Y-105227498D01*
X171249179Y-105191502D01*
X171212857Y-105137142D01*
X171124373Y-105078020D01*
X171046351Y-105062500D01*
X171046348Y-105062500D01*
X170713652Y-105062500D01*
X170713648Y-105062500D01*
X170635626Y-105078020D01*
X170547142Y-105137142D01*
X170504765Y-105200566D01*
X170450288Y-105246094D01*
X170379845Y-105254942D01*
X170315801Y-105224301D01*
X170295235Y-105200566D01*
X170252857Y-105137142D01*
X170164373Y-105078020D01*
X170086351Y-105062500D01*
X170086348Y-105062500D01*
X169753652Y-105062500D01*
X169753648Y-105062500D01*
X169675626Y-105078020D01*
X169587142Y-105137142D01*
X169528020Y-105225626D01*
X169512500Y-105303648D01*
X169512500Y-105696351D01*
X169528020Y-105774373D01*
X169550821Y-105808498D01*
X169587143Y-105862857D01*
X169611501Y-105879132D01*
X169657029Y-105933609D01*
X169667500Y-105983898D01*
X169667500Y-106096500D01*
X169647498Y-106164621D01*
X169593842Y-106211114D01*
X169541500Y-106222500D01*
X169487441Y-106222500D01*
X169450254Y-106229897D01*
X169450252Y-106229897D01*
X169450252Y-106229898D01*
X169408079Y-106258077D01*
X169408078Y-106258078D01*
X169379897Y-106300254D01*
X169372500Y-106337441D01*
X169372500Y-106530832D01*
X169352498Y-106598953D01*
X169342282Y-106612696D01*
X169333421Y-106623063D01*
X169310222Y-106654972D01*
X169299356Y-106672693D01*
X169260616Y-106748681D01*
X169260615Y-106748683D01*
X169252659Y-106767881D01*
X169240465Y-106805390D01*
X169240463Y-106805397D01*
X169235604Y-106825631D01*
X169235601Y-106825645D01*
X169220686Y-106919767D01*
X169219461Y-106930113D01*
X169217910Y-106949808D01*
X169217500Y-106960242D01*
X169217500Y-108290083D01*
X169217907Y-108300473D01*
X169219459Y-108320197D01*
X169220679Y-108330505D01*
X169235584Y-108424611D01*
X169235585Y-108424616D01*
X169240439Y-108444836D01*
X169240446Y-108444862D01*
X169252616Y-108482318D01*
X169252622Y-108482332D01*
X169260579Y-108501542D01*
X169299276Y-108577489D01*
X169310141Y-108595219D01*
X169310145Y-108595224D01*
X169310150Y-108595232D01*
X169333305Y-108627100D01*
X169333317Y-108627117D01*
X169346802Y-108642905D01*
X169346814Y-108642919D01*
X169346823Y-108642928D01*
X169346834Y-108642940D01*
X169407058Y-108703164D01*
X169407069Y-108703174D01*
X169407080Y-108703185D01*
X169407093Y-108703196D01*
X169422881Y-108716681D01*
X169422898Y-108716693D01*
X169447891Y-108734853D01*
X169454780Y-108739858D01*
X169472510Y-108750723D01*
X169472523Y-108750729D01*
X169472532Y-108750735D01*
X169548435Y-108789410D01*
X169548448Y-108789415D01*
X169548457Y-108789420D01*
X169567666Y-108797377D01*
X169605158Y-108809559D01*
X169618007Y-108812644D01*
X169625356Y-108814409D01*
X169625359Y-108814409D01*
X169625374Y-108814413D01*
X169699696Y-108826185D01*
X169699699Y-108826185D01*
X169704586Y-108826959D01*
X169704585Y-108826959D01*
X169704591Y-108826960D01*
X169714067Y-108828460D01*
X169719482Y-108829318D01*
X169729813Y-108830541D01*
X169749522Y-108832092D01*
X169758225Y-108832433D01*
X169759914Y-108832500D01*
X169759917Y-108832500D01*
X172792945Y-108832500D01*
X172792958Y-108832500D01*
X172801947Y-108832195D01*
X172818992Y-108831036D01*
X172819002Y-108831035D01*
X172819468Y-108830988D01*
X172819556Y-108830997D01*
X172821130Y-108830891D01*
X172821140Y-108831048D01*
X172825784Y-108830414D01*
X172825856Y-108830406D01*
X172827934Y-108830122D01*
X172845273Y-108827753D01*
X172845280Y-108827752D01*
X172845281Y-108827753D01*
X172909633Y-108818966D01*
X172927227Y-108815334D01*
X172960070Y-108806195D01*
X172960088Y-108806188D01*
X172960091Y-108806188D01*
X172967480Y-108803580D01*
X172977014Y-108800216D01*
X173044804Y-108770985D01*
X173060785Y-108762767D01*
X173089978Y-108745155D01*
X173104697Y-108734853D01*
X173168893Y-108683096D01*
X173175693Y-108677222D01*
X173188236Y-108665622D01*
X173194626Y-108659296D01*
X173537927Y-108295602D01*
X173828909Y-107987333D01*
X173841424Y-107975758D01*
X173876732Y-107947293D01*
X173884547Y-107940991D01*
X173913738Y-107923381D01*
X173948302Y-107908477D01*
X173981140Y-107899339D01*
X174023657Y-107893534D01*
X174036001Y-107891849D01*
X174053045Y-107890691D01*
X175749114Y-107890691D01*
X175749115Y-107890691D01*
X175751472Y-107890670D01*
X175755968Y-107890590D01*
X175795453Y-107883831D01*
X175862817Y-107861411D01*
X175862820Y-107861410D01*
X175924146Y-107818829D01*
X175956023Y-107779270D01*
X175962278Y-107772904D01*
X175962080Y-107772726D01*
X175968102Y-107766021D01*
X175968102Y-107766019D01*
X175968105Y-107766018D01*
X175971788Y-107760505D01*
X175978441Y-107751451D01*
X175992511Y-107733992D01*
X175995025Y-107736018D01*
X176026100Y-107702640D01*
X176090397Y-107685000D01*
X176590472Y-107685000D01*
X176615032Y-107687417D01*
X176616402Y-107687689D01*
X176618825Y-107688171D01*
X176639953Y-107694330D01*
X176668546Y-107705458D01*
X176738080Y-107719793D01*
X176812487Y-107713656D01*
X176878733Y-107688122D01*
X176911634Y-107669688D01*
X176913986Y-107667887D01*
X176930092Y-107653312D01*
X176958254Y-107623274D01*
X176971763Y-107606262D01*
X176971771Y-107606249D01*
X176971776Y-107606244D01*
X176983244Y-107589080D01*
X176983245Y-107589077D01*
X176983251Y-107589069D01*
X176995495Y-107566162D01*
X177014308Y-107520744D01*
X177021847Y-107495890D01*
X177027532Y-107467313D01*
X177029441Y-107454452D01*
X177031863Y-107429868D01*
X177032501Y-107416877D01*
X177032501Y-107287437D01*
X177032501Y-107287426D01*
X177031861Y-107274440D01*
X177031860Y-107274439D01*
X177031860Y-107274420D01*
X177030180Y-107257404D01*
X177043390Y-107187649D01*
X177092217Y-107136108D01*
X177130983Y-107121446D01*
X177170093Y-107113666D01*
X177190900Y-107107353D01*
X177261891Y-107106716D01*
X177321960Y-107144562D01*
X177352031Y-107208875D01*
X177352874Y-107240269D01*
X177352500Y-107244068D01*
X177352500Y-107455926D01*
X177364829Y-107517913D01*
X177372905Y-107530001D01*
X177394118Y-107597754D01*
X177375333Y-107666221D01*
X177372905Y-107669999D01*
X177364829Y-107682085D01*
X177352500Y-107744066D01*
X177352500Y-107955926D01*
X177364829Y-108017913D01*
X177411795Y-108088204D01*
X177458762Y-108119585D01*
X177482087Y-108135171D01*
X177544071Y-108147500D01*
X178115928Y-108147499D01*
X178177913Y-108135171D01*
X178195029Y-108123734D01*
X178262779Y-108102520D01*
X178265029Y-108102500D01*
X178366714Y-108102500D01*
X178434835Y-108122502D01*
X178466674Y-108151793D01*
X178523782Y-108226218D01*
X178630208Y-108307881D01*
X178633977Y-108310773D01*
X178681616Y-108330505D01*
X178762295Y-108363923D01*
X178900000Y-108382052D01*
X179037705Y-108363923D01*
X179166026Y-108310771D01*
X179169792Y-108307880D01*
X179236011Y-108282276D01*
X179305560Y-108296538D01*
X179356359Y-108346136D01*
X179372501Y-108407839D01*
X179372501Y-110468220D01*
X179352499Y-110536341D01*
X179335600Y-110557310D01*
X179020641Y-110872270D01*
X178727045Y-111165866D01*
X178664733Y-111199891D01*
X178593917Y-111194826D01*
X178567948Y-111181535D01*
X178487424Y-111127730D01*
X178410859Y-111112500D01*
X178410856Y-111112500D01*
X178241779Y-111112500D01*
X178173658Y-111092498D01*
X178152684Y-111075595D01*
X177684405Y-110607316D01*
X177650379Y-110545004D01*
X177647500Y-110518221D01*
X177647500Y-110329145D01*
X177647499Y-110329140D01*
X177632269Y-110252574D01*
X177574252Y-110165747D01*
X177487425Y-110107730D01*
X177410859Y-110092500D01*
X177410856Y-110092500D01*
X176989144Y-110092500D01*
X176989140Y-110092500D01*
X176912574Y-110107730D01*
X176825747Y-110165747D01*
X176767730Y-110252574D01*
X176752500Y-110329140D01*
X176752500Y-110650859D01*
X176767730Y-110727425D01*
X176825747Y-110814252D01*
X176859396Y-110836736D01*
X176904923Y-110891213D01*
X176913770Y-110961657D01*
X176883128Y-111025700D01*
X176822726Y-111063011D01*
X176789393Y-111067500D01*
X176657074Y-111067500D01*
X176588953Y-111047498D01*
X176567983Y-111030599D01*
X176493692Y-110956308D01*
X176486769Y-110949863D01*
X176486768Y-110949862D01*
X176481205Y-110944684D01*
X176471636Y-110938534D01*
X176453178Y-110933114D01*
X176436345Y-110926835D01*
X176418857Y-110918849D01*
X176418855Y-110918848D01*
X176409010Y-110917432D01*
X176409010Y-110917500D01*
X173007074Y-110917500D01*
X172938953Y-110897498D01*
X172917983Y-110880599D01*
X172093692Y-110056308D01*
X172086769Y-110049863D01*
X172086768Y-110049862D01*
X172081205Y-110044684D01*
X172071636Y-110038534D01*
X172053178Y-110033114D01*
X172036345Y-110026835D01*
X172018857Y-110018849D01*
X172018855Y-110018848D01*
X172009010Y-110017432D01*
X172009010Y-110017500D01*
X165549997Y-110017500D01*
X165494959Y-110029473D01*
X165494954Y-110029476D01*
X165480930Y-110041627D01*
X165468435Y-110051156D01*
X165458080Y-110058076D01*
X165449305Y-110066851D01*
X165449156Y-110066702D01*
X165439941Y-110077145D01*
X165438536Y-110078362D01*
X165436978Y-110080786D01*
X165433476Y-110088309D01*
X165434645Y-110088793D01*
X165429896Y-110100257D01*
X165426355Y-110118058D01*
X165423675Y-110128965D01*
X165417501Y-110149993D01*
X165417500Y-110150004D01*
X165417500Y-111949999D01*
X165419620Y-111959744D01*
X165422500Y-111986530D01*
X165422500Y-112162558D01*
X165429898Y-112199748D01*
X165458078Y-112241922D01*
X165500252Y-112270102D01*
X165537442Y-112277500D01*
X167546093Y-112277500D01*
X167555079Y-112277820D01*
X167578165Y-112279472D01*
X167578168Y-112279470D01*
X167581124Y-112278828D01*
X167588784Y-112276065D01*
X167588282Y-112274852D01*
X167599743Y-112270104D01*
X167599745Y-112270102D01*
X167599748Y-112270102D01*
X167614858Y-112260005D01*
X167624428Y-112254210D01*
X167643692Y-112243692D01*
X167767980Y-112119403D01*
X167830290Y-112085380D01*
X167857074Y-112082500D01*
X169246500Y-112082500D01*
X169314621Y-112102502D01*
X169361114Y-112156158D01*
X169372500Y-112208500D01*
X169372500Y-112362558D01*
X169379898Y-112399748D01*
X169408078Y-112441922D01*
X169450252Y-112470102D01*
X169487442Y-112477500D01*
X169487447Y-112477500D01*
X172012553Y-112477500D01*
X172012558Y-112477500D01*
X172049748Y-112470102D01*
X172091922Y-112441922D01*
X172120102Y-112399748D01*
X172127500Y-112362558D01*
X172127500Y-112208500D01*
X172147502Y-112140379D01*
X172201158Y-112093886D01*
X172253500Y-112082500D01*
X176400002Y-112082500D01*
X176406717Y-112081778D01*
X176406747Y-112082057D01*
X176420957Y-112081040D01*
X176428164Y-112079471D01*
X176428165Y-112079472D01*
X176428165Y-112079471D01*
X176435366Y-112077905D01*
X176454727Y-112070683D01*
X176455038Y-112070528D01*
X176455039Y-112070526D01*
X176455042Y-112070526D01*
X176462686Y-112063901D01*
X176484805Y-112048543D01*
X176493692Y-112043692D01*
X176567980Y-111969403D01*
X176630290Y-111935380D01*
X176657074Y-111932500D01*
X177549999Y-111932500D01*
X177550000Y-111932500D01*
X177605042Y-111920526D01*
X177661466Y-111871635D01*
X177661466Y-111871633D01*
X177675157Y-111859771D01*
X177676244Y-111861026D01*
X177711928Y-111830104D01*
X177782202Y-111819998D01*
X177834278Y-111839952D01*
X177912575Y-111892269D01*
X177912577Y-111892270D01*
X177989144Y-111907500D01*
X177989145Y-111907500D01*
X178410855Y-111907500D01*
X178410856Y-111907500D01*
X178487423Y-111892270D01*
X178487424Y-111892269D01*
X178487425Y-111892269D01*
X178534182Y-111861026D01*
X178574252Y-111834252D01*
X178604824Y-111788497D01*
X178659301Y-111742970D01*
X178709589Y-111732500D01*
X178820225Y-111732500D01*
X178913030Y-111694059D01*
X179611406Y-110995682D01*
X179673717Y-110961659D01*
X179744532Y-110966723D01*
X179801368Y-111009270D01*
X179826179Y-111075790D01*
X179826500Y-111084779D01*
X179826500Y-112516500D01*
X179806498Y-112584621D01*
X179752842Y-112631114D01*
X179700500Y-112642500D01*
X175267174Y-112642500D01*
X175256626Y-112642920D01*
X175236591Y-112644521D01*
X175226127Y-112645779D01*
X175185388Y-112652331D01*
X175185346Y-112652339D01*
X175130633Y-112661140D01*
X175130621Y-112661142D01*
X175110120Y-112666141D01*
X175110118Y-112666142D01*
X175072129Y-112678688D01*
X175052665Y-112686888D01*
X174966805Y-112731422D01*
X174957634Y-112736652D01*
X174940600Y-112747288D01*
X174931881Y-112753228D01*
X173765756Y-113617770D01*
X173757728Y-113624221D01*
X173742966Y-113637055D01*
X173735462Y-113644109D01*
X173669291Y-113711352D01*
X173656037Y-113727099D01*
X173656033Y-113727105D01*
X173633310Y-113758810D01*
X173622664Y-113776408D01*
X173622658Y-113776417D01*
X173584715Y-113851779D01*
X173576912Y-113870831D01*
X173564981Y-113907960D01*
X173560221Y-113927996D01*
X173560220Y-113928002D01*
X173549453Y-113996689D01*
X173549454Y-113996690D01*
X173549447Y-113996735D01*
X173549425Y-113996871D01*
X173545620Y-114021156D01*
X173544418Y-114031412D01*
X173542899Y-114050904D01*
X173542500Y-114061197D01*
X173542500Y-114410682D01*
X173522498Y-114478803D01*
X173468842Y-114525296D01*
X173398568Y-114535400D01*
X173346479Y-114515435D01*
X173327524Y-114502765D01*
X173306853Y-114488947D01*
X173306850Y-114488945D01*
X173306848Y-114488944D01*
X173283980Y-114476712D01*
X173283971Y-114476707D01*
X173238610Y-114457897D01*
X173238589Y-114457890D01*
X173213790Y-114450354D01*
X173213778Y-114450351D01*
X173097574Y-114427166D01*
X173097566Y-114427164D01*
X173097562Y-114427164D01*
X173084730Y-114425253D01*
X173084687Y-114425247D01*
X173060190Y-114422819D01*
X173060123Y-114422814D01*
X173047231Y-114422171D01*
X173047202Y-114422170D01*
X172247537Y-114421551D01*
X172179432Y-114401496D01*
X172132981Y-114347804D01*
X172124056Y-114320130D01*
X172120103Y-114300255D01*
X172120102Y-114300254D01*
X172120102Y-114300252D01*
X172091922Y-114258078D01*
X172072550Y-114245134D01*
X172027024Y-114190657D01*
X172018178Y-114120214D01*
X172048820Y-114056170D01*
X172109222Y-114018860D01*
X172126097Y-114015451D01*
X172137705Y-114013923D01*
X172236952Y-113972813D01*
X172266022Y-113960773D01*
X172266022Y-113960772D01*
X172266026Y-113960771D01*
X172376218Y-113876218D01*
X172460771Y-113766026D01*
X172513923Y-113637705D01*
X172532052Y-113500000D01*
X172513923Y-113362295D01*
X172489631Y-113303648D01*
X172460773Y-113233977D01*
X172460771Y-113233974D01*
X172376218Y-113123782D01*
X172266026Y-113039229D01*
X172266025Y-113039228D01*
X172266022Y-113039226D01*
X172137705Y-112986077D01*
X172000000Y-112967948D01*
X171862294Y-112986077D01*
X171733977Y-113039226D01*
X171683420Y-113078020D01*
X171623782Y-113123782D01*
X171566675Y-113198205D01*
X171509339Y-113240071D01*
X171466714Y-113247500D01*
X171353944Y-113247500D01*
X171285823Y-113227498D01*
X171249179Y-113191502D01*
X171212857Y-113137142D01*
X171124373Y-113078020D01*
X171046351Y-113062500D01*
X171046348Y-113062500D01*
X170713652Y-113062500D01*
X170713648Y-113062500D01*
X170635626Y-113078020D01*
X170547142Y-113137142D01*
X170504765Y-113200566D01*
X170450288Y-113246094D01*
X170379845Y-113254942D01*
X170315801Y-113224301D01*
X170295235Y-113200566D01*
X170252857Y-113137142D01*
X170164373Y-113078020D01*
X170086351Y-113062500D01*
X170086348Y-113062500D01*
X169753652Y-113062500D01*
X169753648Y-113062500D01*
X169675626Y-113078020D01*
X169587142Y-113137142D01*
X169528020Y-113225626D01*
X169512500Y-113303648D01*
X169512500Y-113696351D01*
X169528020Y-113774373D01*
X169550821Y-113808498D01*
X169587143Y-113862857D01*
X169611501Y-113879132D01*
X169657029Y-113933609D01*
X169667500Y-113983898D01*
X169667500Y-114096500D01*
X169647498Y-114164621D01*
X169593842Y-114211114D01*
X169541500Y-114222500D01*
X169487441Y-114222500D01*
X169450254Y-114229897D01*
X169450252Y-114229897D01*
X169450252Y-114229898D01*
X169408079Y-114258077D01*
X169408078Y-114258078D01*
X169379897Y-114300254D01*
X169372500Y-114337441D01*
X169372500Y-114529130D01*
X169352498Y-114597251D01*
X169342285Y-114610992D01*
X169330414Y-114624881D01*
X169307222Y-114656781D01*
X169296356Y-114674502D01*
X169257616Y-114750490D01*
X169257615Y-114750492D01*
X169249659Y-114769690D01*
X169237465Y-114807199D01*
X169237463Y-114807206D01*
X169232604Y-114827440D01*
X169232601Y-114827454D01*
X169217686Y-114921576D01*
X169216461Y-114931922D01*
X169214910Y-114951617D01*
X169214500Y-114962051D01*
X169214500Y-116291892D01*
X169214907Y-116302282D01*
X169216459Y-116322006D01*
X169217679Y-116332314D01*
X169232584Y-116426420D01*
X169232585Y-116426425D01*
X169237439Y-116446645D01*
X169237446Y-116446671D01*
X169249616Y-116484127D01*
X169249622Y-116484141D01*
X169257579Y-116503351D01*
X169296276Y-116579298D01*
X169307141Y-116597028D01*
X169307145Y-116597033D01*
X169307150Y-116597041D01*
X169330305Y-116628909D01*
X169330317Y-116628926D01*
X169343802Y-116644714D01*
X169343814Y-116644728D01*
X169343823Y-116644737D01*
X169343834Y-116644749D01*
X169404058Y-116704973D01*
X169404069Y-116704983D01*
X169404080Y-116704994D01*
X169404093Y-116705005D01*
X169419881Y-116718490D01*
X169419898Y-116718502D01*
X169444891Y-116736662D01*
X169451780Y-116741667D01*
X169469510Y-116752532D01*
X169469523Y-116752538D01*
X169469532Y-116752544D01*
X169545435Y-116791219D01*
X169545448Y-116791224D01*
X169545457Y-116791229D01*
X169564666Y-116799186D01*
X169602158Y-116811368D01*
X169615007Y-116814453D01*
X169622356Y-116816218D01*
X169622359Y-116816218D01*
X169622374Y-116816222D01*
X169696696Y-116827994D01*
X169696699Y-116827994D01*
X169701586Y-116828768D01*
X169701585Y-116828768D01*
X169701591Y-116828769D01*
X169711067Y-116830269D01*
X169716482Y-116831127D01*
X169726813Y-116832350D01*
X169746522Y-116833901D01*
X169755225Y-116834242D01*
X169756914Y-116834309D01*
X169756917Y-116834309D01*
X172789945Y-116834309D01*
X172789958Y-116834309D01*
X172798947Y-116834004D01*
X172815992Y-116832845D01*
X172816002Y-116832844D01*
X172816468Y-116832797D01*
X172816556Y-116832806D01*
X172818130Y-116832700D01*
X172818140Y-116832857D01*
X172822784Y-116832223D01*
X172822856Y-116832215D01*
X172824934Y-116831931D01*
X172842273Y-116829562D01*
X172842280Y-116829561D01*
X172842281Y-116829562D01*
X172906633Y-116820775D01*
X172924227Y-116817143D01*
X172957070Y-116808004D01*
X172957088Y-116807997D01*
X172957091Y-116807997D01*
X172964480Y-116805389D01*
X172974014Y-116802025D01*
X173041804Y-116772794D01*
X173057785Y-116764576D01*
X173086978Y-116746964D01*
X173101697Y-116736662D01*
X173165893Y-116684905D01*
X173172693Y-116679031D01*
X173185236Y-116667431D01*
X173191626Y-116661105D01*
X173534927Y-116297411D01*
X173825909Y-115989142D01*
X173838424Y-115977567D01*
X173873732Y-115949102D01*
X173881547Y-115942800D01*
X173910738Y-115925190D01*
X173945302Y-115910286D01*
X173978140Y-115901148D01*
X174020657Y-115895343D01*
X174033001Y-115893658D01*
X174050045Y-115892500D01*
X175748365Y-115892500D01*
X175748366Y-115892500D01*
X175750722Y-115892479D01*
X175755221Y-115892399D01*
X175794711Y-115885639D01*
X175862074Y-115863217D01*
X175862075Y-115863216D01*
X175862081Y-115863211D01*
X175868079Y-115859507D01*
X175871330Y-115856789D01*
X175923400Y-115820635D01*
X175947182Y-115791120D01*
X175954922Y-115785746D01*
X175963098Y-115773510D01*
X175963099Y-115773507D01*
X175968103Y-115766016D01*
X175968107Y-115766014D01*
X175968352Y-115765646D01*
X175975003Y-115756595D01*
X175992968Y-115734302D01*
X175995298Y-115736179D01*
X176026535Y-115702634D01*
X176090822Y-115685000D01*
X176590476Y-115685000D01*
X176615045Y-115687418D01*
X176620725Y-115688548D01*
X176642273Y-115694874D01*
X176685366Y-115711829D01*
X176750393Y-115719996D01*
X176750393Y-115719995D01*
X176750394Y-115719996D01*
X176750397Y-115719996D01*
X176797355Y-115714096D01*
X176820836Y-115711147D01*
X176889289Y-115681349D01*
X176943766Y-115635821D01*
X176968968Y-115607764D01*
X176980252Y-115590876D01*
X176992496Y-115567969D01*
X177011308Y-115522552D01*
X177018847Y-115497699D01*
X177024532Y-115469122D01*
X177026441Y-115456261D01*
X177028863Y-115431677D01*
X177029501Y-115418686D01*
X177029501Y-115289246D01*
X177029501Y-115289235D01*
X177028861Y-115276249D01*
X177028860Y-115276248D01*
X177028860Y-115276229D01*
X177027547Y-115262928D01*
X177040758Y-115193172D01*
X177089585Y-115141632D01*
X177128349Y-115126970D01*
X177170093Y-115118666D01*
X177190392Y-115112507D01*
X177261383Y-115111870D01*
X177321451Y-115149715D01*
X177351523Y-115214028D01*
X177352165Y-115237881D01*
X177352500Y-115237881D01*
X177352500Y-115455926D01*
X177364829Y-115517913D01*
X177372905Y-115530001D01*
X177394118Y-115597754D01*
X177375333Y-115666221D01*
X177372905Y-115669999D01*
X177364829Y-115682085D01*
X177352500Y-115744066D01*
X177352500Y-115955926D01*
X177364829Y-116017913D01*
X177411795Y-116088204D01*
X177458762Y-116119585D01*
X177482087Y-116135171D01*
X177544071Y-116147500D01*
X178115928Y-116147499D01*
X178177913Y-116135171D01*
X178195029Y-116123734D01*
X178262779Y-116102520D01*
X178265029Y-116102500D01*
X178366714Y-116102500D01*
X178434835Y-116122502D01*
X178466674Y-116151793D01*
X178523782Y-116226218D01*
X178616562Y-116297410D01*
X178633977Y-116310773D01*
X178686017Y-116332328D01*
X178762295Y-116363923D01*
X178900000Y-116382052D01*
X179037705Y-116363923D01*
X179138929Y-116321995D01*
X179166022Y-116310773D01*
X179166022Y-116310772D01*
X179166026Y-116310771D01*
X179194797Y-116288694D01*
X179261015Y-116263094D01*
X179330564Y-116277358D01*
X179381361Y-116326959D01*
X179397500Y-116388657D01*
X179397500Y-118493221D01*
X179377498Y-118561342D01*
X179360599Y-118582311D01*
X179055411Y-118887500D01*
X178754802Y-119188109D01*
X178692490Y-119222134D01*
X178621674Y-119217069D01*
X178576608Y-119188104D01*
X178574251Y-119185747D01*
X178487425Y-119127730D01*
X178410859Y-119112500D01*
X178410856Y-119112500D01*
X178241779Y-119112500D01*
X178173658Y-119092498D01*
X178152684Y-119075595D01*
X177684405Y-118607316D01*
X177650379Y-118545004D01*
X177647500Y-118518221D01*
X177647500Y-118329145D01*
X177647499Y-118329140D01*
X177632269Y-118252574D01*
X177574252Y-118165747D01*
X177487425Y-118107730D01*
X177410859Y-118092500D01*
X177410856Y-118092500D01*
X176989144Y-118092500D01*
X176989140Y-118092500D01*
X176912574Y-118107730D01*
X176825747Y-118165747D01*
X176767730Y-118252574D01*
X176752500Y-118329140D01*
X176752500Y-118650859D01*
X176767730Y-118727425D01*
X176825747Y-118814252D01*
X176859396Y-118836736D01*
X176904923Y-118891213D01*
X176913770Y-118961657D01*
X176883128Y-119025700D01*
X176822726Y-119063011D01*
X176789393Y-119067500D01*
X176657074Y-119067500D01*
X176588953Y-119047498D01*
X176567983Y-119030599D01*
X176493692Y-118956308D01*
X176486769Y-118949863D01*
X176486768Y-118949862D01*
X176481205Y-118944684D01*
X176471636Y-118938534D01*
X176453178Y-118933114D01*
X176436345Y-118926835D01*
X176418857Y-118918849D01*
X176418855Y-118918848D01*
X176409010Y-118917432D01*
X176409010Y-118917500D01*
X173007074Y-118917500D01*
X172938953Y-118897498D01*
X172917983Y-118880599D01*
X172093692Y-118056308D01*
X172086769Y-118049863D01*
X172086768Y-118049862D01*
X172081205Y-118044684D01*
X172071636Y-118038534D01*
X172053178Y-118033114D01*
X172036345Y-118026835D01*
X172018857Y-118018849D01*
X172018855Y-118018848D01*
X172009010Y-118017432D01*
X172009010Y-118017500D01*
X165549997Y-118017500D01*
X165494959Y-118029473D01*
X165494954Y-118029476D01*
X165480930Y-118041627D01*
X165468435Y-118051156D01*
X165458080Y-118058076D01*
X165449305Y-118066851D01*
X165449156Y-118066702D01*
X165439941Y-118077145D01*
X165438536Y-118078362D01*
X165436978Y-118080786D01*
X165433476Y-118088309D01*
X165434645Y-118088793D01*
X165429896Y-118100257D01*
X165426355Y-118118058D01*
X165423675Y-118128965D01*
X165417501Y-118149993D01*
X165417500Y-118150004D01*
X165417500Y-119949999D01*
X165419620Y-119959744D01*
X165422500Y-119986530D01*
X165422500Y-120162558D01*
X165429898Y-120199748D01*
X165458078Y-120241922D01*
X165500252Y-120270102D01*
X165537442Y-120277500D01*
X167546093Y-120277500D01*
X167555079Y-120277820D01*
X167578165Y-120279472D01*
X167578168Y-120279470D01*
X167581124Y-120278828D01*
X167588784Y-120276065D01*
X167588282Y-120274852D01*
X167599743Y-120270104D01*
X167599745Y-120270102D01*
X167599748Y-120270102D01*
X167614858Y-120260005D01*
X167624428Y-120254210D01*
X167643692Y-120243692D01*
X167767980Y-120119403D01*
X167830290Y-120085380D01*
X167857074Y-120082500D01*
X169246500Y-120082500D01*
X169314621Y-120102502D01*
X169361114Y-120156158D01*
X169372500Y-120208500D01*
X169372500Y-120362558D01*
X169379898Y-120399748D01*
X169408078Y-120441922D01*
X169450252Y-120470102D01*
X169487442Y-120477500D01*
X169487447Y-120477500D01*
X172012553Y-120477500D01*
X172012558Y-120477500D01*
X172049748Y-120470102D01*
X172091922Y-120441922D01*
X172120102Y-120399748D01*
X172127500Y-120362558D01*
X172127500Y-120208500D01*
X172147502Y-120140379D01*
X172201158Y-120093886D01*
X172253500Y-120082500D01*
X176400002Y-120082500D01*
X176406717Y-120081778D01*
X176406747Y-120082057D01*
X176420957Y-120081040D01*
X176428164Y-120079471D01*
X176428165Y-120079472D01*
X176428165Y-120079471D01*
X176435366Y-120077905D01*
X176454727Y-120070683D01*
X176455038Y-120070528D01*
X176455039Y-120070526D01*
X176455042Y-120070526D01*
X176462686Y-120063901D01*
X176484805Y-120048543D01*
X176493692Y-120043692D01*
X176567980Y-119969403D01*
X176630290Y-119935380D01*
X176657074Y-119932500D01*
X177549999Y-119932500D01*
X177550000Y-119932500D01*
X177605042Y-119920526D01*
X177661466Y-119871635D01*
X177661466Y-119871633D01*
X177675157Y-119859771D01*
X177676244Y-119861026D01*
X177711928Y-119830104D01*
X177782202Y-119819998D01*
X177834278Y-119839952D01*
X177912575Y-119892269D01*
X177912577Y-119892270D01*
X177989144Y-119907500D01*
X177989145Y-119907500D01*
X178410855Y-119907500D01*
X178410856Y-119907500D01*
X178487423Y-119892270D01*
X178487424Y-119892269D01*
X178487425Y-119892269D01*
X178534182Y-119861026D01*
X178574252Y-119834252D01*
X178604824Y-119788497D01*
X178659301Y-119742970D01*
X178709589Y-119732500D01*
X178870225Y-119732500D01*
X178963030Y-119694059D01*
X179611406Y-119045682D01*
X179673717Y-119011659D01*
X179744532Y-119016723D01*
X179801368Y-119059270D01*
X179826179Y-119125790D01*
X179826500Y-119134779D01*
X179826500Y-120601383D01*
X179806498Y-120669504D01*
X179752842Y-120715997D01*
X179682568Y-120726101D01*
X179678829Y-120725505D01*
X179650855Y-120720621D01*
X179650845Y-120720617D01*
X179614475Y-120714268D01*
X179606765Y-120713228D01*
X179604277Y-120712893D01*
X179594911Y-120711998D01*
X179584813Y-120711033D01*
X179574542Y-120710454D01*
X178556136Y-120692587D01*
X178556084Y-120692586D01*
X178556010Y-120692585D01*
X178555897Y-120692583D01*
X178555240Y-120692572D01*
X178555081Y-120692570D01*
X178553654Y-120692551D01*
X178552233Y-120692532D01*
X178551783Y-120692527D01*
X178551385Y-120692523D01*
X178550623Y-120692517D01*
X178550568Y-120692517D01*
X178550154Y-120692514D01*
X178549912Y-120692512D01*
X178547630Y-120692503D01*
X178547465Y-120692503D01*
X178547286Y-120692502D01*
X178547262Y-120692502D01*
X178547197Y-120692502D01*
X178547014Y-120692501D01*
X178546847Y-120692500D01*
X178546442Y-120692500D01*
X175267174Y-120692500D01*
X175256626Y-120692920D01*
X175236591Y-120694521D01*
X175226127Y-120695779D01*
X175185388Y-120702331D01*
X175185346Y-120702339D01*
X175130633Y-120711140D01*
X175130621Y-120711142D01*
X175110120Y-120716141D01*
X175110118Y-120716142D01*
X175072129Y-120728688D01*
X175052665Y-120736888D01*
X174966805Y-120781422D01*
X174957634Y-120786652D01*
X174940600Y-120797288D01*
X174931881Y-120803228D01*
X173765756Y-121667770D01*
X173757728Y-121674221D01*
X173742966Y-121687055D01*
X173735462Y-121694109D01*
X173669291Y-121761352D01*
X173656037Y-121777099D01*
X173656033Y-121777105D01*
X173633310Y-121808810D01*
X173622664Y-121826408D01*
X173622658Y-121826417D01*
X173584715Y-121901779D01*
X173576912Y-121920831D01*
X173564981Y-121957960D01*
X173564978Y-121957969D01*
X173564977Y-121957975D01*
X173562109Y-121970046D01*
X173560221Y-121977996D01*
X173560220Y-121978002D01*
X173549453Y-122046689D01*
X173549454Y-122046690D01*
X173549447Y-122046735D01*
X173549425Y-122046871D01*
X173545620Y-122071156D01*
X173544418Y-122081412D01*
X173542899Y-122100904D01*
X173542500Y-122111197D01*
X173542500Y-122465008D01*
X173522498Y-122533129D01*
X173468842Y-122579622D01*
X173398568Y-122589726D01*
X173347485Y-122570426D01*
X173296206Y-122536854D01*
X173296189Y-122536844D01*
X173273585Y-122524985D01*
X173228840Y-122506765D01*
X173228826Y-122506760D01*
X173204389Y-122499462D01*
X173204380Y-122499460D01*
X173204376Y-122499459D01*
X173089948Y-122477008D01*
X173089928Y-122477005D01*
X173077324Y-122475157D01*
X173077307Y-122475155D01*
X173077303Y-122475155D01*
X173061202Y-122473584D01*
X173053154Y-122472799D01*
X173049961Y-122472642D01*
X173040389Y-122472173D01*
X173040382Y-122472172D01*
X173040366Y-122472172D01*
X172247539Y-122471558D01*
X172179434Y-122451503D01*
X172132983Y-122397811D01*
X172124058Y-122370139D01*
X172120102Y-122350254D01*
X172120102Y-122350252D01*
X172085535Y-122298520D01*
X172064320Y-122230768D01*
X172083103Y-122162301D01*
X172135920Y-122114857D01*
X172142064Y-122112117D01*
X172220111Y-122079789D01*
X172266022Y-122060773D01*
X172266022Y-122060772D01*
X172266026Y-122060771D01*
X172376218Y-121976218D01*
X172460771Y-121866026D01*
X172513923Y-121737705D01*
X172532052Y-121600000D01*
X172513923Y-121462295D01*
X172489631Y-121403648D01*
X172460773Y-121333977D01*
X172460771Y-121333974D01*
X172376218Y-121223782D01*
X172266026Y-121139229D01*
X172266025Y-121139228D01*
X172266022Y-121139226D01*
X172137705Y-121086077D01*
X172000000Y-121067948D01*
X171862294Y-121086077D01*
X171733977Y-121139226D01*
X171683420Y-121178020D01*
X171623782Y-121223782D01*
X171566675Y-121298205D01*
X171509339Y-121340071D01*
X171466714Y-121347500D01*
X171353944Y-121347500D01*
X171285823Y-121327498D01*
X171249179Y-121291502D01*
X171212857Y-121237142D01*
X171124373Y-121178020D01*
X171046351Y-121162500D01*
X171046348Y-121162500D01*
X170713652Y-121162500D01*
X170713648Y-121162500D01*
X170635626Y-121178020D01*
X170547142Y-121237142D01*
X170504765Y-121300566D01*
X170450288Y-121346094D01*
X170379845Y-121354942D01*
X170315801Y-121324301D01*
X170295235Y-121300566D01*
X170252857Y-121237142D01*
X170164373Y-121178020D01*
X170086351Y-121162500D01*
X170086348Y-121162500D01*
X169753652Y-121162500D01*
X169753648Y-121162500D01*
X169675626Y-121178020D01*
X169587142Y-121237142D01*
X169528020Y-121325626D01*
X169512500Y-121403648D01*
X169512500Y-121796351D01*
X169528020Y-121874373D01*
X169550821Y-121908498D01*
X169587143Y-121962857D01*
X169611501Y-121979132D01*
X169657029Y-122033609D01*
X169667500Y-122083898D01*
X169667500Y-122146500D01*
X169647498Y-122214621D01*
X169593842Y-122261114D01*
X169541500Y-122272500D01*
X169487441Y-122272500D01*
X169450254Y-122279897D01*
X169450252Y-122279897D01*
X169450252Y-122279898D01*
X169408078Y-122308078D01*
X169379897Y-122350254D01*
X169372500Y-122387441D01*
X169372500Y-122568307D01*
X169352498Y-122636428D01*
X169335569Y-122657429D01*
X169333939Y-122659057D01*
X169333928Y-122659069D01*
X169320415Y-122674879D01*
X169297222Y-122706781D01*
X169286356Y-122724502D01*
X169247616Y-122800490D01*
X169247615Y-122800492D01*
X169239659Y-122819690D01*
X169227465Y-122857199D01*
X169227463Y-122857206D01*
X169222604Y-122877440D01*
X169222601Y-122877454D01*
X169207686Y-122971576D01*
X169206461Y-122981922D01*
X169204910Y-123001617D01*
X169204500Y-123012051D01*
X169204500Y-124341892D01*
X169204907Y-124352282D01*
X169206459Y-124372006D01*
X169207679Y-124382314D01*
X169222584Y-124476420D01*
X169222585Y-124476425D01*
X169227439Y-124496645D01*
X169227446Y-124496671D01*
X169239616Y-124534127D01*
X169239622Y-124534141D01*
X169247579Y-124553351D01*
X169286276Y-124629298D01*
X169297141Y-124647028D01*
X169297145Y-124647033D01*
X169297150Y-124647041D01*
X169320305Y-124678909D01*
X169320317Y-124678926D01*
X169333802Y-124694714D01*
X169333814Y-124694728D01*
X169333823Y-124694737D01*
X169333834Y-124694749D01*
X169394058Y-124754973D01*
X169394069Y-124754983D01*
X169394080Y-124754994D01*
X169394093Y-124755005D01*
X169409881Y-124768490D01*
X169409898Y-124768502D01*
X169434891Y-124786662D01*
X169441780Y-124791667D01*
X169459510Y-124802532D01*
X169459523Y-124802538D01*
X169459532Y-124802544D01*
X169535435Y-124841219D01*
X169535448Y-124841224D01*
X169535457Y-124841229D01*
X169554666Y-124849186D01*
X169592158Y-124861368D01*
X169605007Y-124864453D01*
X169612356Y-124866218D01*
X169612359Y-124866218D01*
X169612374Y-124866222D01*
X169686696Y-124877994D01*
X169686699Y-124877994D01*
X169691586Y-124878768D01*
X169691585Y-124878768D01*
X169691591Y-124878769D01*
X169701067Y-124880269D01*
X169706482Y-124881127D01*
X169716813Y-124882350D01*
X169736522Y-124883901D01*
X169745225Y-124884242D01*
X169746914Y-124884309D01*
X169746917Y-124884309D01*
X172779945Y-124884309D01*
X172779958Y-124884309D01*
X172788947Y-124884004D01*
X172805992Y-124882845D01*
X172806002Y-124882844D01*
X172806468Y-124882797D01*
X172806556Y-124882806D01*
X172808130Y-124882700D01*
X172808140Y-124882857D01*
X172812784Y-124882223D01*
X172812856Y-124882215D01*
X172814934Y-124881931D01*
X172832273Y-124879562D01*
X172832280Y-124879561D01*
X172832281Y-124879562D01*
X172896633Y-124870775D01*
X172914227Y-124867143D01*
X172947070Y-124858004D01*
X172947088Y-124857997D01*
X172947091Y-124857997D01*
X172954480Y-124855389D01*
X172964014Y-124852025D01*
X173031804Y-124822794D01*
X173047785Y-124814576D01*
X173076978Y-124796964D01*
X173091697Y-124786662D01*
X173155893Y-124734905D01*
X173162693Y-124729031D01*
X173175236Y-124717431D01*
X173181626Y-124711105D01*
X173524927Y-124347411D01*
X173815909Y-124039142D01*
X173828424Y-124027567D01*
X173863732Y-123999102D01*
X173871547Y-123992800D01*
X173900738Y-123975190D01*
X173935302Y-123960286D01*
X173968140Y-123951148D01*
X174010657Y-123945343D01*
X174023001Y-123943658D01*
X174040045Y-123942500D01*
X175748365Y-123942500D01*
X175748366Y-123942500D01*
X175750722Y-123942479D01*
X175755221Y-123942399D01*
X175794711Y-123935639D01*
X175862074Y-123913217D01*
X175862075Y-123913216D01*
X175862081Y-123913211D01*
X175868079Y-123909507D01*
X175871330Y-123906789D01*
X175923400Y-123870635D01*
X175947182Y-123841120D01*
X175954922Y-123835746D01*
X175963098Y-123823510D01*
X175963099Y-123823507D01*
X175968103Y-123816016D01*
X175968107Y-123816014D01*
X175968352Y-123815646D01*
X175975003Y-123806595D01*
X175992968Y-123784302D01*
X175995298Y-123786179D01*
X176026535Y-123752634D01*
X176090822Y-123735000D01*
X176590474Y-123735000D01*
X176615045Y-123737419D01*
X176630502Y-123740493D01*
X176652049Y-123746820D01*
X176678442Y-123757206D01*
X176735294Y-123764349D01*
X176743464Y-123765376D01*
X176743465Y-123765376D01*
X176806087Y-123757512D01*
X176810525Y-123757235D01*
X176813903Y-123756531D01*
X176813908Y-123756531D01*
X176813909Y-123756531D01*
X176850762Y-123740491D01*
X176882361Y-123726738D01*
X176882361Y-123726737D01*
X176882365Y-123726736D01*
X176936844Y-123681210D01*
X176936847Y-123681207D01*
X176936852Y-123681202D01*
X176962044Y-123653157D01*
X176962043Y-123653157D01*
X176962046Y-123653155D01*
X176970244Y-123640887D01*
X176982491Y-123617978D01*
X177001307Y-123572556D01*
X177008847Y-123547699D01*
X177014532Y-123519122D01*
X177016441Y-123506261D01*
X177018863Y-123481677D01*
X177019501Y-123468686D01*
X177019501Y-123338317D01*
X177018863Y-123325330D01*
X177017810Y-123314640D01*
X177031037Y-123244888D01*
X177079876Y-123193359D01*
X177124010Y-123177903D01*
X177123992Y-123177798D01*
X177124623Y-123177688D01*
X177124736Y-123177649D01*
X177125525Y-123177532D01*
X177170093Y-123168666D01*
X177190392Y-123162507D01*
X177261383Y-123161870D01*
X177321451Y-123199715D01*
X177351523Y-123264028D01*
X177352165Y-123287881D01*
X177352500Y-123287881D01*
X177352500Y-123505926D01*
X177364829Y-123567913D01*
X177372905Y-123580001D01*
X177394118Y-123647754D01*
X177375333Y-123716221D01*
X177372905Y-123719999D01*
X177364829Y-123732085D01*
X177352500Y-123794066D01*
X177352500Y-124005926D01*
X177364829Y-124067913D01*
X177411795Y-124138204D01*
X177458762Y-124169585D01*
X177482087Y-124185171D01*
X177544071Y-124197500D01*
X178115928Y-124197499D01*
X178177913Y-124185171D01*
X178195029Y-124173734D01*
X178262779Y-124152520D01*
X178265029Y-124152500D01*
X178366714Y-124152500D01*
X178434835Y-124172502D01*
X178466674Y-124201793D01*
X178523782Y-124276218D01*
X178633974Y-124360771D01*
X178633977Y-124360773D01*
X178686017Y-124382328D01*
X178762295Y-124413923D01*
X178900000Y-124432052D01*
X179037705Y-124413923D01*
X179138929Y-124371995D01*
X179166022Y-124360773D01*
X179166022Y-124360772D01*
X179166026Y-124360771D01*
X179169794Y-124357879D01*
X179236012Y-124332278D01*
X179305561Y-124346541D01*
X179356359Y-124396141D01*
X179372499Y-124457841D01*
X179372499Y-126541222D01*
X179352497Y-126609343D01*
X179335598Y-126630312D01*
X179035316Y-126930595D01*
X178740832Y-127225079D01*
X178678520Y-127259104D01*
X178607704Y-127254039D01*
X178581734Y-127240747D01*
X178487425Y-127177730D01*
X178410859Y-127162500D01*
X178410856Y-127162500D01*
X178241779Y-127162500D01*
X178173658Y-127142498D01*
X178152684Y-127125595D01*
X177684405Y-126657316D01*
X177650379Y-126595004D01*
X177647500Y-126568221D01*
X177647500Y-126379145D01*
X177647499Y-126379140D01*
X177632269Y-126302574D01*
X177574252Y-126215747D01*
X177487425Y-126157730D01*
X177410859Y-126142500D01*
X177410856Y-126142500D01*
X176989144Y-126142500D01*
X176989140Y-126142500D01*
X176912574Y-126157730D01*
X176825747Y-126215747D01*
X176767730Y-126302574D01*
X176752500Y-126379140D01*
X176752500Y-126700859D01*
X176767730Y-126777425D01*
X176825747Y-126864252D01*
X176859396Y-126886736D01*
X176904923Y-126941213D01*
X176913770Y-127011657D01*
X176883128Y-127075700D01*
X176822726Y-127113011D01*
X176789393Y-127117500D01*
X176657074Y-127117500D01*
X176588953Y-127097498D01*
X176567983Y-127080599D01*
X176493692Y-127006308D01*
X176486769Y-126999863D01*
X176486768Y-126999862D01*
X176481205Y-126994684D01*
X176471636Y-126988534D01*
X176453178Y-126983114D01*
X176436345Y-126976835D01*
X176418857Y-126968849D01*
X176418855Y-126968848D01*
X176409010Y-126967432D01*
X176409010Y-126967500D01*
X173007074Y-126967500D01*
X172938953Y-126947498D01*
X172917983Y-126930599D01*
X172093692Y-126106308D01*
X172086769Y-126099863D01*
X172086768Y-126099862D01*
X172081205Y-126094684D01*
X172071636Y-126088534D01*
X172053178Y-126083114D01*
X172036345Y-126076835D01*
X172018857Y-126068849D01*
X172018855Y-126068848D01*
X172009010Y-126067432D01*
X172009010Y-126067500D01*
X165549997Y-126067500D01*
X165494959Y-126079473D01*
X165494954Y-126079476D01*
X165480930Y-126091627D01*
X165468435Y-126101156D01*
X165458080Y-126108076D01*
X165449305Y-126116851D01*
X165449156Y-126116702D01*
X165439941Y-126127145D01*
X165438536Y-126128362D01*
X165436978Y-126130786D01*
X165433476Y-126138309D01*
X165434645Y-126138793D01*
X165429896Y-126150257D01*
X165426355Y-126168058D01*
X165423675Y-126178965D01*
X165417501Y-126199993D01*
X165417500Y-126200004D01*
X165417500Y-127999999D01*
X165419620Y-128009744D01*
X165422500Y-128036530D01*
X165422500Y-128212558D01*
X165429898Y-128249748D01*
X165458078Y-128291922D01*
X165500252Y-128320102D01*
X165537442Y-128327500D01*
X167546093Y-128327500D01*
X167555079Y-128327820D01*
X167578165Y-128329472D01*
X167578168Y-128329470D01*
X167581124Y-128328828D01*
X167588784Y-128326065D01*
X167588282Y-128324852D01*
X167599743Y-128320104D01*
X167599745Y-128320102D01*
X167599748Y-128320102D01*
X167614858Y-128310005D01*
X167624428Y-128304210D01*
X167643692Y-128293692D01*
X167767980Y-128169403D01*
X167830290Y-128135380D01*
X167857074Y-128132500D01*
X169246500Y-128132500D01*
X169314621Y-128152502D01*
X169361114Y-128206158D01*
X169372500Y-128258500D01*
X169372500Y-128412558D01*
X169379898Y-128449748D01*
X169408078Y-128491922D01*
X169450252Y-128520102D01*
X169487442Y-128527500D01*
X169487447Y-128527500D01*
X172012553Y-128527500D01*
X172012558Y-128527500D01*
X172049748Y-128520102D01*
X172091922Y-128491922D01*
X172120102Y-128449748D01*
X172127500Y-128412558D01*
X172127500Y-128258500D01*
X172147502Y-128190379D01*
X172201158Y-128143886D01*
X172253500Y-128132500D01*
X176400002Y-128132500D01*
X176406717Y-128131778D01*
X176406747Y-128132057D01*
X176420957Y-128131040D01*
X176428164Y-128129471D01*
X176428165Y-128129472D01*
X176428165Y-128129471D01*
X176435366Y-128127905D01*
X176454727Y-128120683D01*
X176455038Y-128120528D01*
X176455039Y-128120526D01*
X176455042Y-128120526D01*
X176462686Y-128113901D01*
X176484805Y-128098543D01*
X176493692Y-128093692D01*
X176567980Y-128019403D01*
X176630290Y-127985380D01*
X176657074Y-127982500D01*
X177549999Y-127982500D01*
X177550000Y-127982500D01*
X177605042Y-127970526D01*
X177661466Y-127921635D01*
X177661466Y-127921633D01*
X177675157Y-127909771D01*
X177676244Y-127911026D01*
X177711928Y-127880104D01*
X177782202Y-127869998D01*
X177834278Y-127889952D01*
X177912575Y-127942269D01*
X177912577Y-127942270D01*
X177989144Y-127957500D01*
X177989145Y-127957500D01*
X178410855Y-127957500D01*
X178410856Y-127957500D01*
X178487423Y-127942270D01*
X178487424Y-127942269D01*
X178487425Y-127942269D01*
X178565721Y-127889952D01*
X178574252Y-127884252D01*
X178606161Y-127836496D01*
X178660638Y-127790971D01*
X178710925Y-127780501D01*
X178845224Y-127780501D01*
X178938029Y-127742060D01*
X179611406Y-127068682D01*
X179673717Y-127034659D01*
X179744532Y-127039723D01*
X179801368Y-127082270D01*
X179826179Y-127148790D01*
X179826500Y-127157779D01*
X179826500Y-128566500D01*
X179806498Y-128634621D01*
X179752842Y-128681114D01*
X179700500Y-128692500D01*
X175267174Y-128692500D01*
X175256626Y-128692920D01*
X175236591Y-128694521D01*
X175226127Y-128695779D01*
X175185388Y-128702331D01*
X175185346Y-128702339D01*
X175130633Y-128711140D01*
X175130621Y-128711142D01*
X175110120Y-128716141D01*
X175110118Y-128716142D01*
X175072129Y-128728688D01*
X175052665Y-128736888D01*
X174966805Y-128781422D01*
X174957634Y-128786652D01*
X174940600Y-128797288D01*
X174931881Y-128803228D01*
X173765756Y-129667770D01*
X173757728Y-129674221D01*
X173742966Y-129687055D01*
X173735462Y-129694109D01*
X173669291Y-129761352D01*
X173656037Y-129777099D01*
X173656033Y-129777105D01*
X173633310Y-129808810D01*
X173622664Y-129826408D01*
X173622658Y-129826417D01*
X173584715Y-129901779D01*
X173576912Y-129920831D01*
X173564981Y-129957960D01*
X173564978Y-129957969D01*
X173564977Y-129957975D01*
X173562109Y-129970046D01*
X173560221Y-129977996D01*
X173560220Y-129978002D01*
X173549453Y-130046689D01*
X173549454Y-130046690D01*
X173549447Y-130046735D01*
X173549425Y-130046871D01*
X173545620Y-130071156D01*
X173544418Y-130081412D01*
X173542899Y-130100904D01*
X173542500Y-130111197D01*
X173542500Y-130460682D01*
X173522498Y-130528803D01*
X173468842Y-130575296D01*
X173398568Y-130585400D01*
X173346479Y-130565435D01*
X173327524Y-130552765D01*
X173306853Y-130538947D01*
X173306850Y-130538945D01*
X173306848Y-130538944D01*
X173283980Y-130526712D01*
X173283971Y-130526707D01*
X173238610Y-130507897D01*
X173238589Y-130507890D01*
X173213790Y-130500354D01*
X173213778Y-130500351D01*
X173097574Y-130477166D01*
X173097566Y-130477164D01*
X173097562Y-130477164D01*
X173084730Y-130475253D01*
X173084687Y-130475247D01*
X173060190Y-130472819D01*
X173060123Y-130472814D01*
X173047231Y-130472171D01*
X173047202Y-130472170D01*
X172247537Y-130471551D01*
X172179432Y-130451496D01*
X172132981Y-130397804D01*
X172124056Y-130370130D01*
X172120103Y-130350254D01*
X172120102Y-130350252D01*
X172085535Y-130298520D01*
X172064320Y-130230768D01*
X172083103Y-130162301D01*
X172135920Y-130114857D01*
X172142064Y-130112117D01*
X172220111Y-130079789D01*
X172266022Y-130060773D01*
X172266022Y-130060772D01*
X172266026Y-130060771D01*
X172376218Y-129976218D01*
X172460771Y-129866026D01*
X172513923Y-129737705D01*
X172532052Y-129600000D01*
X172513923Y-129462295D01*
X172489631Y-129403648D01*
X172460773Y-129333977D01*
X172460771Y-129333974D01*
X172376218Y-129223782D01*
X172266026Y-129139229D01*
X172266025Y-129139228D01*
X172266022Y-129139226D01*
X172137705Y-129086077D01*
X172000000Y-129067948D01*
X171862294Y-129086077D01*
X171733977Y-129139226D01*
X171683420Y-129178020D01*
X171623782Y-129223782D01*
X171566675Y-129298205D01*
X171509339Y-129340071D01*
X171466714Y-129347500D01*
X171353944Y-129347500D01*
X171285823Y-129327498D01*
X171249179Y-129291502D01*
X171212857Y-129237142D01*
X171124373Y-129178020D01*
X171046351Y-129162500D01*
X171046348Y-129162500D01*
X170713652Y-129162500D01*
X170713648Y-129162500D01*
X170635626Y-129178020D01*
X170547142Y-129237142D01*
X170504765Y-129300566D01*
X170450288Y-129346094D01*
X170379845Y-129354942D01*
X170315801Y-129324301D01*
X170295235Y-129300566D01*
X170252857Y-129237142D01*
X170164373Y-129178020D01*
X170086351Y-129162500D01*
X170086348Y-129162500D01*
X169753652Y-129162500D01*
X169753648Y-129162500D01*
X169675626Y-129178020D01*
X169587142Y-129237142D01*
X169528020Y-129325626D01*
X169512500Y-129403648D01*
X169512500Y-129796351D01*
X169528020Y-129874373D01*
X169550821Y-129908498D01*
X169587143Y-129962857D01*
X169611501Y-129979132D01*
X169657029Y-130033609D01*
X169667500Y-130083898D01*
X169667500Y-130146500D01*
X169647498Y-130214621D01*
X169593842Y-130261114D01*
X169541500Y-130272500D01*
X169487441Y-130272500D01*
X169450254Y-130279897D01*
X169450252Y-130279897D01*
X169450252Y-130279898D01*
X169408078Y-130308078D01*
X169379897Y-130350254D01*
X169372500Y-130387441D01*
X169372500Y-130579130D01*
X169352498Y-130647251D01*
X169342285Y-130660992D01*
X169330414Y-130674881D01*
X169307222Y-130706781D01*
X169296356Y-130724502D01*
X169257616Y-130800490D01*
X169257615Y-130800492D01*
X169249659Y-130819690D01*
X169237465Y-130857199D01*
X169237463Y-130857206D01*
X169232604Y-130877440D01*
X169232601Y-130877454D01*
X169217686Y-130971576D01*
X169216461Y-130981922D01*
X169214910Y-131001617D01*
X169214500Y-131012051D01*
X169214500Y-132341892D01*
X169214907Y-132352282D01*
X169216459Y-132372006D01*
X169217679Y-132382314D01*
X169232584Y-132476420D01*
X169232585Y-132476425D01*
X169237439Y-132496645D01*
X169237446Y-132496671D01*
X169249616Y-132534127D01*
X169249622Y-132534141D01*
X169257579Y-132553351D01*
X169296276Y-132629298D01*
X169307141Y-132647028D01*
X169307145Y-132647033D01*
X169307150Y-132647041D01*
X169330305Y-132678909D01*
X169330317Y-132678926D01*
X169343802Y-132694714D01*
X169343814Y-132694728D01*
X169343823Y-132694737D01*
X169343834Y-132694749D01*
X169404058Y-132754973D01*
X169404069Y-132754983D01*
X169404080Y-132754994D01*
X169404093Y-132755005D01*
X169419881Y-132768490D01*
X169419898Y-132768502D01*
X169444891Y-132786662D01*
X169451780Y-132791667D01*
X169469510Y-132802532D01*
X169469523Y-132802538D01*
X169469532Y-132802544D01*
X169545435Y-132841219D01*
X169545448Y-132841224D01*
X169545457Y-132841229D01*
X169564666Y-132849186D01*
X169602158Y-132861368D01*
X169615007Y-132864453D01*
X169622356Y-132866218D01*
X169622359Y-132866218D01*
X169622374Y-132866222D01*
X169696696Y-132877994D01*
X169696699Y-132877994D01*
X169701586Y-132878768D01*
X169701585Y-132878768D01*
X169701591Y-132878769D01*
X169711067Y-132880269D01*
X169716482Y-132881127D01*
X169726813Y-132882350D01*
X169746522Y-132883901D01*
X169755225Y-132884242D01*
X169756914Y-132884309D01*
X169756917Y-132884309D01*
X172789945Y-132884309D01*
X172789958Y-132884309D01*
X172798947Y-132884004D01*
X172815992Y-132882845D01*
X172816002Y-132882844D01*
X172816468Y-132882797D01*
X172816556Y-132882806D01*
X172818130Y-132882700D01*
X172818140Y-132882857D01*
X172822784Y-132882223D01*
X172822856Y-132882215D01*
X172824934Y-132881931D01*
X172842273Y-132879562D01*
X172842280Y-132879561D01*
X172842281Y-132879562D01*
X172906633Y-132870775D01*
X172924227Y-132867143D01*
X172957070Y-132858004D01*
X172957088Y-132857997D01*
X172957091Y-132857997D01*
X172964480Y-132855389D01*
X172974014Y-132852025D01*
X173041804Y-132822794D01*
X173057785Y-132814576D01*
X173086978Y-132796964D01*
X173101697Y-132786662D01*
X173165893Y-132734905D01*
X173172693Y-132729031D01*
X173185236Y-132717431D01*
X173191626Y-132711105D01*
X173534927Y-132347411D01*
X173825909Y-132039142D01*
X173838424Y-132027567D01*
X173873732Y-131999102D01*
X173881547Y-131992800D01*
X173910738Y-131975190D01*
X173945302Y-131960286D01*
X173978140Y-131951148D01*
X174020657Y-131945343D01*
X174033001Y-131943658D01*
X174050045Y-131942500D01*
X175748365Y-131942500D01*
X175748366Y-131942500D01*
X175750722Y-131942479D01*
X175755221Y-131942399D01*
X175794711Y-131935639D01*
X175862074Y-131913217D01*
X175862075Y-131913216D01*
X175862081Y-131913211D01*
X175868079Y-131909507D01*
X175871330Y-131906789D01*
X175923400Y-131870635D01*
X175947182Y-131841120D01*
X175954922Y-131835746D01*
X175963098Y-131823510D01*
X175963099Y-131823507D01*
X175968103Y-131816016D01*
X175968107Y-131816014D01*
X175968352Y-131815646D01*
X175975003Y-131806595D01*
X175992968Y-131784302D01*
X175995298Y-131786179D01*
X176026535Y-131752634D01*
X176090822Y-131735000D01*
X176590476Y-131735000D01*
X176615045Y-131737418D01*
X176620725Y-131738548D01*
X176642273Y-131744874D01*
X176685366Y-131761829D01*
X176750393Y-131769996D01*
X176750393Y-131769995D01*
X176750394Y-131769996D01*
X176750397Y-131769996D01*
X176797355Y-131764096D01*
X176820836Y-131761147D01*
X176889289Y-131731349D01*
X176943766Y-131685821D01*
X176968968Y-131657764D01*
X176980252Y-131640876D01*
X176992496Y-131617969D01*
X177011308Y-131572552D01*
X177018847Y-131547699D01*
X177024532Y-131519122D01*
X177026441Y-131506261D01*
X177028863Y-131481677D01*
X177029501Y-131468686D01*
X177029501Y-131339246D01*
X177029501Y-131339235D01*
X177028861Y-131326249D01*
X177028860Y-131326248D01*
X177028860Y-131326229D01*
X177027547Y-131312928D01*
X177040758Y-131243172D01*
X177089585Y-131191632D01*
X177128349Y-131176970D01*
X177170093Y-131168666D01*
X177190392Y-131162507D01*
X177261383Y-131161870D01*
X177321451Y-131199715D01*
X177351523Y-131264028D01*
X177352165Y-131287881D01*
X177352500Y-131287881D01*
X177352500Y-131505926D01*
X177364829Y-131567913D01*
X177372905Y-131580001D01*
X177394118Y-131647754D01*
X177375333Y-131716221D01*
X177372905Y-131719999D01*
X177364829Y-131732085D01*
X177352500Y-131794066D01*
X177352500Y-132005926D01*
X177364829Y-132067913D01*
X177411795Y-132138204D01*
X177458762Y-132169585D01*
X177482087Y-132185171D01*
X177544071Y-132197500D01*
X178115928Y-132197499D01*
X178177913Y-132185171D01*
X178195029Y-132173734D01*
X178262779Y-132152520D01*
X178265029Y-132152500D01*
X178366714Y-132152500D01*
X178434835Y-132172502D01*
X178466674Y-132201793D01*
X178523782Y-132276218D01*
X178616562Y-132347410D01*
X178633977Y-132360773D01*
X178686017Y-132382328D01*
X178762295Y-132413923D01*
X178900000Y-132432052D01*
X179037705Y-132413923D01*
X179138929Y-132371995D01*
X179166022Y-132360773D01*
X179166022Y-132360772D01*
X179166026Y-132360771D01*
X179194797Y-132338694D01*
X179261015Y-132313094D01*
X179330564Y-132327358D01*
X179381361Y-132376959D01*
X179397500Y-132438657D01*
X179397500Y-134554721D01*
X179377498Y-134622842D01*
X179360595Y-134643816D01*
X178760553Y-135243858D01*
X178698241Y-135277884D01*
X178627426Y-135272819D01*
X178582363Y-135243858D01*
X178574253Y-135235748D01*
X178487425Y-135177730D01*
X178410859Y-135162500D01*
X178410856Y-135162500D01*
X178241779Y-135162500D01*
X178173658Y-135142498D01*
X178152684Y-135125595D01*
X177684405Y-134657316D01*
X177650379Y-134595004D01*
X177647500Y-134568221D01*
X177647500Y-134379145D01*
X177647499Y-134379140D01*
X177632269Y-134302574D01*
X177574252Y-134215747D01*
X177487425Y-134157730D01*
X177410859Y-134142500D01*
X177410856Y-134142500D01*
X176989144Y-134142500D01*
X176989140Y-134142500D01*
X176912574Y-134157730D01*
X176825747Y-134215747D01*
X176767730Y-134302574D01*
X176752500Y-134379140D01*
X176752500Y-134700859D01*
X176767730Y-134777425D01*
X176825747Y-134864252D01*
X176859396Y-134886736D01*
X176904923Y-134941213D01*
X176913770Y-135011657D01*
X176883128Y-135075700D01*
X176822726Y-135113011D01*
X176789393Y-135117500D01*
X176657074Y-135117500D01*
X176588953Y-135097498D01*
X176567983Y-135080599D01*
X176493692Y-135006308D01*
X176486769Y-134999863D01*
X176486768Y-134999862D01*
X176481205Y-134994684D01*
X176471636Y-134988534D01*
X176453178Y-134983114D01*
X176436345Y-134976835D01*
X176418857Y-134968849D01*
X176418855Y-134968848D01*
X176409010Y-134967432D01*
X176409010Y-134967500D01*
X173007074Y-134967500D01*
X172938953Y-134947498D01*
X172917983Y-134930599D01*
X172093692Y-134106308D01*
X172086769Y-134099863D01*
X172086768Y-134099862D01*
X172081205Y-134094684D01*
X172071636Y-134088534D01*
X172053178Y-134083114D01*
X172036345Y-134076835D01*
X172018857Y-134068849D01*
X172018855Y-134068848D01*
X172009010Y-134067432D01*
X172009010Y-134067500D01*
X165549997Y-134067500D01*
X165494959Y-134079473D01*
X165494954Y-134079476D01*
X165480930Y-134091627D01*
X165468435Y-134101156D01*
X165458080Y-134108076D01*
X165449305Y-134116851D01*
X165449156Y-134116702D01*
X165439941Y-134127145D01*
X165438536Y-134128362D01*
X165436978Y-134130786D01*
X165433476Y-134138309D01*
X165434645Y-134138793D01*
X165429896Y-134150257D01*
X165426355Y-134168058D01*
X165423675Y-134178965D01*
X165417501Y-134199993D01*
X165417500Y-134200004D01*
X165417500Y-135999999D01*
X165419620Y-136009744D01*
X165422500Y-136036530D01*
X165422500Y-136212558D01*
X165429898Y-136249748D01*
X165458078Y-136291922D01*
X165500252Y-136320102D01*
X165537442Y-136327500D01*
X167546093Y-136327500D01*
X167555079Y-136327820D01*
X167578165Y-136329472D01*
X167578168Y-136329470D01*
X167581124Y-136328828D01*
X167588784Y-136326065D01*
X167588282Y-136324852D01*
X167599743Y-136320104D01*
X167599745Y-136320102D01*
X167599748Y-136320102D01*
X167614858Y-136310005D01*
X167624428Y-136304210D01*
X167643692Y-136293692D01*
X167767980Y-136169403D01*
X167830290Y-136135380D01*
X167857074Y-136132500D01*
X169246500Y-136132500D01*
X169314621Y-136152502D01*
X169361114Y-136206158D01*
X169372500Y-136258500D01*
X169372500Y-136412558D01*
X169379898Y-136449748D01*
X169408078Y-136491922D01*
X169450252Y-136520102D01*
X169487442Y-136527500D01*
X169487447Y-136527500D01*
X172012553Y-136527500D01*
X172012558Y-136527500D01*
X172049748Y-136520102D01*
X172091922Y-136491922D01*
X172120102Y-136449748D01*
X172127500Y-136412558D01*
X172127500Y-136258500D01*
X172147502Y-136190379D01*
X172201158Y-136143886D01*
X172253500Y-136132500D01*
X176400002Y-136132500D01*
X176406717Y-136131778D01*
X176406747Y-136132057D01*
X176420957Y-136131040D01*
X176428164Y-136129471D01*
X176428165Y-136129472D01*
X176428165Y-136129471D01*
X176435366Y-136127905D01*
X176454727Y-136120683D01*
X176455038Y-136120528D01*
X176455039Y-136120526D01*
X176455042Y-136120526D01*
X176462686Y-136113901D01*
X176484805Y-136098543D01*
X176493692Y-136093692D01*
X176567980Y-136019403D01*
X176630290Y-135985380D01*
X176657074Y-135982500D01*
X177549999Y-135982500D01*
X177550000Y-135982500D01*
X177605042Y-135970526D01*
X177661466Y-135921635D01*
X177661466Y-135921633D01*
X177675157Y-135909771D01*
X177676244Y-135911026D01*
X177711928Y-135880104D01*
X177782202Y-135869998D01*
X177834278Y-135889952D01*
X177912575Y-135942269D01*
X177912577Y-135942270D01*
X177989144Y-135957500D01*
X177989145Y-135957500D01*
X178410855Y-135957500D01*
X178410856Y-135957500D01*
X178487423Y-135942270D01*
X178487424Y-135942269D01*
X178487425Y-135942269D01*
X178534182Y-135911026D01*
X178574252Y-135884252D01*
X178597140Y-135849997D01*
X178651617Y-135804470D01*
X178701905Y-135794000D01*
X178870225Y-135794000D01*
X178963030Y-135755559D01*
X179611406Y-135107182D01*
X179673717Y-135073159D01*
X179744532Y-135078223D01*
X179801368Y-135120770D01*
X179826179Y-135187290D01*
X179826500Y-135196279D01*
X179826500Y-136516500D01*
X179806498Y-136584621D01*
X179752842Y-136631114D01*
X179700500Y-136642500D01*
X175267174Y-136642500D01*
X175256626Y-136642920D01*
X175236591Y-136644521D01*
X175226127Y-136645779D01*
X175185388Y-136652331D01*
X175185346Y-136652339D01*
X175130633Y-136661140D01*
X175130621Y-136661142D01*
X175110120Y-136666141D01*
X175110118Y-136666142D01*
X175072129Y-136678688D01*
X175052665Y-136686888D01*
X174966805Y-136731422D01*
X174957634Y-136736652D01*
X174940600Y-136747288D01*
X174931881Y-136753228D01*
X173765756Y-137617770D01*
X173757728Y-137624221D01*
X173742966Y-137637055D01*
X173735462Y-137644109D01*
X173669291Y-137711352D01*
X173656037Y-137727099D01*
X173656033Y-137727105D01*
X173633310Y-137758810D01*
X173622664Y-137776408D01*
X173622658Y-137776417D01*
X173584715Y-137851779D01*
X173576912Y-137870831D01*
X173564981Y-137907960D01*
X173560221Y-137927996D01*
X173560220Y-137928002D01*
X173549453Y-137996689D01*
X173549454Y-137996690D01*
X173549447Y-137996735D01*
X173549425Y-137996871D01*
X173545620Y-138021156D01*
X173544418Y-138031412D01*
X173542899Y-138050904D01*
X173542500Y-138061197D01*
X173542500Y-138410682D01*
X173522498Y-138478803D01*
X173468842Y-138525296D01*
X173398568Y-138535400D01*
X173346479Y-138515435D01*
X173327524Y-138502765D01*
X173306853Y-138488947D01*
X173306850Y-138488945D01*
X173306848Y-138488944D01*
X173283980Y-138476712D01*
X173283971Y-138476707D01*
X173238610Y-138457897D01*
X173238589Y-138457890D01*
X173213790Y-138450354D01*
X173213778Y-138450351D01*
X173097574Y-138427166D01*
X173097566Y-138427164D01*
X173097562Y-138427164D01*
X173084730Y-138425253D01*
X173084687Y-138425247D01*
X173060190Y-138422819D01*
X173060123Y-138422814D01*
X173047231Y-138422171D01*
X173047202Y-138422170D01*
X172247537Y-138421551D01*
X172179432Y-138401496D01*
X172132981Y-138347804D01*
X172124056Y-138320130D01*
X172120103Y-138300255D01*
X172120102Y-138300254D01*
X172120102Y-138300252D01*
X172091922Y-138258078D01*
X172072550Y-138245134D01*
X172027024Y-138190657D01*
X172018178Y-138120214D01*
X172048820Y-138056170D01*
X172109222Y-138018860D01*
X172126097Y-138015451D01*
X172137705Y-138013923D01*
X172236952Y-137972813D01*
X172266022Y-137960773D01*
X172266022Y-137960772D01*
X172266026Y-137960771D01*
X172376218Y-137876218D01*
X172460771Y-137766026D01*
X172513923Y-137637705D01*
X172532052Y-137500000D01*
X172513923Y-137362295D01*
X172489631Y-137303648D01*
X172460773Y-137233977D01*
X172460771Y-137233974D01*
X172376218Y-137123782D01*
X172266026Y-137039229D01*
X172266025Y-137039228D01*
X172266022Y-137039226D01*
X172137705Y-136986077D01*
X172000000Y-136967948D01*
X171862294Y-136986077D01*
X171733977Y-137039226D01*
X171683420Y-137078020D01*
X171623782Y-137123782D01*
X171566675Y-137198205D01*
X171509339Y-137240071D01*
X171466714Y-137247500D01*
X171353944Y-137247500D01*
X171285823Y-137227498D01*
X171249179Y-137191502D01*
X171212857Y-137137142D01*
X171124373Y-137078020D01*
X171046351Y-137062500D01*
X171046348Y-137062500D01*
X170713652Y-137062500D01*
X170713648Y-137062500D01*
X170635626Y-137078020D01*
X170547142Y-137137142D01*
X170504765Y-137200566D01*
X170450288Y-137246094D01*
X170379845Y-137254942D01*
X170315801Y-137224301D01*
X170295235Y-137200566D01*
X170252857Y-137137142D01*
X170164373Y-137078020D01*
X170086351Y-137062500D01*
X170086348Y-137062500D01*
X169753652Y-137062500D01*
X169753648Y-137062500D01*
X169675626Y-137078020D01*
X169587142Y-137137142D01*
X169528020Y-137225626D01*
X169512500Y-137303648D01*
X169512500Y-137696351D01*
X169528020Y-137774373D01*
X169550821Y-137808498D01*
X169587143Y-137862857D01*
X169611501Y-137879132D01*
X169657029Y-137933609D01*
X169667500Y-137983898D01*
X169667500Y-138096500D01*
X169647498Y-138164621D01*
X169593842Y-138211114D01*
X169541500Y-138222500D01*
X169487441Y-138222500D01*
X169450254Y-138229897D01*
X169450252Y-138229897D01*
X169450252Y-138229898D01*
X169408079Y-138258077D01*
X169408078Y-138258078D01*
X169379897Y-138300254D01*
X169372500Y-138337441D01*
X169372500Y-138529130D01*
X169352498Y-138597251D01*
X169342285Y-138610992D01*
X169330414Y-138624881D01*
X169307222Y-138656781D01*
X169296356Y-138674502D01*
X169257616Y-138750490D01*
X169257615Y-138750492D01*
X169249659Y-138769690D01*
X169237465Y-138807199D01*
X169237463Y-138807206D01*
X169232604Y-138827440D01*
X169232601Y-138827454D01*
X169217686Y-138921576D01*
X169216461Y-138931922D01*
X169214910Y-138951617D01*
X169214500Y-138962051D01*
X169214500Y-140291892D01*
X169214907Y-140302282D01*
X169216459Y-140322006D01*
X169217679Y-140332314D01*
X169232584Y-140426420D01*
X169232585Y-140426425D01*
X169237439Y-140446645D01*
X169237446Y-140446671D01*
X169249616Y-140484127D01*
X169249622Y-140484141D01*
X169257579Y-140503351D01*
X169296276Y-140579298D01*
X169307141Y-140597028D01*
X169307145Y-140597033D01*
X169307150Y-140597041D01*
X169330305Y-140628909D01*
X169330317Y-140628926D01*
X169343802Y-140644714D01*
X169343814Y-140644728D01*
X169343823Y-140644737D01*
X169343834Y-140644749D01*
X169404058Y-140704973D01*
X169404069Y-140704983D01*
X169404080Y-140704994D01*
X169404093Y-140705005D01*
X169419881Y-140718490D01*
X169419898Y-140718502D01*
X169444891Y-140736662D01*
X169451780Y-140741667D01*
X169469510Y-140752532D01*
X169469523Y-140752538D01*
X169469532Y-140752544D01*
X169545435Y-140791219D01*
X169545448Y-140791224D01*
X169545457Y-140791229D01*
X169564666Y-140799186D01*
X169602158Y-140811368D01*
X169615007Y-140814453D01*
X169622356Y-140816218D01*
X169622359Y-140816218D01*
X169622374Y-140816222D01*
X169696696Y-140827994D01*
X169696699Y-140827994D01*
X169701586Y-140828768D01*
X169701585Y-140828768D01*
X169701591Y-140828769D01*
X169711067Y-140830269D01*
X169716482Y-140831127D01*
X169726813Y-140832350D01*
X169746522Y-140833901D01*
X169755225Y-140834242D01*
X169756914Y-140834309D01*
X169756917Y-140834309D01*
X172789945Y-140834309D01*
X172789958Y-140834309D01*
X172798947Y-140834004D01*
X172815992Y-140832845D01*
X172816002Y-140832844D01*
X172816468Y-140832797D01*
X172816556Y-140832806D01*
X172818130Y-140832700D01*
X172818140Y-140832857D01*
X172822784Y-140832223D01*
X172822856Y-140832215D01*
X172824934Y-140831931D01*
X172842273Y-140829562D01*
X172842280Y-140829561D01*
X172842281Y-140829562D01*
X172906633Y-140820775D01*
X172924227Y-140817143D01*
X172957070Y-140808004D01*
X172957088Y-140807997D01*
X172957091Y-140807997D01*
X172964480Y-140805389D01*
X172974014Y-140802025D01*
X173041804Y-140772794D01*
X173057785Y-140764576D01*
X173086978Y-140746964D01*
X173101697Y-140736662D01*
X173165893Y-140684905D01*
X173172693Y-140679031D01*
X173185236Y-140667431D01*
X173191626Y-140661105D01*
X173534927Y-140297411D01*
X173825909Y-139989142D01*
X173838424Y-139977567D01*
X173873732Y-139949102D01*
X173881547Y-139942800D01*
X173910738Y-139925190D01*
X173945302Y-139910286D01*
X173978140Y-139901148D01*
X174020657Y-139895343D01*
X174033001Y-139893658D01*
X174050045Y-139892500D01*
X175748365Y-139892500D01*
X175748366Y-139892500D01*
X175750722Y-139892479D01*
X175755221Y-139892399D01*
X175794711Y-139885639D01*
X175862074Y-139863217D01*
X175862075Y-139863216D01*
X175862081Y-139863211D01*
X175868079Y-139859507D01*
X175871330Y-139856789D01*
X175923400Y-139820635D01*
X175947182Y-139791120D01*
X175954922Y-139785746D01*
X175963098Y-139773510D01*
X175963099Y-139773507D01*
X175968103Y-139766016D01*
X175968107Y-139766014D01*
X175968352Y-139765646D01*
X175975003Y-139756595D01*
X175992968Y-139734302D01*
X175995298Y-139736179D01*
X176026535Y-139702634D01*
X176090822Y-139685000D01*
X176590476Y-139685000D01*
X176615045Y-139687418D01*
X176620725Y-139688548D01*
X176642273Y-139694874D01*
X176685366Y-139711829D01*
X176750393Y-139719996D01*
X176750393Y-139719995D01*
X176750394Y-139719996D01*
X176750397Y-139719996D01*
X176797355Y-139714096D01*
X176820836Y-139711147D01*
X176889289Y-139681349D01*
X176943766Y-139635821D01*
X176968968Y-139607764D01*
X176980252Y-139590876D01*
X176992496Y-139567969D01*
X177011308Y-139522552D01*
X177018847Y-139497699D01*
X177024532Y-139469122D01*
X177026441Y-139456261D01*
X177028863Y-139431677D01*
X177029501Y-139418686D01*
X177029501Y-139289246D01*
X177029501Y-139289235D01*
X177028861Y-139276249D01*
X177028860Y-139276248D01*
X177028860Y-139276229D01*
X177027547Y-139262928D01*
X177040758Y-139193172D01*
X177089585Y-139141632D01*
X177128349Y-139126970D01*
X177170093Y-139118666D01*
X177190392Y-139112507D01*
X177261383Y-139111870D01*
X177321451Y-139149715D01*
X177351523Y-139214028D01*
X177352165Y-139237881D01*
X177352500Y-139237881D01*
X177352500Y-139455926D01*
X177364829Y-139517913D01*
X177372905Y-139530001D01*
X177394118Y-139597754D01*
X177375333Y-139666221D01*
X177372905Y-139669999D01*
X177364829Y-139682085D01*
X177352500Y-139744066D01*
X177352500Y-139955926D01*
X177364829Y-140017913D01*
X177411795Y-140088204D01*
X177458762Y-140119585D01*
X177482087Y-140135171D01*
X177544071Y-140147500D01*
X178115928Y-140147499D01*
X178177913Y-140135171D01*
X178195029Y-140123734D01*
X178262779Y-140102520D01*
X178265029Y-140102500D01*
X178366714Y-140102500D01*
X178434835Y-140122502D01*
X178466674Y-140151793D01*
X178523782Y-140226218D01*
X178633974Y-140310771D01*
X178633977Y-140310773D01*
X178686017Y-140332328D01*
X178762295Y-140363923D01*
X178900000Y-140382052D01*
X179037705Y-140363923D01*
X179138929Y-140321995D01*
X179166022Y-140310773D01*
X179166022Y-140310772D01*
X179166026Y-140310771D01*
X179169794Y-140307879D01*
X179236012Y-140282278D01*
X179305561Y-140296541D01*
X179356359Y-140346141D01*
X179372499Y-140407841D01*
X179372499Y-142491222D01*
X179352497Y-142559343D01*
X179335598Y-142580312D01*
X179035316Y-142880595D01*
X178740832Y-143175079D01*
X178678520Y-143209104D01*
X178607704Y-143204039D01*
X178581734Y-143190747D01*
X178487425Y-143127730D01*
X178410859Y-143112500D01*
X178410856Y-143112500D01*
X178241779Y-143112500D01*
X178173658Y-143092498D01*
X178152684Y-143075595D01*
X177684405Y-142607316D01*
X177650379Y-142545004D01*
X177647500Y-142518221D01*
X177647500Y-142329145D01*
X177647499Y-142329140D01*
X177632269Y-142252574D01*
X177574252Y-142165747D01*
X177487425Y-142107730D01*
X177410859Y-142092500D01*
X177410856Y-142092500D01*
X176989144Y-142092500D01*
X176989140Y-142092500D01*
X176912574Y-142107730D01*
X176825747Y-142165747D01*
X176767730Y-142252574D01*
X176752500Y-142329140D01*
X176752500Y-142650859D01*
X176767730Y-142727425D01*
X176825747Y-142814252D01*
X176859396Y-142836736D01*
X176904923Y-142891213D01*
X176913770Y-142961657D01*
X176883128Y-143025700D01*
X176822726Y-143063011D01*
X176789393Y-143067500D01*
X176657074Y-143067500D01*
X176588953Y-143047498D01*
X176567983Y-143030599D01*
X176493692Y-142956308D01*
X176486769Y-142949863D01*
X176486768Y-142949862D01*
X176481205Y-142944684D01*
X176471636Y-142938534D01*
X176453178Y-142933114D01*
X176436345Y-142926835D01*
X176418857Y-142918849D01*
X176418855Y-142918848D01*
X176409010Y-142917432D01*
X176409010Y-142917500D01*
X173007074Y-142917500D01*
X172938953Y-142897498D01*
X172917983Y-142880599D01*
X172093692Y-142056308D01*
X172086769Y-142049863D01*
X172086768Y-142049862D01*
X172081205Y-142044684D01*
X172071636Y-142038534D01*
X172053178Y-142033114D01*
X172036345Y-142026835D01*
X172018857Y-142018849D01*
X172018855Y-142018848D01*
X172009010Y-142017432D01*
X172009010Y-142017500D01*
X165549997Y-142017500D01*
X165494959Y-142029473D01*
X165494954Y-142029476D01*
X165480930Y-142041627D01*
X165468435Y-142051156D01*
X165458080Y-142058076D01*
X165449305Y-142066851D01*
X165449156Y-142066702D01*
X165439941Y-142077145D01*
X165438536Y-142078362D01*
X165436978Y-142080786D01*
X165433476Y-142088309D01*
X165434645Y-142088793D01*
X165429896Y-142100257D01*
X165426355Y-142118058D01*
X165423675Y-142128965D01*
X165417501Y-142149993D01*
X165417500Y-142150004D01*
X165417500Y-143949999D01*
X165419620Y-143959744D01*
X165422500Y-143986530D01*
X165422500Y-144162558D01*
X165429898Y-144199748D01*
X165458078Y-144241922D01*
X165500252Y-144270102D01*
X165537442Y-144277500D01*
X167546093Y-144277500D01*
X167555079Y-144277820D01*
X167578165Y-144279472D01*
X167578168Y-144279470D01*
X167581124Y-144278828D01*
X167588784Y-144276065D01*
X167588282Y-144274852D01*
X167599743Y-144270104D01*
X167599745Y-144270102D01*
X167599748Y-144270102D01*
X167614858Y-144260005D01*
X167624428Y-144254210D01*
X167643692Y-144243692D01*
X167767980Y-144119403D01*
X167830290Y-144085380D01*
X167857074Y-144082500D01*
X169246500Y-144082500D01*
X169314621Y-144102502D01*
X169361114Y-144156158D01*
X169372500Y-144208500D01*
X169372500Y-144362558D01*
X169379898Y-144399748D01*
X169408078Y-144441922D01*
X169450252Y-144470102D01*
X169487442Y-144477500D01*
X169487447Y-144477500D01*
X172012553Y-144477500D01*
X172012558Y-144477500D01*
X172049748Y-144470102D01*
X172091922Y-144441922D01*
X172120102Y-144399748D01*
X172127500Y-144362558D01*
X172127500Y-144208500D01*
X172147502Y-144140379D01*
X172201158Y-144093886D01*
X172253500Y-144082500D01*
X176400002Y-144082500D01*
X176406717Y-144081778D01*
X176406747Y-144082057D01*
X176420957Y-144081040D01*
X176428164Y-144079471D01*
X176428165Y-144079472D01*
X176428165Y-144079471D01*
X176435366Y-144077905D01*
X176454727Y-144070683D01*
X176455038Y-144070528D01*
X176455039Y-144070526D01*
X176455042Y-144070526D01*
X176462686Y-144063901D01*
X176484805Y-144048543D01*
X176493692Y-144043692D01*
X176567980Y-143969403D01*
X176630290Y-143935380D01*
X176657074Y-143932500D01*
X177549999Y-143932500D01*
X177550000Y-143932500D01*
X177605042Y-143920526D01*
X177661466Y-143871635D01*
X177661466Y-143871633D01*
X177675157Y-143859771D01*
X177676244Y-143861026D01*
X177711928Y-143830104D01*
X177782202Y-143819998D01*
X177834278Y-143839952D01*
X177912575Y-143892269D01*
X177912577Y-143892270D01*
X177989144Y-143907500D01*
X177989145Y-143907500D01*
X178180924Y-143907500D01*
X178249045Y-143927502D01*
X178295538Y-143981158D01*
X178305642Y-144051432D01*
X178276148Y-144116012D01*
X178270019Y-144122595D01*
X175189252Y-147203361D01*
X175160350Y-147222674D01*
X175160570Y-147223003D01*
X175108078Y-147258078D01*
X175073003Y-147310570D01*
X175072674Y-147310350D01*
X175053362Y-147339251D01*
X174942615Y-147450000D01*
X174942614Y-147450000D01*
X174784242Y-147608371D01*
X174775504Y-147618013D01*
X174775503Y-147618015D01*
X174759853Y-147637084D01*
X174759847Y-147637091D01*
X174752095Y-147647542D01*
X174686203Y-147746156D01*
X174673950Y-147769080D01*
X174655145Y-147814482D01*
X174647605Y-147839339D01*
X174647602Y-147839351D01*
X174624470Y-147955644D01*
X174624469Y-147955648D01*
X174622558Y-147968528D01*
X174622554Y-147968561D01*
X174620139Y-147993084D01*
X174620138Y-147993101D01*
X174619500Y-148006088D01*
X174619500Y-149540083D01*
X174619907Y-149550473D01*
X174621459Y-149570197D01*
X174622679Y-149580505D01*
X174637584Y-149674611D01*
X174637585Y-149674616D01*
X174642439Y-149694836D01*
X174642444Y-149694854D01*
X174654620Y-149732327D01*
X174654622Y-149732332D01*
X174662057Y-149750283D01*
X174669646Y-149820871D01*
X174637867Y-149884358D01*
X174576809Y-149920586D01*
X174545648Y-149924500D01*
X167453806Y-149924500D01*
X167446198Y-149924270D01*
X167159339Y-149906918D01*
X167144235Y-149905084D01*
X166865311Y-149853970D01*
X166850541Y-149850330D01*
X166579802Y-149765964D01*
X166565576Y-149760568D01*
X166306997Y-149644190D01*
X166293525Y-149637120D01*
X166124860Y-149535160D01*
X166050842Y-149490414D01*
X166038328Y-149481776D01*
X165815097Y-149306886D01*
X165803709Y-149296796D01*
X165603203Y-149096290D01*
X165593113Y-149084902D01*
X165467385Y-148924422D01*
X165418220Y-148861668D01*
X165409587Y-148849161D01*
X165304002Y-148674500D01*
X165262879Y-148606474D01*
X165255809Y-148593002D01*
X165160580Y-148381414D01*
X165139429Y-148334418D01*
X165134038Y-148320206D01*
X165049666Y-148049446D01*
X165046032Y-148034700D01*
X164994913Y-147755753D01*
X164993082Y-147740671D01*
X164975730Y-147453801D01*
X164975615Y-147450000D01*
X166169628Y-147450000D01*
X166189080Y-147672334D01*
X166211435Y-147755764D01*
X166246843Y-147887911D01*
X166246845Y-147887916D01*
X166301952Y-148006094D01*
X166341165Y-148090186D01*
X166469178Y-148273007D01*
X166626993Y-148430822D01*
X166809814Y-148558835D01*
X167012087Y-148653156D01*
X167227666Y-148710920D01*
X167450000Y-148730372D01*
X167672334Y-148710920D01*
X167887913Y-148653156D01*
X168090186Y-148558835D01*
X168273007Y-148430822D01*
X168430822Y-148273007D01*
X168558835Y-148090186D01*
X168653156Y-147887913D01*
X168710920Y-147672334D01*
X168730372Y-147450000D01*
X168710920Y-147227666D01*
X168653156Y-147012087D01*
X168558835Y-146809814D01*
X168430822Y-146626993D01*
X168273007Y-146469178D01*
X168099974Y-146348019D01*
X168090186Y-146341165D01*
X167887916Y-146246845D01*
X167887911Y-146246843D01*
X167787860Y-146220034D01*
X167672334Y-146189080D01*
X167450000Y-146169628D01*
X167227666Y-146189080D01*
X167169903Y-146204557D01*
X167012088Y-146246843D01*
X167012083Y-146246845D01*
X166809813Y-146341165D01*
X166626996Y-146469175D01*
X166626990Y-146469180D01*
X166469180Y-146626990D01*
X166469175Y-146626996D01*
X166341165Y-146809813D01*
X166246845Y-147012083D01*
X166246843Y-147012088D01*
X166234654Y-147057580D01*
X166189080Y-147227666D01*
X166169628Y-147450000D01*
X164975615Y-147450000D01*
X164975500Y-147446194D01*
X164975500Y-102950000D01*
X166169628Y-102950000D01*
X166189080Y-103172334D01*
X166220034Y-103287860D01*
X166241723Y-103368804D01*
X166246844Y-103387913D01*
X166341165Y-103590186D01*
X166469178Y-103773007D01*
X166626993Y-103930822D01*
X166809814Y-104058835D01*
X167012087Y-104153156D01*
X167227666Y-104210920D01*
X167450000Y-104230372D01*
X167672334Y-104210920D01*
X167887913Y-104153156D01*
X168090186Y-104058835D01*
X168273007Y-103930822D01*
X168430822Y-103773007D01*
X168558835Y-103590186D01*
X168653156Y-103387913D01*
X168710920Y-103172334D01*
X168730372Y-102950000D01*
X179169628Y-102950000D01*
X179189080Y-103172334D01*
X179220034Y-103287860D01*
X179241723Y-103368804D01*
X179246844Y-103387913D01*
X179341165Y-103590186D01*
X179469178Y-103773007D01*
X179626993Y-103930822D01*
X179809814Y-104058835D01*
X180012087Y-104153156D01*
X180227666Y-104210920D01*
X180450000Y-104230372D01*
X180672334Y-104210920D01*
X180887913Y-104153156D01*
X181090186Y-104058835D01*
X181273007Y-103930822D01*
X181430822Y-103773007D01*
X181558835Y-103590186D01*
X181653156Y-103387913D01*
X181710920Y-103172334D01*
X181730372Y-102950000D01*
X181710920Y-102727666D01*
X181653156Y-102512087D01*
X181558835Y-102309814D01*
X181430822Y-102126993D01*
X181273007Y-101969178D01*
X181090186Y-101841165D01*
X181016408Y-101806762D01*
X180887916Y-101746845D01*
X180887911Y-101746843D01*
X180787860Y-101720034D01*
X180672334Y-101689080D01*
X180450000Y-101669628D01*
X180227666Y-101689080D01*
X180169903Y-101704557D01*
X180012088Y-101746843D01*
X180012083Y-101746845D01*
X179809813Y-101841165D01*
X179626996Y-101969175D01*
X179626990Y-101969180D01*
X179469180Y-102126990D01*
X179469175Y-102126996D01*
X179341165Y-102309813D01*
X179246845Y-102512083D01*
X179246843Y-102512088D01*
X179211451Y-102644175D01*
X179189080Y-102727666D01*
X179169628Y-102950000D01*
X168730372Y-102950000D01*
X168710920Y-102727666D01*
X168653156Y-102512087D01*
X168558835Y-102309814D01*
X168430822Y-102126993D01*
X168273007Y-101969178D01*
X168090186Y-101841165D01*
X168016408Y-101806762D01*
X167887916Y-101746845D01*
X167887911Y-101746843D01*
X167787860Y-101720034D01*
X167672334Y-101689080D01*
X167450000Y-101669628D01*
X167227666Y-101689080D01*
X167169903Y-101704557D01*
X167012088Y-101746843D01*
X167012083Y-101746845D01*
X166809813Y-101841165D01*
X166626996Y-101969175D01*
X166626990Y-101969180D01*
X166469180Y-102126990D01*
X166469175Y-102126996D01*
X166341165Y-102309813D01*
X166246845Y-102512083D01*
X166246843Y-102512088D01*
X166211451Y-102644175D01*
X166189080Y-102727666D01*
X166169628Y-102950000D01*
X164975500Y-102950000D01*
X164975500Y-102945555D01*
X164975730Y-102937947D01*
X164992587Y-102659265D01*
X164994418Y-102644188D01*
X165045548Y-102365176D01*
X165049181Y-102350437D01*
X165133574Y-102079610D01*
X165138961Y-102065409D01*
X165255372Y-101806753D01*
X165262430Y-101793303D01*
X165409182Y-101550547D01*
X165417805Y-101538054D01*
X165592748Y-101314756D01*
X165602822Y-101303386D01*
X165803386Y-101102822D01*
X165814756Y-101092748D01*
X166038054Y-100917805D01*
X166050547Y-100909182D01*
X166293303Y-100762430D01*
X166306753Y-100755372D01*
X166565409Y-100638961D01*
X166579610Y-100633574D01*
X166850437Y-100549181D01*
X166865176Y-100545548D01*
X167144188Y-100494418D01*
X167159267Y-100492587D01*
X167413486Y-100477209D01*
X167437950Y-100475730D01*
X167445557Y-100475500D01*
X180441715Y-100475500D01*
X180446194Y-100475500D01*
X180453801Y-100475730D01*
G37*
%TD.AperFunction*%
%TD*%
M02*
