%TF.GenerationSoftware,KiCad,Pcbnew,7.0.7*%
%TF.CreationDate,2024-05-08T01:14:45-04:00*%
%TF.ProjectId,PSU-Plus,5053552d-506c-4757-932e-6b696361645f,rev?*%
%TF.SameCoordinates,Original*%
%TF.FileFunction,Legend,Top*%
%TF.FilePolarity,Positive*%
%FSLAX46Y46*%
G04 Gerber Fmt 4.6, Leading zero omitted, Abs format (unit mm)*
G04 Created by KiCad (PCBNEW 7.0.7) date 2024-05-08 01:14:45*
%MOMM*%
%LPD*%
G01*
G04 APERTURE LIST*
%ADD10C,0.300000*%
%ADD11C,0.150000*%
%ADD12C,0.120000*%
G04 APERTURE END LIST*
D10*
X169525000Y-103562673D02*
X169525000Y-102312673D01*
X169525000Y-102312673D02*
X170001190Y-102312673D01*
X170001190Y-102312673D02*
X170120238Y-102372197D01*
X170120238Y-102372197D02*
X170179761Y-102431721D01*
X170179761Y-102431721D02*
X170239285Y-102550769D01*
X170239285Y-102550769D02*
X170239285Y-102729340D01*
X170239285Y-102729340D02*
X170179761Y-102848388D01*
X170179761Y-102848388D02*
X170120238Y-102907911D01*
X170120238Y-102907911D02*
X170001190Y-102967435D01*
X170001190Y-102967435D02*
X169525000Y-102967435D01*
X170715476Y-103503150D02*
X170894047Y-103562673D01*
X170894047Y-103562673D02*
X171191666Y-103562673D01*
X171191666Y-103562673D02*
X171310714Y-103503150D01*
X171310714Y-103503150D02*
X171370238Y-103443626D01*
X171370238Y-103443626D02*
X171429761Y-103324578D01*
X171429761Y-103324578D02*
X171429761Y-103205530D01*
X171429761Y-103205530D02*
X171370238Y-103086483D01*
X171370238Y-103086483D02*
X171310714Y-103026959D01*
X171310714Y-103026959D02*
X171191666Y-102967435D01*
X171191666Y-102967435D02*
X170953571Y-102907911D01*
X170953571Y-102907911D02*
X170834523Y-102848388D01*
X170834523Y-102848388D02*
X170775000Y-102788864D01*
X170775000Y-102788864D02*
X170715476Y-102669816D01*
X170715476Y-102669816D02*
X170715476Y-102550769D01*
X170715476Y-102550769D02*
X170775000Y-102431721D01*
X170775000Y-102431721D02*
X170834523Y-102372197D01*
X170834523Y-102372197D02*
X170953571Y-102312673D01*
X170953571Y-102312673D02*
X171251190Y-102312673D01*
X171251190Y-102312673D02*
X171429761Y-102372197D01*
X171965476Y-102312673D02*
X171965476Y-103324578D01*
X171965476Y-103324578D02*
X172024999Y-103443626D01*
X172024999Y-103443626D02*
X172084523Y-103503150D01*
X172084523Y-103503150D02*
X172203571Y-103562673D01*
X172203571Y-103562673D02*
X172441666Y-103562673D01*
X172441666Y-103562673D02*
X172560714Y-103503150D01*
X172560714Y-103503150D02*
X172620237Y-103443626D01*
X172620237Y-103443626D02*
X172679761Y-103324578D01*
X172679761Y-103324578D02*
X172679761Y-102312673D01*
X173275000Y-103086483D02*
X174227381Y-103086483D01*
X174822619Y-103562673D02*
X174822619Y-102312673D01*
X174822619Y-102312673D02*
X175298809Y-102312673D01*
X175298809Y-102312673D02*
X175417857Y-102372197D01*
X175417857Y-102372197D02*
X175477380Y-102431721D01*
X175477380Y-102431721D02*
X175536904Y-102550769D01*
X175536904Y-102550769D02*
X175536904Y-102729340D01*
X175536904Y-102729340D02*
X175477380Y-102848388D01*
X175477380Y-102848388D02*
X175417857Y-102907911D01*
X175417857Y-102907911D02*
X175298809Y-102967435D01*
X175298809Y-102967435D02*
X174822619Y-102967435D01*
X176251190Y-103562673D02*
X176132142Y-103503150D01*
X176132142Y-103503150D02*
X176072619Y-103384102D01*
X176072619Y-103384102D02*
X176072619Y-102312673D01*
X177263095Y-102729340D02*
X177263095Y-103562673D01*
X176727381Y-102729340D02*
X176727381Y-103384102D01*
X176727381Y-103384102D02*
X176786904Y-103503150D01*
X176786904Y-103503150D02*
X176905952Y-103562673D01*
X176905952Y-103562673D02*
X177084523Y-103562673D01*
X177084523Y-103562673D02*
X177203571Y-103503150D01*
X177203571Y-103503150D02*
X177263095Y-103443626D01*
X177798809Y-103503150D02*
X177917856Y-103562673D01*
X177917856Y-103562673D02*
X178155952Y-103562673D01*
X178155952Y-103562673D02*
X178274999Y-103503150D01*
X178274999Y-103503150D02*
X178334523Y-103384102D01*
X178334523Y-103384102D02*
X178334523Y-103324578D01*
X178334523Y-103324578D02*
X178274999Y-103205530D01*
X178274999Y-103205530D02*
X178155952Y-103146007D01*
X178155952Y-103146007D02*
X177977380Y-103146007D01*
X177977380Y-103146007D02*
X177858333Y-103086483D01*
X177858333Y-103086483D02*
X177798809Y-102967435D01*
X177798809Y-102967435D02*
X177798809Y-102907911D01*
X177798809Y-102907911D02*
X177858333Y-102788864D01*
X177858333Y-102788864D02*
X177977380Y-102729340D01*
X177977380Y-102729340D02*
X178155952Y-102729340D01*
X178155952Y-102729340D02*
X178274999Y-102788864D01*
D11*
X175104762Y-145806819D02*
X175438095Y-146806819D01*
X175438095Y-146806819D02*
X175771428Y-145806819D01*
X176104762Y-146806819D02*
X176104762Y-145806819D01*
X176580952Y-146806819D02*
X176580952Y-145806819D01*
X176580952Y-145806819D02*
X177152380Y-146806819D01*
X177152380Y-146806819D02*
X177152380Y-145806819D01*
X170938095Y-145854438D02*
X170842857Y-145806819D01*
X170842857Y-145806819D02*
X170700000Y-145806819D01*
X170700000Y-145806819D02*
X170557143Y-145854438D01*
X170557143Y-145854438D02*
X170461905Y-145949676D01*
X170461905Y-145949676D02*
X170414286Y-146044914D01*
X170414286Y-146044914D02*
X170366667Y-146235390D01*
X170366667Y-146235390D02*
X170366667Y-146378247D01*
X170366667Y-146378247D02*
X170414286Y-146568723D01*
X170414286Y-146568723D02*
X170461905Y-146663961D01*
X170461905Y-146663961D02*
X170557143Y-146759200D01*
X170557143Y-146759200D02*
X170700000Y-146806819D01*
X170700000Y-146806819D02*
X170795238Y-146806819D01*
X170795238Y-146806819D02*
X170938095Y-146759200D01*
X170938095Y-146759200D02*
X170985714Y-146711580D01*
X170985714Y-146711580D02*
X170985714Y-146378247D01*
X170985714Y-146378247D02*
X170795238Y-146378247D01*
X171414286Y-146806819D02*
X171414286Y-145806819D01*
X171414286Y-145806819D02*
X171985714Y-146806819D01*
X171985714Y-146806819D02*
X171985714Y-145806819D01*
X172461905Y-146806819D02*
X172461905Y-145806819D01*
X172461905Y-145806819D02*
X172700000Y-145806819D01*
X172700000Y-145806819D02*
X172842857Y-145854438D01*
X172842857Y-145854438D02*
X172938095Y-145949676D01*
X172938095Y-145949676D02*
X172985714Y-146044914D01*
X172985714Y-146044914D02*
X173033333Y-146235390D01*
X173033333Y-146235390D02*
X173033333Y-146378247D01*
X173033333Y-146378247D02*
X172985714Y-146568723D01*
X172985714Y-146568723D02*
X172938095Y-146663961D01*
X172938095Y-146663961D02*
X172842857Y-146759200D01*
X172842857Y-146759200D02*
X172700000Y-146806819D01*
X172700000Y-146806819D02*
X172461905Y-146806819D01*
X172730999Y-130421735D02*
X172695285Y-130457450D01*
X172695285Y-130457450D02*
X172588142Y-130493164D01*
X172588142Y-130493164D02*
X172516714Y-130493164D01*
X172516714Y-130493164D02*
X172409571Y-130457450D01*
X172409571Y-130457450D02*
X172338142Y-130386021D01*
X172338142Y-130386021D02*
X172302428Y-130314592D01*
X172302428Y-130314592D02*
X172266714Y-130171735D01*
X172266714Y-130171735D02*
X172266714Y-130064592D01*
X172266714Y-130064592D02*
X172302428Y-129921735D01*
X172302428Y-129921735D02*
X172338142Y-129850307D01*
X172338142Y-129850307D02*
X172409571Y-129778878D01*
X172409571Y-129778878D02*
X172516714Y-129743164D01*
X172516714Y-129743164D02*
X172588142Y-129743164D01*
X172588142Y-129743164D02*
X172695285Y-129778878D01*
X172695285Y-129778878D02*
X172730999Y-129814592D01*
X173373857Y-129743164D02*
X173230999Y-129743164D01*
X173230999Y-129743164D02*
X173159571Y-129778878D01*
X173159571Y-129778878D02*
X173123857Y-129814592D01*
X173123857Y-129814592D02*
X173052428Y-129921735D01*
X173052428Y-129921735D02*
X173016714Y-130064592D01*
X173016714Y-130064592D02*
X173016714Y-130350307D01*
X173016714Y-130350307D02*
X173052428Y-130421735D01*
X173052428Y-130421735D02*
X173088142Y-130457450D01*
X173088142Y-130457450D02*
X173159571Y-130493164D01*
X173159571Y-130493164D02*
X173302428Y-130493164D01*
X173302428Y-130493164D02*
X173373857Y-130457450D01*
X173373857Y-130457450D02*
X173409571Y-130421735D01*
X173409571Y-130421735D02*
X173445285Y-130350307D01*
X173445285Y-130350307D02*
X173445285Y-130171735D01*
X173445285Y-130171735D02*
X173409571Y-130100307D01*
X173409571Y-130100307D02*
X173373857Y-130064592D01*
X173373857Y-130064592D02*
X173302428Y-130028878D01*
X173302428Y-130028878D02*
X173159571Y-130028878D01*
X173159571Y-130028878D02*
X173088142Y-130064592D01*
X173088142Y-130064592D02*
X173052428Y-130100307D01*
X173052428Y-130100307D02*
X173016714Y-130171735D01*
X172724999Y-138371735D02*
X172689285Y-138407450D01*
X172689285Y-138407450D02*
X172582142Y-138443164D01*
X172582142Y-138443164D02*
X172510714Y-138443164D01*
X172510714Y-138443164D02*
X172403571Y-138407450D01*
X172403571Y-138407450D02*
X172332142Y-138336021D01*
X172332142Y-138336021D02*
X172296428Y-138264592D01*
X172296428Y-138264592D02*
X172260714Y-138121735D01*
X172260714Y-138121735D02*
X172260714Y-138014592D01*
X172260714Y-138014592D02*
X172296428Y-137871735D01*
X172296428Y-137871735D02*
X172332142Y-137800307D01*
X172332142Y-137800307D02*
X172403571Y-137728878D01*
X172403571Y-137728878D02*
X172510714Y-137693164D01*
X172510714Y-137693164D02*
X172582142Y-137693164D01*
X172582142Y-137693164D02*
X172689285Y-137728878D01*
X172689285Y-137728878D02*
X172724999Y-137764592D01*
X173010714Y-137764592D02*
X173046428Y-137728878D01*
X173046428Y-137728878D02*
X173117857Y-137693164D01*
X173117857Y-137693164D02*
X173296428Y-137693164D01*
X173296428Y-137693164D02*
X173367857Y-137728878D01*
X173367857Y-137728878D02*
X173403571Y-137764592D01*
X173403571Y-137764592D02*
X173439285Y-137836021D01*
X173439285Y-137836021D02*
X173439285Y-137907450D01*
X173439285Y-137907450D02*
X173403571Y-138014592D01*
X173403571Y-138014592D02*
X172974999Y-138443164D01*
X172974999Y-138443164D02*
X173439285Y-138443164D01*
X169317735Y-137875000D02*
X169353450Y-137910714D01*
X169353450Y-137910714D02*
X169389164Y-138017857D01*
X169389164Y-138017857D02*
X169389164Y-138089285D01*
X169389164Y-138089285D02*
X169353450Y-138196428D01*
X169353450Y-138196428D02*
X169282021Y-138267857D01*
X169282021Y-138267857D02*
X169210592Y-138303571D01*
X169210592Y-138303571D02*
X169067735Y-138339285D01*
X169067735Y-138339285D02*
X168960592Y-138339285D01*
X168960592Y-138339285D02*
X168817735Y-138303571D01*
X168817735Y-138303571D02*
X168746307Y-138267857D01*
X168746307Y-138267857D02*
X168674878Y-138196428D01*
X168674878Y-138196428D02*
X168639164Y-138089285D01*
X168639164Y-138089285D02*
X168639164Y-138017857D01*
X168639164Y-138017857D02*
X168674878Y-137910714D01*
X168674878Y-137910714D02*
X168710592Y-137875000D01*
X169389164Y-137160714D02*
X169389164Y-137589285D01*
X169389164Y-137375000D02*
X168639164Y-137375000D01*
X168639164Y-137375000D02*
X168746307Y-137446428D01*
X168746307Y-137446428D02*
X168817735Y-137517857D01*
X168817735Y-137517857D02*
X168853450Y-137589285D01*
X175774999Y-145017735D02*
X175739285Y-145053450D01*
X175739285Y-145053450D02*
X175632142Y-145089164D01*
X175632142Y-145089164D02*
X175560714Y-145089164D01*
X175560714Y-145089164D02*
X175453571Y-145053450D01*
X175453571Y-145053450D02*
X175382142Y-144982021D01*
X175382142Y-144982021D02*
X175346428Y-144910592D01*
X175346428Y-144910592D02*
X175310714Y-144767735D01*
X175310714Y-144767735D02*
X175310714Y-144660592D01*
X175310714Y-144660592D02*
X175346428Y-144517735D01*
X175346428Y-144517735D02*
X175382142Y-144446307D01*
X175382142Y-144446307D02*
X175453571Y-144374878D01*
X175453571Y-144374878D02*
X175560714Y-144339164D01*
X175560714Y-144339164D02*
X175632142Y-144339164D01*
X175632142Y-144339164D02*
X175739285Y-144374878D01*
X175739285Y-144374878D02*
X175774999Y-144410592D01*
X176417857Y-144589164D02*
X176417857Y-145089164D01*
X176239285Y-144303450D02*
X176060714Y-144839164D01*
X176060714Y-144839164D02*
X176524999Y-144839164D01*
X174174999Y-137042735D02*
X174139285Y-137078450D01*
X174139285Y-137078450D02*
X174032142Y-137114164D01*
X174032142Y-137114164D02*
X173960714Y-137114164D01*
X173960714Y-137114164D02*
X173853571Y-137078450D01*
X173853571Y-137078450D02*
X173782142Y-137007021D01*
X173782142Y-137007021D02*
X173746428Y-136935592D01*
X173746428Y-136935592D02*
X173710714Y-136792735D01*
X173710714Y-136792735D02*
X173710714Y-136685592D01*
X173710714Y-136685592D02*
X173746428Y-136542735D01*
X173746428Y-136542735D02*
X173782142Y-136471307D01*
X173782142Y-136471307D02*
X173853571Y-136399878D01*
X173853571Y-136399878D02*
X173960714Y-136364164D01*
X173960714Y-136364164D02*
X174032142Y-136364164D01*
X174032142Y-136364164D02*
X174139285Y-136399878D01*
X174139285Y-136399878D02*
X174174999Y-136435592D01*
X174424999Y-136364164D02*
X174924999Y-136364164D01*
X174924999Y-136364164D02*
X174603571Y-137114164D01*
X169292735Y-129925000D02*
X169328450Y-129960714D01*
X169328450Y-129960714D02*
X169364164Y-130067857D01*
X169364164Y-130067857D02*
X169364164Y-130139285D01*
X169364164Y-130139285D02*
X169328450Y-130246428D01*
X169328450Y-130246428D02*
X169257021Y-130317857D01*
X169257021Y-130317857D02*
X169185592Y-130353571D01*
X169185592Y-130353571D02*
X169042735Y-130389285D01*
X169042735Y-130389285D02*
X168935592Y-130389285D01*
X168935592Y-130389285D02*
X168792735Y-130353571D01*
X168792735Y-130353571D02*
X168721307Y-130317857D01*
X168721307Y-130317857D02*
X168649878Y-130246428D01*
X168649878Y-130246428D02*
X168614164Y-130139285D01*
X168614164Y-130139285D02*
X168614164Y-130067857D01*
X168614164Y-130067857D02*
X168649878Y-129960714D01*
X168649878Y-129960714D02*
X168685592Y-129925000D01*
X168614164Y-129246428D02*
X168614164Y-129603571D01*
X168614164Y-129603571D02*
X168971307Y-129639285D01*
X168971307Y-129639285D02*
X168935592Y-129603571D01*
X168935592Y-129603571D02*
X168899878Y-129532143D01*
X168899878Y-129532143D02*
X168899878Y-129353571D01*
X168899878Y-129353571D02*
X168935592Y-129282143D01*
X168935592Y-129282143D02*
X168971307Y-129246428D01*
X168971307Y-129246428D02*
X169042735Y-129210714D01*
X169042735Y-129210714D02*
X169221307Y-129210714D01*
X169221307Y-129210714D02*
X169292735Y-129246428D01*
X169292735Y-129246428D02*
X169328450Y-129282143D01*
X169328450Y-129282143D02*
X169364164Y-129353571D01*
X169364164Y-129353571D02*
X169364164Y-129532143D01*
X169364164Y-129532143D02*
X169328450Y-129603571D01*
X169328450Y-129603571D02*
X169292735Y-129639285D01*
X174174999Y-144992735D02*
X174139285Y-145028450D01*
X174139285Y-145028450D02*
X174032142Y-145064164D01*
X174032142Y-145064164D02*
X173960714Y-145064164D01*
X173960714Y-145064164D02*
X173853571Y-145028450D01*
X173853571Y-145028450D02*
X173782142Y-144957021D01*
X173782142Y-144957021D02*
X173746428Y-144885592D01*
X173746428Y-144885592D02*
X173710714Y-144742735D01*
X173710714Y-144742735D02*
X173710714Y-144635592D01*
X173710714Y-144635592D02*
X173746428Y-144492735D01*
X173746428Y-144492735D02*
X173782142Y-144421307D01*
X173782142Y-144421307D02*
X173853571Y-144349878D01*
X173853571Y-144349878D02*
X173960714Y-144314164D01*
X173960714Y-144314164D02*
X174032142Y-144314164D01*
X174032142Y-144314164D02*
X174139285Y-144349878D01*
X174139285Y-144349878D02*
X174174999Y-144385592D01*
X174424999Y-144314164D02*
X174889285Y-144314164D01*
X174889285Y-144314164D02*
X174639285Y-144599878D01*
X174639285Y-144599878D02*
X174746428Y-144599878D01*
X174746428Y-144599878D02*
X174817857Y-144635592D01*
X174817857Y-144635592D02*
X174853571Y-144671307D01*
X174853571Y-144671307D02*
X174889285Y-144742735D01*
X174889285Y-144742735D02*
X174889285Y-144921307D01*
X174889285Y-144921307D02*
X174853571Y-144992735D01*
X174853571Y-144992735D02*
X174817857Y-145028450D01*
X174817857Y-145028450D02*
X174746428Y-145064164D01*
X174746428Y-145064164D02*
X174532142Y-145064164D01*
X174532142Y-145064164D02*
X174460714Y-145028450D01*
X174460714Y-145028450D02*
X174424999Y-144992735D01*
X177539164Y-128800000D02*
X177182021Y-129050000D01*
X177539164Y-129228571D02*
X176789164Y-129228571D01*
X176789164Y-129228571D02*
X176789164Y-128942857D01*
X176789164Y-128942857D02*
X176824878Y-128871428D01*
X176824878Y-128871428D02*
X176860592Y-128835714D01*
X176860592Y-128835714D02*
X176932021Y-128800000D01*
X176932021Y-128800000D02*
X177039164Y-128800000D01*
X177039164Y-128800000D02*
X177110592Y-128835714D01*
X177110592Y-128835714D02*
X177146307Y-128871428D01*
X177146307Y-128871428D02*
X177182021Y-128942857D01*
X177182021Y-128942857D02*
X177182021Y-129228571D01*
X176789164Y-128121428D02*
X176789164Y-128478571D01*
X176789164Y-128478571D02*
X177146307Y-128514285D01*
X177146307Y-128514285D02*
X177110592Y-128478571D01*
X177110592Y-128478571D02*
X177074878Y-128407143D01*
X177074878Y-128407143D02*
X177074878Y-128228571D01*
X177074878Y-128228571D02*
X177110592Y-128157143D01*
X177110592Y-128157143D02*
X177146307Y-128121428D01*
X177146307Y-128121428D02*
X177217735Y-128085714D01*
X177217735Y-128085714D02*
X177396307Y-128085714D01*
X177396307Y-128085714D02*
X177467735Y-128121428D01*
X177467735Y-128121428D02*
X177503450Y-128157143D01*
X177503450Y-128157143D02*
X177539164Y-128228571D01*
X177539164Y-128228571D02*
X177539164Y-128407143D01*
X177539164Y-128407143D02*
X177503450Y-128478571D01*
X177503450Y-128478571D02*
X177467735Y-128514285D01*
X175192856Y-120992735D02*
X175157142Y-121028450D01*
X175157142Y-121028450D02*
X175049999Y-121064164D01*
X175049999Y-121064164D02*
X174978571Y-121064164D01*
X174978571Y-121064164D02*
X174871428Y-121028450D01*
X174871428Y-121028450D02*
X174799999Y-120957021D01*
X174799999Y-120957021D02*
X174764285Y-120885592D01*
X174764285Y-120885592D02*
X174728571Y-120742735D01*
X174728571Y-120742735D02*
X174728571Y-120635592D01*
X174728571Y-120635592D02*
X174764285Y-120492735D01*
X174764285Y-120492735D02*
X174799999Y-120421307D01*
X174799999Y-120421307D02*
X174871428Y-120349878D01*
X174871428Y-120349878D02*
X174978571Y-120314164D01*
X174978571Y-120314164D02*
X175049999Y-120314164D01*
X175049999Y-120314164D02*
X175157142Y-120349878D01*
X175157142Y-120349878D02*
X175192856Y-120385592D01*
X175907142Y-121064164D02*
X175478571Y-121064164D01*
X175692856Y-121064164D02*
X175692856Y-120314164D01*
X175692856Y-120314164D02*
X175621428Y-120421307D01*
X175621428Y-120421307D02*
X175549999Y-120492735D01*
X175549999Y-120492735D02*
X175478571Y-120528450D01*
X176550000Y-120314164D02*
X176407142Y-120314164D01*
X176407142Y-120314164D02*
X176335714Y-120349878D01*
X176335714Y-120349878D02*
X176300000Y-120385592D01*
X176300000Y-120385592D02*
X176228571Y-120492735D01*
X176228571Y-120492735D02*
X176192857Y-120635592D01*
X176192857Y-120635592D02*
X176192857Y-120921307D01*
X176192857Y-120921307D02*
X176228571Y-120992735D01*
X176228571Y-120992735D02*
X176264285Y-121028450D01*
X176264285Y-121028450D02*
X176335714Y-121064164D01*
X176335714Y-121064164D02*
X176478571Y-121064164D01*
X176478571Y-121064164D02*
X176550000Y-121028450D01*
X176550000Y-121028450D02*
X176585714Y-120992735D01*
X176585714Y-120992735D02*
X176621428Y-120921307D01*
X176621428Y-120921307D02*
X176621428Y-120742735D01*
X176621428Y-120742735D02*
X176585714Y-120671307D01*
X176585714Y-120671307D02*
X176550000Y-120635592D01*
X176550000Y-120635592D02*
X176478571Y-120599878D01*
X176478571Y-120599878D02*
X176335714Y-120599878D01*
X176335714Y-120599878D02*
X176264285Y-120635592D01*
X176264285Y-120635592D02*
X176228571Y-120671307D01*
X176228571Y-120671307D02*
X176192857Y-120742735D01*
X178539164Y-128800000D02*
X178182021Y-129050000D01*
X178539164Y-129228571D02*
X177789164Y-129228571D01*
X177789164Y-129228571D02*
X177789164Y-128942857D01*
X177789164Y-128942857D02*
X177824878Y-128871428D01*
X177824878Y-128871428D02*
X177860592Y-128835714D01*
X177860592Y-128835714D02*
X177932021Y-128800000D01*
X177932021Y-128800000D02*
X178039164Y-128800000D01*
X178039164Y-128800000D02*
X178110592Y-128835714D01*
X178110592Y-128835714D02*
X178146307Y-128871428D01*
X178146307Y-128871428D02*
X178182021Y-128942857D01*
X178182021Y-128942857D02*
X178182021Y-129228571D01*
X177789164Y-128157143D02*
X177789164Y-128300000D01*
X177789164Y-128300000D02*
X177824878Y-128371428D01*
X177824878Y-128371428D02*
X177860592Y-128407143D01*
X177860592Y-128407143D02*
X177967735Y-128478571D01*
X177967735Y-128478571D02*
X178110592Y-128514285D01*
X178110592Y-128514285D02*
X178396307Y-128514285D01*
X178396307Y-128514285D02*
X178467735Y-128478571D01*
X178467735Y-128478571D02*
X178503450Y-128442857D01*
X178503450Y-128442857D02*
X178539164Y-128371428D01*
X178539164Y-128371428D02*
X178539164Y-128228571D01*
X178539164Y-128228571D02*
X178503450Y-128157143D01*
X178503450Y-128157143D02*
X178467735Y-128121428D01*
X178467735Y-128121428D02*
X178396307Y-128085714D01*
X178396307Y-128085714D02*
X178217735Y-128085714D01*
X178217735Y-128085714D02*
X178146307Y-128121428D01*
X178146307Y-128121428D02*
X178110592Y-128157143D01*
X178110592Y-128157143D02*
X178074878Y-128228571D01*
X178074878Y-128228571D02*
X178074878Y-128371428D01*
X178074878Y-128371428D02*
X178110592Y-128442857D01*
X178110592Y-128442857D02*
X178146307Y-128478571D01*
X178146307Y-128478571D02*
X178217735Y-128514285D01*
X170625000Y-113089164D02*
X170267857Y-113089164D01*
X170267857Y-113089164D02*
X170267857Y-112339164D01*
X171232143Y-112339164D02*
X170875000Y-112339164D01*
X170875000Y-112339164D02*
X170839286Y-112696307D01*
X170839286Y-112696307D02*
X170875000Y-112660592D01*
X170875000Y-112660592D02*
X170946429Y-112624878D01*
X170946429Y-112624878D02*
X171125000Y-112624878D01*
X171125000Y-112624878D02*
X171196429Y-112660592D01*
X171196429Y-112660592D02*
X171232143Y-112696307D01*
X171232143Y-112696307D02*
X171267857Y-112767735D01*
X171267857Y-112767735D02*
X171267857Y-112946307D01*
X171267857Y-112946307D02*
X171232143Y-113017735D01*
X171232143Y-113017735D02*
X171196429Y-113053450D01*
X171196429Y-113053450D02*
X171125000Y-113089164D01*
X171125000Y-113089164D02*
X170946429Y-113089164D01*
X170946429Y-113089164D02*
X170875000Y-113053450D01*
X170875000Y-113053450D02*
X170839286Y-113017735D01*
X170625000Y-145089164D02*
X170267857Y-145089164D01*
X170267857Y-145089164D02*
X170267857Y-144339164D01*
X171267857Y-145089164D02*
X170839286Y-145089164D01*
X171053571Y-145089164D02*
X171053571Y-144339164D01*
X171053571Y-144339164D02*
X170982143Y-144446307D01*
X170982143Y-144446307D02*
X170910714Y-144517735D01*
X170910714Y-144517735D02*
X170839286Y-144553450D01*
X175774999Y-137042735D02*
X175739285Y-137078450D01*
X175739285Y-137078450D02*
X175632142Y-137114164D01*
X175632142Y-137114164D02*
X175560714Y-137114164D01*
X175560714Y-137114164D02*
X175453571Y-137078450D01*
X175453571Y-137078450D02*
X175382142Y-137007021D01*
X175382142Y-137007021D02*
X175346428Y-136935592D01*
X175346428Y-136935592D02*
X175310714Y-136792735D01*
X175310714Y-136792735D02*
X175310714Y-136685592D01*
X175310714Y-136685592D02*
X175346428Y-136542735D01*
X175346428Y-136542735D02*
X175382142Y-136471307D01*
X175382142Y-136471307D02*
X175453571Y-136399878D01*
X175453571Y-136399878D02*
X175560714Y-136364164D01*
X175560714Y-136364164D02*
X175632142Y-136364164D01*
X175632142Y-136364164D02*
X175739285Y-136399878D01*
X175739285Y-136399878D02*
X175774999Y-136435592D01*
X176203571Y-136685592D02*
X176132142Y-136649878D01*
X176132142Y-136649878D02*
X176096428Y-136614164D01*
X176096428Y-136614164D02*
X176060714Y-136542735D01*
X176060714Y-136542735D02*
X176060714Y-136507021D01*
X176060714Y-136507021D02*
X176096428Y-136435592D01*
X176096428Y-136435592D02*
X176132142Y-136399878D01*
X176132142Y-136399878D02*
X176203571Y-136364164D01*
X176203571Y-136364164D02*
X176346428Y-136364164D01*
X176346428Y-136364164D02*
X176417857Y-136399878D01*
X176417857Y-136399878D02*
X176453571Y-136435592D01*
X176453571Y-136435592D02*
X176489285Y-136507021D01*
X176489285Y-136507021D02*
X176489285Y-136542735D01*
X176489285Y-136542735D02*
X176453571Y-136614164D01*
X176453571Y-136614164D02*
X176417857Y-136649878D01*
X176417857Y-136649878D02*
X176346428Y-136685592D01*
X176346428Y-136685592D02*
X176203571Y-136685592D01*
X176203571Y-136685592D02*
X176132142Y-136721307D01*
X176132142Y-136721307D02*
X176096428Y-136757021D01*
X176096428Y-136757021D02*
X176060714Y-136828450D01*
X176060714Y-136828450D02*
X176060714Y-136971307D01*
X176060714Y-136971307D02*
X176096428Y-137042735D01*
X176096428Y-137042735D02*
X176132142Y-137078450D01*
X176132142Y-137078450D02*
X176203571Y-137114164D01*
X176203571Y-137114164D02*
X176346428Y-137114164D01*
X176346428Y-137114164D02*
X176417857Y-137078450D01*
X176417857Y-137078450D02*
X176453571Y-137042735D01*
X176453571Y-137042735D02*
X176489285Y-136971307D01*
X176489285Y-136971307D02*
X176489285Y-136828450D01*
X176489285Y-136828450D02*
X176453571Y-136757021D01*
X176453571Y-136757021D02*
X176417857Y-136721307D01*
X176417857Y-136721307D02*
X176346428Y-136685592D01*
X169292735Y-121925000D02*
X169328450Y-121960714D01*
X169328450Y-121960714D02*
X169364164Y-122067857D01*
X169364164Y-122067857D02*
X169364164Y-122139285D01*
X169364164Y-122139285D02*
X169328450Y-122246428D01*
X169328450Y-122246428D02*
X169257021Y-122317857D01*
X169257021Y-122317857D02*
X169185592Y-122353571D01*
X169185592Y-122353571D02*
X169042735Y-122389285D01*
X169042735Y-122389285D02*
X168935592Y-122389285D01*
X168935592Y-122389285D02*
X168792735Y-122353571D01*
X168792735Y-122353571D02*
X168721307Y-122317857D01*
X168721307Y-122317857D02*
X168649878Y-122246428D01*
X168649878Y-122246428D02*
X168614164Y-122139285D01*
X168614164Y-122139285D02*
X168614164Y-122067857D01*
X168614164Y-122067857D02*
X168649878Y-121960714D01*
X168649878Y-121960714D02*
X168685592Y-121925000D01*
X169364164Y-121567857D02*
X169364164Y-121425000D01*
X169364164Y-121425000D02*
X169328450Y-121353571D01*
X169328450Y-121353571D02*
X169292735Y-121317857D01*
X169292735Y-121317857D02*
X169185592Y-121246428D01*
X169185592Y-121246428D02*
X169042735Y-121210714D01*
X169042735Y-121210714D02*
X168757021Y-121210714D01*
X168757021Y-121210714D02*
X168685592Y-121246428D01*
X168685592Y-121246428D02*
X168649878Y-121282143D01*
X168649878Y-121282143D02*
X168614164Y-121353571D01*
X168614164Y-121353571D02*
X168614164Y-121496428D01*
X168614164Y-121496428D02*
X168649878Y-121567857D01*
X168649878Y-121567857D02*
X168685592Y-121603571D01*
X168685592Y-121603571D02*
X168757021Y-121639285D01*
X168757021Y-121639285D02*
X168935592Y-121639285D01*
X168935592Y-121639285D02*
X169007021Y-121603571D01*
X169007021Y-121603571D02*
X169042735Y-121567857D01*
X169042735Y-121567857D02*
X169078450Y-121496428D01*
X169078450Y-121496428D02*
X169078450Y-121353571D01*
X169078450Y-121353571D02*
X169042735Y-121282143D01*
X169042735Y-121282143D02*
X169007021Y-121246428D01*
X169007021Y-121246428D02*
X168935592Y-121210714D01*
X172017856Y-122421735D02*
X171982142Y-122457450D01*
X171982142Y-122457450D02*
X171874999Y-122493164D01*
X171874999Y-122493164D02*
X171803571Y-122493164D01*
X171803571Y-122493164D02*
X171696428Y-122457450D01*
X171696428Y-122457450D02*
X171624999Y-122386021D01*
X171624999Y-122386021D02*
X171589285Y-122314592D01*
X171589285Y-122314592D02*
X171553571Y-122171735D01*
X171553571Y-122171735D02*
X171553571Y-122064592D01*
X171553571Y-122064592D02*
X171589285Y-121921735D01*
X171589285Y-121921735D02*
X171624999Y-121850307D01*
X171624999Y-121850307D02*
X171696428Y-121778878D01*
X171696428Y-121778878D02*
X171803571Y-121743164D01*
X171803571Y-121743164D02*
X171874999Y-121743164D01*
X171874999Y-121743164D02*
X171982142Y-121778878D01*
X171982142Y-121778878D02*
X172017856Y-121814592D01*
X172732142Y-122493164D02*
X172303571Y-122493164D01*
X172517856Y-122493164D02*
X172517856Y-121743164D01*
X172517856Y-121743164D02*
X172446428Y-121850307D01*
X172446428Y-121850307D02*
X172374999Y-121921735D01*
X172374999Y-121921735D02*
X172303571Y-121957450D01*
X173196428Y-121743164D02*
X173267857Y-121743164D01*
X173267857Y-121743164D02*
X173339285Y-121778878D01*
X173339285Y-121778878D02*
X173375000Y-121814592D01*
X173375000Y-121814592D02*
X173410714Y-121886021D01*
X173410714Y-121886021D02*
X173446428Y-122028878D01*
X173446428Y-122028878D02*
X173446428Y-122207450D01*
X173446428Y-122207450D02*
X173410714Y-122350307D01*
X173410714Y-122350307D02*
X173375000Y-122421735D01*
X173375000Y-122421735D02*
X173339285Y-122457450D01*
X173339285Y-122457450D02*
X173267857Y-122493164D01*
X173267857Y-122493164D02*
X173196428Y-122493164D01*
X173196428Y-122493164D02*
X173125000Y-122457450D01*
X173125000Y-122457450D02*
X173089285Y-122421735D01*
X173089285Y-122421735D02*
X173053571Y-122350307D01*
X173053571Y-122350307D02*
X173017857Y-122207450D01*
X173017857Y-122207450D02*
X173017857Y-122028878D01*
X173017857Y-122028878D02*
X173053571Y-121886021D01*
X173053571Y-121886021D02*
X173089285Y-121814592D01*
X173089285Y-121814592D02*
X173125000Y-121778878D01*
X173125000Y-121778878D02*
X173196428Y-121743164D01*
X170625000Y-137139164D02*
X170267857Y-137139164D01*
X170267857Y-137139164D02*
X170267857Y-136389164D01*
X170839286Y-136460592D02*
X170875000Y-136424878D01*
X170875000Y-136424878D02*
X170946429Y-136389164D01*
X170946429Y-136389164D02*
X171125000Y-136389164D01*
X171125000Y-136389164D02*
X171196429Y-136424878D01*
X171196429Y-136424878D02*
X171232143Y-136460592D01*
X171232143Y-136460592D02*
X171267857Y-136532021D01*
X171267857Y-136532021D02*
X171267857Y-136603450D01*
X171267857Y-136603450D02*
X171232143Y-136710592D01*
X171232143Y-136710592D02*
X170803571Y-137139164D01*
X170803571Y-137139164D02*
X171267857Y-137139164D01*
X173142856Y-129042735D02*
X173107142Y-129078450D01*
X173107142Y-129078450D02*
X172999999Y-129114164D01*
X172999999Y-129114164D02*
X172928571Y-129114164D01*
X172928571Y-129114164D02*
X172821428Y-129078450D01*
X172821428Y-129078450D02*
X172749999Y-129007021D01*
X172749999Y-129007021D02*
X172714285Y-128935592D01*
X172714285Y-128935592D02*
X172678571Y-128792735D01*
X172678571Y-128792735D02*
X172678571Y-128685592D01*
X172678571Y-128685592D02*
X172714285Y-128542735D01*
X172714285Y-128542735D02*
X172749999Y-128471307D01*
X172749999Y-128471307D02*
X172821428Y-128399878D01*
X172821428Y-128399878D02*
X172928571Y-128364164D01*
X172928571Y-128364164D02*
X172999999Y-128364164D01*
X172999999Y-128364164D02*
X173107142Y-128399878D01*
X173107142Y-128399878D02*
X173142856Y-128435592D01*
X173857142Y-129114164D02*
X173428571Y-129114164D01*
X173642856Y-129114164D02*
X173642856Y-128364164D01*
X173642856Y-128364164D02*
X173571428Y-128471307D01*
X173571428Y-128471307D02*
X173499999Y-128542735D01*
X173499999Y-128542735D02*
X173428571Y-128578450D01*
X174571428Y-129114164D02*
X174142857Y-129114164D01*
X174357142Y-129114164D02*
X174357142Y-128364164D01*
X174357142Y-128364164D02*
X174285714Y-128471307D01*
X174285714Y-128471307D02*
X174214285Y-128542735D01*
X174214285Y-128542735D02*
X174142857Y-128578450D01*
X175167856Y-129042735D02*
X175132142Y-129078450D01*
X175132142Y-129078450D02*
X175024999Y-129114164D01*
X175024999Y-129114164D02*
X174953571Y-129114164D01*
X174953571Y-129114164D02*
X174846428Y-129078450D01*
X174846428Y-129078450D02*
X174774999Y-129007021D01*
X174774999Y-129007021D02*
X174739285Y-128935592D01*
X174739285Y-128935592D02*
X174703571Y-128792735D01*
X174703571Y-128792735D02*
X174703571Y-128685592D01*
X174703571Y-128685592D02*
X174739285Y-128542735D01*
X174739285Y-128542735D02*
X174774999Y-128471307D01*
X174774999Y-128471307D02*
X174846428Y-128399878D01*
X174846428Y-128399878D02*
X174953571Y-128364164D01*
X174953571Y-128364164D02*
X175024999Y-128364164D01*
X175024999Y-128364164D02*
X175132142Y-128399878D01*
X175132142Y-128399878D02*
X175167856Y-128435592D01*
X175882142Y-129114164D02*
X175453571Y-129114164D01*
X175667856Y-129114164D02*
X175667856Y-128364164D01*
X175667856Y-128364164D02*
X175596428Y-128471307D01*
X175596428Y-128471307D02*
X175524999Y-128542735D01*
X175524999Y-128542735D02*
X175453571Y-128578450D01*
X176167857Y-128435592D02*
X176203571Y-128399878D01*
X176203571Y-128399878D02*
X176275000Y-128364164D01*
X176275000Y-128364164D02*
X176453571Y-128364164D01*
X176453571Y-128364164D02*
X176525000Y-128399878D01*
X176525000Y-128399878D02*
X176560714Y-128435592D01*
X176560714Y-128435592D02*
X176596428Y-128507021D01*
X176596428Y-128507021D02*
X176596428Y-128578450D01*
X176596428Y-128578450D02*
X176560714Y-128685592D01*
X176560714Y-128685592D02*
X176132142Y-129114164D01*
X176132142Y-129114164D02*
X176596428Y-129114164D01*
X169292735Y-113857143D02*
X169328450Y-113892857D01*
X169328450Y-113892857D02*
X169364164Y-114000000D01*
X169364164Y-114000000D02*
X169364164Y-114071428D01*
X169364164Y-114071428D02*
X169328450Y-114178571D01*
X169328450Y-114178571D02*
X169257021Y-114250000D01*
X169257021Y-114250000D02*
X169185592Y-114285714D01*
X169185592Y-114285714D02*
X169042735Y-114321428D01*
X169042735Y-114321428D02*
X168935592Y-114321428D01*
X168935592Y-114321428D02*
X168792735Y-114285714D01*
X168792735Y-114285714D02*
X168721307Y-114250000D01*
X168721307Y-114250000D02*
X168649878Y-114178571D01*
X168649878Y-114178571D02*
X168614164Y-114071428D01*
X168614164Y-114071428D02*
X168614164Y-114000000D01*
X168614164Y-114000000D02*
X168649878Y-113892857D01*
X168649878Y-113892857D02*
X168685592Y-113857143D01*
X169364164Y-113142857D02*
X169364164Y-113571428D01*
X169364164Y-113357143D02*
X168614164Y-113357143D01*
X168614164Y-113357143D02*
X168721307Y-113428571D01*
X168721307Y-113428571D02*
X168792735Y-113500000D01*
X168792735Y-113500000D02*
X168828450Y-113571428D01*
X168614164Y-112892857D02*
X168614164Y-112428571D01*
X168614164Y-112428571D02*
X168899878Y-112678571D01*
X168899878Y-112678571D02*
X168899878Y-112571428D01*
X168899878Y-112571428D02*
X168935592Y-112500000D01*
X168935592Y-112500000D02*
X168971307Y-112464285D01*
X168971307Y-112464285D02*
X169042735Y-112428571D01*
X169042735Y-112428571D02*
X169221307Y-112428571D01*
X169221307Y-112428571D02*
X169292735Y-112464285D01*
X169292735Y-112464285D02*
X169328450Y-112500000D01*
X169328450Y-112500000D02*
X169364164Y-112571428D01*
X169364164Y-112571428D02*
X169364164Y-112785714D01*
X169364164Y-112785714D02*
X169328450Y-112857142D01*
X169328450Y-112857142D02*
X169292735Y-112892857D01*
X172017856Y-114371735D02*
X171982142Y-114407450D01*
X171982142Y-114407450D02*
X171874999Y-114443164D01*
X171874999Y-114443164D02*
X171803571Y-114443164D01*
X171803571Y-114443164D02*
X171696428Y-114407450D01*
X171696428Y-114407450D02*
X171624999Y-114336021D01*
X171624999Y-114336021D02*
X171589285Y-114264592D01*
X171589285Y-114264592D02*
X171553571Y-114121735D01*
X171553571Y-114121735D02*
X171553571Y-114014592D01*
X171553571Y-114014592D02*
X171589285Y-113871735D01*
X171589285Y-113871735D02*
X171624999Y-113800307D01*
X171624999Y-113800307D02*
X171696428Y-113728878D01*
X171696428Y-113728878D02*
X171803571Y-113693164D01*
X171803571Y-113693164D02*
X171874999Y-113693164D01*
X171874999Y-113693164D02*
X171982142Y-113728878D01*
X171982142Y-113728878D02*
X172017856Y-113764592D01*
X172732142Y-114443164D02*
X172303571Y-114443164D01*
X172517856Y-114443164D02*
X172517856Y-113693164D01*
X172517856Y-113693164D02*
X172446428Y-113800307D01*
X172446428Y-113800307D02*
X172374999Y-113871735D01*
X172374999Y-113871735D02*
X172303571Y-113907450D01*
X173375000Y-113943164D02*
X173375000Y-114443164D01*
X173196428Y-113657450D02*
X173017857Y-114193164D01*
X173017857Y-114193164D02*
X173482142Y-114193164D01*
X178539164Y-144750000D02*
X178182021Y-145000000D01*
X178539164Y-145178571D02*
X177789164Y-145178571D01*
X177789164Y-145178571D02*
X177789164Y-144892857D01*
X177789164Y-144892857D02*
X177824878Y-144821428D01*
X177824878Y-144821428D02*
X177860592Y-144785714D01*
X177860592Y-144785714D02*
X177932021Y-144750000D01*
X177932021Y-144750000D02*
X178039164Y-144750000D01*
X178039164Y-144750000D02*
X178110592Y-144785714D01*
X178110592Y-144785714D02*
X178146307Y-144821428D01*
X178146307Y-144821428D02*
X178182021Y-144892857D01*
X178182021Y-144892857D02*
X178182021Y-145178571D01*
X177860592Y-144464285D02*
X177824878Y-144428571D01*
X177824878Y-144428571D02*
X177789164Y-144357143D01*
X177789164Y-144357143D02*
X177789164Y-144178571D01*
X177789164Y-144178571D02*
X177824878Y-144107143D01*
X177824878Y-144107143D02*
X177860592Y-144071428D01*
X177860592Y-144071428D02*
X177932021Y-144035714D01*
X177932021Y-144035714D02*
X178003450Y-144035714D01*
X178003450Y-144035714D02*
X178110592Y-144071428D01*
X178110592Y-144071428D02*
X178539164Y-144500000D01*
X178539164Y-144500000D02*
X178539164Y-144035714D01*
X173092856Y-120992735D02*
X173057142Y-121028450D01*
X173057142Y-121028450D02*
X172949999Y-121064164D01*
X172949999Y-121064164D02*
X172878571Y-121064164D01*
X172878571Y-121064164D02*
X172771428Y-121028450D01*
X172771428Y-121028450D02*
X172699999Y-120957021D01*
X172699999Y-120957021D02*
X172664285Y-120885592D01*
X172664285Y-120885592D02*
X172628571Y-120742735D01*
X172628571Y-120742735D02*
X172628571Y-120635592D01*
X172628571Y-120635592D02*
X172664285Y-120492735D01*
X172664285Y-120492735D02*
X172699999Y-120421307D01*
X172699999Y-120421307D02*
X172771428Y-120349878D01*
X172771428Y-120349878D02*
X172878571Y-120314164D01*
X172878571Y-120314164D02*
X172949999Y-120314164D01*
X172949999Y-120314164D02*
X173057142Y-120349878D01*
X173057142Y-120349878D02*
X173092856Y-120385592D01*
X173807142Y-121064164D02*
X173378571Y-121064164D01*
X173592856Y-121064164D02*
X173592856Y-120314164D01*
X173592856Y-120314164D02*
X173521428Y-120421307D01*
X173521428Y-120421307D02*
X173449999Y-120492735D01*
X173449999Y-120492735D02*
X173378571Y-120528450D01*
X174485714Y-120314164D02*
X174128571Y-120314164D01*
X174128571Y-120314164D02*
X174092857Y-120671307D01*
X174092857Y-120671307D02*
X174128571Y-120635592D01*
X174128571Y-120635592D02*
X174200000Y-120599878D01*
X174200000Y-120599878D02*
X174378571Y-120599878D01*
X174378571Y-120599878D02*
X174450000Y-120635592D01*
X174450000Y-120635592D02*
X174485714Y-120671307D01*
X174485714Y-120671307D02*
X174521428Y-120742735D01*
X174521428Y-120742735D02*
X174521428Y-120921307D01*
X174521428Y-120921307D02*
X174485714Y-120992735D01*
X174485714Y-120992735D02*
X174450000Y-121028450D01*
X174450000Y-121028450D02*
X174378571Y-121064164D01*
X174378571Y-121064164D02*
X174200000Y-121064164D01*
X174200000Y-121064164D02*
X174128571Y-121028450D01*
X174128571Y-121028450D02*
X174092857Y-120992735D01*
X177539164Y-144750000D02*
X177182021Y-145000000D01*
X177539164Y-145178571D02*
X176789164Y-145178571D01*
X176789164Y-145178571D02*
X176789164Y-144892857D01*
X176789164Y-144892857D02*
X176824878Y-144821428D01*
X176824878Y-144821428D02*
X176860592Y-144785714D01*
X176860592Y-144785714D02*
X176932021Y-144750000D01*
X176932021Y-144750000D02*
X177039164Y-144750000D01*
X177039164Y-144750000D02*
X177110592Y-144785714D01*
X177110592Y-144785714D02*
X177146307Y-144821428D01*
X177146307Y-144821428D02*
X177182021Y-144892857D01*
X177182021Y-144892857D02*
X177182021Y-145178571D01*
X177539164Y-144035714D02*
X177539164Y-144464285D01*
X177539164Y-144250000D02*
X176789164Y-144250000D01*
X176789164Y-144250000D02*
X176896307Y-144321428D01*
X176896307Y-144321428D02*
X176967735Y-144392857D01*
X176967735Y-144392857D02*
X177003450Y-144464285D01*
X169267735Y-105857143D02*
X169303450Y-105892857D01*
X169303450Y-105892857D02*
X169339164Y-106000000D01*
X169339164Y-106000000D02*
X169339164Y-106071428D01*
X169339164Y-106071428D02*
X169303450Y-106178571D01*
X169303450Y-106178571D02*
X169232021Y-106250000D01*
X169232021Y-106250000D02*
X169160592Y-106285714D01*
X169160592Y-106285714D02*
X169017735Y-106321428D01*
X169017735Y-106321428D02*
X168910592Y-106321428D01*
X168910592Y-106321428D02*
X168767735Y-106285714D01*
X168767735Y-106285714D02*
X168696307Y-106250000D01*
X168696307Y-106250000D02*
X168624878Y-106178571D01*
X168624878Y-106178571D02*
X168589164Y-106071428D01*
X168589164Y-106071428D02*
X168589164Y-106000000D01*
X168589164Y-106000000D02*
X168624878Y-105892857D01*
X168624878Y-105892857D02*
X168660592Y-105857143D01*
X169339164Y-105142857D02*
X169339164Y-105571428D01*
X169339164Y-105357143D02*
X168589164Y-105357143D01*
X168589164Y-105357143D02*
X168696307Y-105428571D01*
X168696307Y-105428571D02*
X168767735Y-105500000D01*
X168767735Y-105500000D02*
X168803450Y-105571428D01*
X168589164Y-104892857D02*
X168589164Y-104392857D01*
X168589164Y-104392857D02*
X169339164Y-104714285D01*
X172023565Y-106358090D02*
X171987851Y-106393805D01*
X171987851Y-106393805D02*
X171880708Y-106429519D01*
X171880708Y-106429519D02*
X171809280Y-106429519D01*
X171809280Y-106429519D02*
X171702137Y-106393805D01*
X171702137Y-106393805D02*
X171630708Y-106322376D01*
X171630708Y-106322376D02*
X171594994Y-106250947D01*
X171594994Y-106250947D02*
X171559280Y-106108090D01*
X171559280Y-106108090D02*
X171559280Y-106000947D01*
X171559280Y-106000947D02*
X171594994Y-105858090D01*
X171594994Y-105858090D02*
X171630708Y-105786662D01*
X171630708Y-105786662D02*
X171702137Y-105715233D01*
X171702137Y-105715233D02*
X171809280Y-105679519D01*
X171809280Y-105679519D02*
X171880708Y-105679519D01*
X171880708Y-105679519D02*
X171987851Y-105715233D01*
X171987851Y-105715233D02*
X172023565Y-105750947D01*
X172737851Y-106429519D02*
X172309280Y-106429519D01*
X172523565Y-106429519D02*
X172523565Y-105679519D01*
X172523565Y-105679519D02*
X172452137Y-105786662D01*
X172452137Y-105786662D02*
X172380708Y-105858090D01*
X172380708Y-105858090D02*
X172309280Y-105893805D01*
X173166423Y-106000947D02*
X173094994Y-105965233D01*
X173094994Y-105965233D02*
X173059280Y-105929519D01*
X173059280Y-105929519D02*
X173023566Y-105858090D01*
X173023566Y-105858090D02*
X173023566Y-105822376D01*
X173023566Y-105822376D02*
X173059280Y-105750947D01*
X173059280Y-105750947D02*
X173094994Y-105715233D01*
X173094994Y-105715233D02*
X173166423Y-105679519D01*
X173166423Y-105679519D02*
X173309280Y-105679519D01*
X173309280Y-105679519D02*
X173380709Y-105715233D01*
X173380709Y-105715233D02*
X173416423Y-105750947D01*
X173416423Y-105750947D02*
X173452137Y-105822376D01*
X173452137Y-105822376D02*
X173452137Y-105858090D01*
X173452137Y-105858090D02*
X173416423Y-105929519D01*
X173416423Y-105929519D02*
X173380709Y-105965233D01*
X173380709Y-105965233D02*
X173309280Y-106000947D01*
X173309280Y-106000947D02*
X173166423Y-106000947D01*
X173166423Y-106000947D02*
X173094994Y-106036662D01*
X173094994Y-106036662D02*
X173059280Y-106072376D01*
X173059280Y-106072376D02*
X173023566Y-106143805D01*
X173023566Y-106143805D02*
X173023566Y-106286662D01*
X173023566Y-106286662D02*
X173059280Y-106358090D01*
X173059280Y-106358090D02*
X173094994Y-106393805D01*
X173094994Y-106393805D02*
X173166423Y-106429519D01*
X173166423Y-106429519D02*
X173309280Y-106429519D01*
X173309280Y-106429519D02*
X173380709Y-106393805D01*
X173380709Y-106393805D02*
X173416423Y-106358090D01*
X173416423Y-106358090D02*
X173452137Y-106286662D01*
X173452137Y-106286662D02*
X173452137Y-106143805D01*
X173452137Y-106143805D02*
X173416423Y-106072376D01*
X173416423Y-106072376D02*
X173380709Y-106036662D01*
X173380709Y-106036662D02*
X173309280Y-106000947D01*
X173117856Y-112992735D02*
X173082142Y-113028450D01*
X173082142Y-113028450D02*
X172974999Y-113064164D01*
X172974999Y-113064164D02*
X172903571Y-113064164D01*
X172903571Y-113064164D02*
X172796428Y-113028450D01*
X172796428Y-113028450D02*
X172724999Y-112957021D01*
X172724999Y-112957021D02*
X172689285Y-112885592D01*
X172689285Y-112885592D02*
X172653571Y-112742735D01*
X172653571Y-112742735D02*
X172653571Y-112635592D01*
X172653571Y-112635592D02*
X172689285Y-112492735D01*
X172689285Y-112492735D02*
X172724999Y-112421307D01*
X172724999Y-112421307D02*
X172796428Y-112349878D01*
X172796428Y-112349878D02*
X172903571Y-112314164D01*
X172903571Y-112314164D02*
X172974999Y-112314164D01*
X172974999Y-112314164D02*
X173082142Y-112349878D01*
X173082142Y-112349878D02*
X173117856Y-112385592D01*
X173832142Y-113064164D02*
X173403571Y-113064164D01*
X173617856Y-113064164D02*
X173617856Y-112314164D01*
X173617856Y-112314164D02*
X173546428Y-112421307D01*
X173546428Y-112421307D02*
X173474999Y-112492735D01*
X173474999Y-112492735D02*
X173403571Y-112528450D01*
X174189285Y-113064164D02*
X174332142Y-113064164D01*
X174332142Y-113064164D02*
X174403571Y-113028450D01*
X174403571Y-113028450D02*
X174439285Y-112992735D01*
X174439285Y-112992735D02*
X174510714Y-112885592D01*
X174510714Y-112885592D02*
X174546428Y-112742735D01*
X174546428Y-112742735D02*
X174546428Y-112457021D01*
X174546428Y-112457021D02*
X174510714Y-112385592D01*
X174510714Y-112385592D02*
X174475000Y-112349878D01*
X174475000Y-112349878D02*
X174403571Y-112314164D01*
X174403571Y-112314164D02*
X174260714Y-112314164D01*
X174260714Y-112314164D02*
X174189285Y-112349878D01*
X174189285Y-112349878D02*
X174153571Y-112385592D01*
X174153571Y-112385592D02*
X174117857Y-112457021D01*
X174117857Y-112457021D02*
X174117857Y-112635592D01*
X174117857Y-112635592D02*
X174153571Y-112707021D01*
X174153571Y-112707021D02*
X174189285Y-112742735D01*
X174189285Y-112742735D02*
X174260714Y-112778450D01*
X174260714Y-112778450D02*
X174403571Y-112778450D01*
X174403571Y-112778450D02*
X174475000Y-112742735D01*
X174475000Y-112742735D02*
X174510714Y-112707021D01*
X174510714Y-112707021D02*
X174546428Y-112635592D01*
X175217856Y-112992735D02*
X175182142Y-113028450D01*
X175182142Y-113028450D02*
X175074999Y-113064164D01*
X175074999Y-113064164D02*
X175003571Y-113064164D01*
X175003571Y-113064164D02*
X174896428Y-113028450D01*
X174896428Y-113028450D02*
X174824999Y-112957021D01*
X174824999Y-112957021D02*
X174789285Y-112885592D01*
X174789285Y-112885592D02*
X174753571Y-112742735D01*
X174753571Y-112742735D02*
X174753571Y-112635592D01*
X174753571Y-112635592D02*
X174789285Y-112492735D01*
X174789285Y-112492735D02*
X174824999Y-112421307D01*
X174824999Y-112421307D02*
X174896428Y-112349878D01*
X174896428Y-112349878D02*
X175003571Y-112314164D01*
X175003571Y-112314164D02*
X175074999Y-112314164D01*
X175074999Y-112314164D02*
X175182142Y-112349878D01*
X175182142Y-112349878D02*
X175217856Y-112385592D01*
X175503571Y-112385592D02*
X175539285Y-112349878D01*
X175539285Y-112349878D02*
X175610714Y-112314164D01*
X175610714Y-112314164D02*
X175789285Y-112314164D01*
X175789285Y-112314164D02*
X175860714Y-112349878D01*
X175860714Y-112349878D02*
X175896428Y-112385592D01*
X175896428Y-112385592D02*
X175932142Y-112457021D01*
X175932142Y-112457021D02*
X175932142Y-112528450D01*
X175932142Y-112528450D02*
X175896428Y-112635592D01*
X175896428Y-112635592D02*
X175467856Y-113064164D01*
X175467856Y-113064164D02*
X175932142Y-113064164D01*
X176396428Y-112314164D02*
X176467857Y-112314164D01*
X176467857Y-112314164D02*
X176539285Y-112349878D01*
X176539285Y-112349878D02*
X176575000Y-112385592D01*
X176575000Y-112385592D02*
X176610714Y-112457021D01*
X176610714Y-112457021D02*
X176646428Y-112599878D01*
X176646428Y-112599878D02*
X176646428Y-112778450D01*
X176646428Y-112778450D02*
X176610714Y-112921307D01*
X176610714Y-112921307D02*
X176575000Y-112992735D01*
X176575000Y-112992735D02*
X176539285Y-113028450D01*
X176539285Y-113028450D02*
X176467857Y-113064164D01*
X176467857Y-113064164D02*
X176396428Y-113064164D01*
X176396428Y-113064164D02*
X176325000Y-113028450D01*
X176325000Y-113028450D02*
X176289285Y-112992735D01*
X176289285Y-112992735D02*
X176253571Y-112921307D01*
X176253571Y-112921307D02*
X176217857Y-112778450D01*
X176217857Y-112778450D02*
X176217857Y-112599878D01*
X176217857Y-112599878D02*
X176253571Y-112457021D01*
X176253571Y-112457021D02*
X176289285Y-112385592D01*
X176289285Y-112385592D02*
X176325000Y-112349878D01*
X176325000Y-112349878D02*
X176396428Y-112314164D01*
X177539164Y-136825000D02*
X177182021Y-137075000D01*
X177539164Y-137253571D02*
X176789164Y-137253571D01*
X176789164Y-137253571D02*
X176789164Y-136967857D01*
X176789164Y-136967857D02*
X176824878Y-136896428D01*
X176824878Y-136896428D02*
X176860592Y-136860714D01*
X176860592Y-136860714D02*
X176932021Y-136825000D01*
X176932021Y-136825000D02*
X177039164Y-136825000D01*
X177039164Y-136825000D02*
X177110592Y-136860714D01*
X177110592Y-136860714D02*
X177146307Y-136896428D01*
X177146307Y-136896428D02*
X177182021Y-136967857D01*
X177182021Y-136967857D02*
X177182021Y-137253571D01*
X176789164Y-136575000D02*
X176789164Y-136110714D01*
X176789164Y-136110714D02*
X177074878Y-136360714D01*
X177074878Y-136360714D02*
X177074878Y-136253571D01*
X177074878Y-136253571D02*
X177110592Y-136182143D01*
X177110592Y-136182143D02*
X177146307Y-136146428D01*
X177146307Y-136146428D02*
X177217735Y-136110714D01*
X177217735Y-136110714D02*
X177396307Y-136110714D01*
X177396307Y-136110714D02*
X177467735Y-136146428D01*
X177467735Y-136146428D02*
X177503450Y-136182143D01*
X177503450Y-136182143D02*
X177539164Y-136253571D01*
X177539164Y-136253571D02*
X177539164Y-136467857D01*
X177539164Y-136467857D02*
X177503450Y-136539285D01*
X177503450Y-136539285D02*
X177467735Y-136575000D01*
X170625000Y-129139164D02*
X170267857Y-129139164D01*
X170267857Y-129139164D02*
X170267857Y-128389164D01*
X170803571Y-128389164D02*
X171267857Y-128389164D01*
X171267857Y-128389164D02*
X171017857Y-128674878D01*
X171017857Y-128674878D02*
X171125000Y-128674878D01*
X171125000Y-128674878D02*
X171196429Y-128710592D01*
X171196429Y-128710592D02*
X171232143Y-128746307D01*
X171232143Y-128746307D02*
X171267857Y-128817735D01*
X171267857Y-128817735D02*
X171267857Y-128996307D01*
X171267857Y-128996307D02*
X171232143Y-129067735D01*
X171232143Y-129067735D02*
X171196429Y-129103450D01*
X171196429Y-129103450D02*
X171125000Y-129139164D01*
X171125000Y-129139164D02*
X170910714Y-129139164D01*
X170910714Y-129139164D02*
X170839286Y-129103450D01*
X170839286Y-129103450D02*
X170803571Y-129067735D01*
X170625000Y-121089164D02*
X170267857Y-121089164D01*
X170267857Y-121089164D02*
X170267857Y-120339164D01*
X171196429Y-120589164D02*
X171196429Y-121089164D01*
X171017857Y-120303450D02*
X170839286Y-120839164D01*
X170839286Y-120839164D02*
X171303571Y-120839164D01*
X178539164Y-136850000D02*
X178182021Y-137100000D01*
X178539164Y-137278571D02*
X177789164Y-137278571D01*
X177789164Y-137278571D02*
X177789164Y-136992857D01*
X177789164Y-136992857D02*
X177824878Y-136921428D01*
X177824878Y-136921428D02*
X177860592Y-136885714D01*
X177860592Y-136885714D02*
X177932021Y-136850000D01*
X177932021Y-136850000D02*
X178039164Y-136850000D01*
X178039164Y-136850000D02*
X178110592Y-136885714D01*
X178110592Y-136885714D02*
X178146307Y-136921428D01*
X178146307Y-136921428D02*
X178182021Y-136992857D01*
X178182021Y-136992857D02*
X178182021Y-137278571D01*
X178039164Y-136207143D02*
X178539164Y-136207143D01*
X177753450Y-136385714D02*
X178289164Y-136564285D01*
X178289164Y-136564285D02*
X178289164Y-136100000D01*
X178539164Y-120750000D02*
X178182021Y-121000000D01*
X178539164Y-121178571D02*
X177789164Y-121178571D01*
X177789164Y-121178571D02*
X177789164Y-120892857D01*
X177789164Y-120892857D02*
X177824878Y-120821428D01*
X177824878Y-120821428D02*
X177860592Y-120785714D01*
X177860592Y-120785714D02*
X177932021Y-120750000D01*
X177932021Y-120750000D02*
X178039164Y-120750000D01*
X178039164Y-120750000D02*
X178110592Y-120785714D01*
X178110592Y-120785714D02*
X178146307Y-120821428D01*
X178146307Y-120821428D02*
X178182021Y-120892857D01*
X178182021Y-120892857D02*
X178182021Y-121178571D01*
X178110592Y-120321428D02*
X178074878Y-120392857D01*
X178074878Y-120392857D02*
X178039164Y-120428571D01*
X178039164Y-120428571D02*
X177967735Y-120464285D01*
X177967735Y-120464285D02*
X177932021Y-120464285D01*
X177932021Y-120464285D02*
X177860592Y-120428571D01*
X177860592Y-120428571D02*
X177824878Y-120392857D01*
X177824878Y-120392857D02*
X177789164Y-120321428D01*
X177789164Y-120321428D02*
X177789164Y-120178571D01*
X177789164Y-120178571D02*
X177824878Y-120107143D01*
X177824878Y-120107143D02*
X177860592Y-120071428D01*
X177860592Y-120071428D02*
X177932021Y-120035714D01*
X177932021Y-120035714D02*
X177967735Y-120035714D01*
X177967735Y-120035714D02*
X178039164Y-120071428D01*
X178039164Y-120071428D02*
X178074878Y-120107143D01*
X178074878Y-120107143D02*
X178110592Y-120178571D01*
X178110592Y-120178571D02*
X178110592Y-120321428D01*
X178110592Y-120321428D02*
X178146307Y-120392857D01*
X178146307Y-120392857D02*
X178182021Y-120428571D01*
X178182021Y-120428571D02*
X178253450Y-120464285D01*
X178253450Y-120464285D02*
X178396307Y-120464285D01*
X178396307Y-120464285D02*
X178467735Y-120428571D01*
X178467735Y-120428571D02*
X178503450Y-120392857D01*
X178503450Y-120392857D02*
X178539164Y-120321428D01*
X178539164Y-120321428D02*
X178539164Y-120178571D01*
X178539164Y-120178571D02*
X178503450Y-120107143D01*
X178503450Y-120107143D02*
X178467735Y-120071428D01*
X178467735Y-120071428D02*
X178396307Y-120035714D01*
X178396307Y-120035714D02*
X178253450Y-120035714D01*
X178253450Y-120035714D02*
X178182021Y-120071428D01*
X178182021Y-120071428D02*
X178146307Y-120107143D01*
X178146307Y-120107143D02*
X178110592Y-120178571D01*
X177539164Y-120775000D02*
X177182021Y-121025000D01*
X177539164Y-121203571D02*
X176789164Y-121203571D01*
X176789164Y-121203571D02*
X176789164Y-120917857D01*
X176789164Y-120917857D02*
X176824878Y-120846428D01*
X176824878Y-120846428D02*
X176860592Y-120810714D01*
X176860592Y-120810714D02*
X176932021Y-120775000D01*
X176932021Y-120775000D02*
X177039164Y-120775000D01*
X177039164Y-120775000D02*
X177110592Y-120810714D01*
X177110592Y-120810714D02*
X177146307Y-120846428D01*
X177146307Y-120846428D02*
X177182021Y-120917857D01*
X177182021Y-120917857D02*
X177182021Y-121203571D01*
X176789164Y-120525000D02*
X176789164Y-120025000D01*
X176789164Y-120025000D02*
X177539164Y-120346428D01*
X178539164Y-113457143D02*
X178182021Y-113707143D01*
X178539164Y-113885714D02*
X177789164Y-113885714D01*
X177789164Y-113885714D02*
X177789164Y-113600000D01*
X177789164Y-113600000D02*
X177824878Y-113528571D01*
X177824878Y-113528571D02*
X177860592Y-113492857D01*
X177860592Y-113492857D02*
X177932021Y-113457143D01*
X177932021Y-113457143D02*
X178039164Y-113457143D01*
X178039164Y-113457143D02*
X178110592Y-113492857D01*
X178110592Y-113492857D02*
X178146307Y-113528571D01*
X178146307Y-113528571D02*
X178182021Y-113600000D01*
X178182021Y-113600000D02*
X178182021Y-113885714D01*
X178539164Y-112742857D02*
X178539164Y-113171428D01*
X178539164Y-112957143D02*
X177789164Y-112957143D01*
X177789164Y-112957143D02*
X177896307Y-113028571D01*
X177896307Y-113028571D02*
X177967735Y-113100000D01*
X177967735Y-113100000D02*
X178003450Y-113171428D01*
X177789164Y-112278571D02*
X177789164Y-112207142D01*
X177789164Y-112207142D02*
X177824878Y-112135714D01*
X177824878Y-112135714D02*
X177860592Y-112100000D01*
X177860592Y-112100000D02*
X177932021Y-112064285D01*
X177932021Y-112064285D02*
X178074878Y-112028571D01*
X178074878Y-112028571D02*
X178253450Y-112028571D01*
X178253450Y-112028571D02*
X178396307Y-112064285D01*
X178396307Y-112064285D02*
X178467735Y-112100000D01*
X178467735Y-112100000D02*
X178503450Y-112135714D01*
X178503450Y-112135714D02*
X178539164Y-112207142D01*
X178539164Y-112207142D02*
X178539164Y-112278571D01*
X178539164Y-112278571D02*
X178503450Y-112350000D01*
X178503450Y-112350000D02*
X178467735Y-112385714D01*
X178467735Y-112385714D02*
X178396307Y-112421428D01*
X178396307Y-112421428D02*
X178253450Y-112457142D01*
X178253450Y-112457142D02*
X178074878Y-112457142D01*
X178074878Y-112457142D02*
X177932021Y-112421428D01*
X177932021Y-112421428D02*
X177860592Y-112385714D01*
X177860592Y-112385714D02*
X177824878Y-112350000D01*
X177824878Y-112350000D02*
X177789164Y-112278571D01*
X176528571Y-121439164D02*
X176528571Y-122046307D01*
X176528571Y-122046307D02*
X176564285Y-122117735D01*
X176564285Y-122117735D02*
X176600000Y-122153450D01*
X176600000Y-122153450D02*
X176671428Y-122189164D01*
X176671428Y-122189164D02*
X176814285Y-122189164D01*
X176814285Y-122189164D02*
X176885714Y-122153450D01*
X176885714Y-122153450D02*
X176921428Y-122117735D01*
X176921428Y-122117735D02*
X176957142Y-122046307D01*
X176957142Y-122046307D02*
X176957142Y-121439164D01*
X177242856Y-121439164D02*
X177707142Y-121439164D01*
X177707142Y-121439164D02*
X177457142Y-121724878D01*
X177457142Y-121724878D02*
X177564285Y-121724878D01*
X177564285Y-121724878D02*
X177635714Y-121760592D01*
X177635714Y-121760592D02*
X177671428Y-121796307D01*
X177671428Y-121796307D02*
X177707142Y-121867735D01*
X177707142Y-121867735D02*
X177707142Y-122046307D01*
X177707142Y-122046307D02*
X177671428Y-122117735D01*
X177671428Y-122117735D02*
X177635714Y-122153450D01*
X177635714Y-122153450D02*
X177564285Y-122189164D01*
X177564285Y-122189164D02*
X177349999Y-122189164D01*
X177349999Y-122189164D02*
X177278571Y-122153450D01*
X177278571Y-122153450D02*
X177242856Y-122117735D01*
X166442857Y-141539164D02*
X166014286Y-141539164D01*
X166228571Y-141539164D02*
X166228571Y-140789164D01*
X166228571Y-140789164D02*
X166157143Y-140896307D01*
X166157143Y-140896307D02*
X166085714Y-140967735D01*
X166085714Y-140967735D02*
X166014286Y-141003450D01*
X166657143Y-140789164D02*
X166907143Y-141539164D01*
X166907143Y-141539164D02*
X167157143Y-140789164D01*
X165978571Y-120874878D02*
X165907143Y-120839164D01*
X165907143Y-120839164D02*
X165800000Y-120839164D01*
X165800000Y-120839164D02*
X165692857Y-120874878D01*
X165692857Y-120874878D02*
X165621428Y-120946307D01*
X165621428Y-120946307D02*
X165585714Y-121017735D01*
X165585714Y-121017735D02*
X165550000Y-121160592D01*
X165550000Y-121160592D02*
X165550000Y-121267735D01*
X165550000Y-121267735D02*
X165585714Y-121410592D01*
X165585714Y-121410592D02*
X165621428Y-121482021D01*
X165621428Y-121482021D02*
X165692857Y-121553450D01*
X165692857Y-121553450D02*
X165800000Y-121589164D01*
X165800000Y-121589164D02*
X165871428Y-121589164D01*
X165871428Y-121589164D02*
X165978571Y-121553450D01*
X165978571Y-121553450D02*
X166014285Y-121517735D01*
X166014285Y-121517735D02*
X166014285Y-121267735D01*
X166014285Y-121267735D02*
X165871428Y-121267735D01*
X166335714Y-121589164D02*
X166335714Y-120839164D01*
X166335714Y-120839164D02*
X166764285Y-121589164D01*
X166764285Y-121589164D02*
X166764285Y-120839164D01*
X167121428Y-121589164D02*
X167121428Y-120839164D01*
X167121428Y-120839164D02*
X167299999Y-120839164D01*
X167299999Y-120839164D02*
X167407142Y-120874878D01*
X167407142Y-120874878D02*
X167478571Y-120946307D01*
X167478571Y-120946307D02*
X167514285Y-121017735D01*
X167514285Y-121017735D02*
X167549999Y-121160592D01*
X167549999Y-121160592D02*
X167549999Y-121267735D01*
X167549999Y-121267735D02*
X167514285Y-121410592D01*
X167514285Y-121410592D02*
X167478571Y-121482021D01*
X167478571Y-121482021D02*
X167407142Y-121553450D01*
X167407142Y-121553450D02*
X167299999Y-121589164D01*
X167299999Y-121589164D02*
X167121428Y-121589164D01*
X166407143Y-108789164D02*
X166050000Y-108789164D01*
X166050000Y-108789164D02*
X166014286Y-109146307D01*
X166014286Y-109146307D02*
X166050000Y-109110592D01*
X166050000Y-109110592D02*
X166121429Y-109074878D01*
X166121429Y-109074878D02*
X166300000Y-109074878D01*
X166300000Y-109074878D02*
X166371429Y-109110592D01*
X166371429Y-109110592D02*
X166407143Y-109146307D01*
X166407143Y-109146307D02*
X166442857Y-109217735D01*
X166442857Y-109217735D02*
X166442857Y-109396307D01*
X166442857Y-109396307D02*
X166407143Y-109467735D01*
X166407143Y-109467735D02*
X166371429Y-109503450D01*
X166371429Y-109503450D02*
X166300000Y-109539164D01*
X166300000Y-109539164D02*
X166121429Y-109539164D01*
X166121429Y-109539164D02*
X166050000Y-109503450D01*
X166050000Y-109503450D02*
X166014286Y-109467735D01*
X166657143Y-108789164D02*
X166907143Y-109539164D01*
X166907143Y-109539164D02*
X167157143Y-108789164D01*
X176478571Y-137389164D02*
X176478571Y-137996307D01*
X176478571Y-137996307D02*
X176514285Y-138067735D01*
X176514285Y-138067735D02*
X176550000Y-138103450D01*
X176550000Y-138103450D02*
X176621428Y-138139164D01*
X176621428Y-138139164D02*
X176764285Y-138139164D01*
X176764285Y-138139164D02*
X176835714Y-138103450D01*
X176835714Y-138103450D02*
X176871428Y-138067735D01*
X176871428Y-138067735D02*
X176907142Y-137996307D01*
X176907142Y-137996307D02*
X176907142Y-137389164D01*
X177657142Y-138139164D02*
X177228571Y-138139164D01*
X177442856Y-138139164D02*
X177442856Y-137389164D01*
X177442856Y-137389164D02*
X177371428Y-137496307D01*
X177371428Y-137496307D02*
X177299999Y-137567735D01*
X177299999Y-137567735D02*
X177228571Y-137603450D01*
X165978571Y-112824878D02*
X165907143Y-112789164D01*
X165907143Y-112789164D02*
X165800000Y-112789164D01*
X165800000Y-112789164D02*
X165692857Y-112824878D01*
X165692857Y-112824878D02*
X165621428Y-112896307D01*
X165621428Y-112896307D02*
X165585714Y-112967735D01*
X165585714Y-112967735D02*
X165550000Y-113110592D01*
X165550000Y-113110592D02*
X165550000Y-113217735D01*
X165550000Y-113217735D02*
X165585714Y-113360592D01*
X165585714Y-113360592D02*
X165621428Y-113432021D01*
X165621428Y-113432021D02*
X165692857Y-113503450D01*
X165692857Y-113503450D02*
X165800000Y-113539164D01*
X165800000Y-113539164D02*
X165871428Y-113539164D01*
X165871428Y-113539164D02*
X165978571Y-113503450D01*
X165978571Y-113503450D02*
X166014285Y-113467735D01*
X166014285Y-113467735D02*
X166014285Y-113217735D01*
X166014285Y-113217735D02*
X165871428Y-113217735D01*
X166335714Y-113539164D02*
X166335714Y-112789164D01*
X166335714Y-112789164D02*
X166764285Y-113539164D01*
X166764285Y-113539164D02*
X166764285Y-112789164D01*
X167121428Y-113539164D02*
X167121428Y-112789164D01*
X167121428Y-112789164D02*
X167299999Y-112789164D01*
X167299999Y-112789164D02*
X167407142Y-112824878D01*
X167407142Y-112824878D02*
X167478571Y-112896307D01*
X167478571Y-112896307D02*
X167514285Y-112967735D01*
X167514285Y-112967735D02*
X167549999Y-113110592D01*
X167549999Y-113110592D02*
X167549999Y-113217735D01*
X167549999Y-113217735D02*
X167514285Y-113360592D01*
X167514285Y-113360592D02*
X167478571Y-113432021D01*
X167478571Y-113432021D02*
X167407142Y-113503450D01*
X167407142Y-113503450D02*
X167299999Y-113539164D01*
X167299999Y-113539164D02*
X167121428Y-113539164D01*
X176478571Y-113389164D02*
X176478571Y-113996307D01*
X176478571Y-113996307D02*
X176514285Y-114067735D01*
X176514285Y-114067735D02*
X176550000Y-114103450D01*
X176550000Y-114103450D02*
X176621428Y-114139164D01*
X176621428Y-114139164D02*
X176764285Y-114139164D01*
X176764285Y-114139164D02*
X176835714Y-114103450D01*
X176835714Y-114103450D02*
X176871428Y-114067735D01*
X176871428Y-114067735D02*
X176907142Y-113996307D01*
X176907142Y-113996307D02*
X176907142Y-113389164D01*
X177585714Y-113639164D02*
X177585714Y-114139164D01*
X177407142Y-113353450D02*
X177228571Y-113889164D01*
X177228571Y-113889164D02*
X177692856Y-113889164D01*
X165621428Y-116789164D02*
X166085714Y-116789164D01*
X166085714Y-116789164D02*
X165835714Y-117074878D01*
X165835714Y-117074878D02*
X165942857Y-117074878D01*
X165942857Y-117074878D02*
X166014286Y-117110592D01*
X166014286Y-117110592D02*
X166050000Y-117146307D01*
X166050000Y-117146307D02*
X166085714Y-117217735D01*
X166085714Y-117217735D02*
X166085714Y-117396307D01*
X166085714Y-117396307D02*
X166050000Y-117467735D01*
X166050000Y-117467735D02*
X166014286Y-117503450D01*
X166014286Y-117503450D02*
X165942857Y-117539164D01*
X165942857Y-117539164D02*
X165728571Y-117539164D01*
X165728571Y-117539164D02*
X165657143Y-117503450D01*
X165657143Y-117503450D02*
X165621428Y-117467735D01*
X166300000Y-116789164D02*
X166550000Y-117539164D01*
X166550000Y-117539164D02*
X166800000Y-116789164D01*
X166978571Y-116789164D02*
X167442857Y-116789164D01*
X167442857Y-116789164D02*
X167192857Y-117074878D01*
X167192857Y-117074878D02*
X167300000Y-117074878D01*
X167300000Y-117074878D02*
X167371429Y-117110592D01*
X167371429Y-117110592D02*
X167407143Y-117146307D01*
X167407143Y-117146307D02*
X167442857Y-117217735D01*
X167442857Y-117217735D02*
X167442857Y-117396307D01*
X167442857Y-117396307D02*
X167407143Y-117467735D01*
X167407143Y-117467735D02*
X167371429Y-117503450D01*
X167371429Y-117503450D02*
X167300000Y-117539164D01*
X167300000Y-117539164D02*
X167085714Y-117539164D01*
X167085714Y-117539164D02*
X167014286Y-117503450D01*
X167014286Y-117503450D02*
X166978571Y-117467735D01*
X165728571Y-133589164D02*
X165300000Y-133589164D01*
X165514285Y-133589164D02*
X165514285Y-132839164D01*
X165514285Y-132839164D02*
X165442857Y-132946307D01*
X165442857Y-132946307D02*
X165371428Y-133017735D01*
X165371428Y-133017735D02*
X165300000Y-133053450D01*
X165942857Y-132839164D02*
X166192857Y-133589164D01*
X166192857Y-133589164D02*
X166442857Y-132839164D01*
X167085714Y-133589164D02*
X166657143Y-133589164D01*
X166871428Y-133589164D02*
X166871428Y-132839164D01*
X166871428Y-132839164D02*
X166800000Y-132946307D01*
X166800000Y-132946307D02*
X166728571Y-133017735D01*
X166728571Y-133017735D02*
X166657143Y-133053450D01*
X167764286Y-132839164D02*
X167407143Y-132839164D01*
X167407143Y-132839164D02*
X167371429Y-133196307D01*
X167371429Y-133196307D02*
X167407143Y-133160592D01*
X167407143Y-133160592D02*
X167478572Y-133124878D01*
X167478572Y-133124878D02*
X167657143Y-133124878D01*
X167657143Y-133124878D02*
X167728572Y-133160592D01*
X167728572Y-133160592D02*
X167764286Y-133196307D01*
X167764286Y-133196307D02*
X167800000Y-133267735D01*
X167800000Y-133267735D02*
X167800000Y-133446307D01*
X167800000Y-133446307D02*
X167764286Y-133517735D01*
X167764286Y-133517735D02*
X167728572Y-133553450D01*
X167728572Y-133553450D02*
X167657143Y-133589164D01*
X167657143Y-133589164D02*
X167478572Y-133589164D01*
X167478572Y-133589164D02*
X167407143Y-133553450D01*
X167407143Y-133553450D02*
X167371429Y-133517735D01*
X166085714Y-125589164D02*
X165657143Y-125589164D01*
X165871428Y-125589164D02*
X165871428Y-124839164D01*
X165871428Y-124839164D02*
X165800000Y-124946307D01*
X165800000Y-124946307D02*
X165728571Y-125017735D01*
X165728571Y-125017735D02*
X165657143Y-125053450D01*
X166300000Y-124839164D02*
X166550000Y-125589164D01*
X166550000Y-125589164D02*
X166800000Y-124839164D01*
X167157143Y-125160592D02*
X167085714Y-125124878D01*
X167085714Y-125124878D02*
X167050000Y-125089164D01*
X167050000Y-125089164D02*
X167014286Y-125017735D01*
X167014286Y-125017735D02*
X167014286Y-124982021D01*
X167014286Y-124982021D02*
X167050000Y-124910592D01*
X167050000Y-124910592D02*
X167085714Y-124874878D01*
X167085714Y-124874878D02*
X167157143Y-124839164D01*
X167157143Y-124839164D02*
X167300000Y-124839164D01*
X167300000Y-124839164D02*
X167371429Y-124874878D01*
X167371429Y-124874878D02*
X167407143Y-124910592D01*
X167407143Y-124910592D02*
X167442857Y-124982021D01*
X167442857Y-124982021D02*
X167442857Y-125017735D01*
X167442857Y-125017735D02*
X167407143Y-125089164D01*
X167407143Y-125089164D02*
X167371429Y-125124878D01*
X167371429Y-125124878D02*
X167300000Y-125160592D01*
X167300000Y-125160592D02*
X167157143Y-125160592D01*
X167157143Y-125160592D02*
X167085714Y-125196307D01*
X167085714Y-125196307D02*
X167050000Y-125232021D01*
X167050000Y-125232021D02*
X167014286Y-125303450D01*
X167014286Y-125303450D02*
X167014286Y-125446307D01*
X167014286Y-125446307D02*
X167050000Y-125517735D01*
X167050000Y-125517735D02*
X167085714Y-125553450D01*
X167085714Y-125553450D02*
X167157143Y-125589164D01*
X167157143Y-125589164D02*
X167300000Y-125589164D01*
X167300000Y-125589164D02*
X167371429Y-125553450D01*
X167371429Y-125553450D02*
X167407143Y-125517735D01*
X167407143Y-125517735D02*
X167442857Y-125446307D01*
X167442857Y-125446307D02*
X167442857Y-125303450D01*
X167442857Y-125303450D02*
X167407143Y-125232021D01*
X167407143Y-125232021D02*
X167371429Y-125196307D01*
X167371429Y-125196307D02*
X167300000Y-125160592D01*
X165978571Y-128874878D02*
X165907143Y-128839164D01*
X165907143Y-128839164D02*
X165800000Y-128839164D01*
X165800000Y-128839164D02*
X165692857Y-128874878D01*
X165692857Y-128874878D02*
X165621428Y-128946307D01*
X165621428Y-128946307D02*
X165585714Y-129017735D01*
X165585714Y-129017735D02*
X165550000Y-129160592D01*
X165550000Y-129160592D02*
X165550000Y-129267735D01*
X165550000Y-129267735D02*
X165585714Y-129410592D01*
X165585714Y-129410592D02*
X165621428Y-129482021D01*
X165621428Y-129482021D02*
X165692857Y-129553450D01*
X165692857Y-129553450D02*
X165800000Y-129589164D01*
X165800000Y-129589164D02*
X165871428Y-129589164D01*
X165871428Y-129589164D02*
X165978571Y-129553450D01*
X165978571Y-129553450D02*
X166014285Y-129517735D01*
X166014285Y-129517735D02*
X166014285Y-129267735D01*
X166014285Y-129267735D02*
X165871428Y-129267735D01*
X166335714Y-129589164D02*
X166335714Y-128839164D01*
X166335714Y-128839164D02*
X166764285Y-129589164D01*
X166764285Y-129589164D02*
X166764285Y-128839164D01*
X167121428Y-129589164D02*
X167121428Y-128839164D01*
X167121428Y-128839164D02*
X167299999Y-128839164D01*
X167299999Y-128839164D02*
X167407142Y-128874878D01*
X167407142Y-128874878D02*
X167478571Y-128946307D01*
X167478571Y-128946307D02*
X167514285Y-129017735D01*
X167514285Y-129017735D02*
X167549999Y-129160592D01*
X167549999Y-129160592D02*
X167549999Y-129267735D01*
X167549999Y-129267735D02*
X167514285Y-129410592D01*
X167514285Y-129410592D02*
X167478571Y-129482021D01*
X167478571Y-129482021D02*
X167407142Y-129553450D01*
X167407142Y-129553450D02*
X167299999Y-129589164D01*
X167299999Y-129589164D02*
X167121428Y-129589164D01*
X176508571Y-129439164D02*
X176508571Y-130046307D01*
X176508571Y-130046307D02*
X176544285Y-130117735D01*
X176544285Y-130117735D02*
X176580000Y-130153450D01*
X176580000Y-130153450D02*
X176651428Y-130189164D01*
X176651428Y-130189164D02*
X176794285Y-130189164D01*
X176794285Y-130189164D02*
X176865714Y-130153450D01*
X176865714Y-130153450D02*
X176901428Y-130117735D01*
X176901428Y-130117735D02*
X176937142Y-130046307D01*
X176937142Y-130046307D02*
X176937142Y-129439164D01*
X177258571Y-129510592D02*
X177294285Y-129474878D01*
X177294285Y-129474878D02*
X177365714Y-129439164D01*
X177365714Y-129439164D02*
X177544285Y-129439164D01*
X177544285Y-129439164D02*
X177615714Y-129474878D01*
X177615714Y-129474878D02*
X177651428Y-129510592D01*
X177651428Y-129510592D02*
X177687142Y-129582021D01*
X177687142Y-129582021D02*
X177687142Y-129653450D01*
X177687142Y-129653450D02*
X177651428Y-129760592D01*
X177651428Y-129760592D02*
X177222856Y-130189164D01*
X177222856Y-130189164D02*
X177687142Y-130189164D01*
X165978571Y-136874878D02*
X165907143Y-136839164D01*
X165907143Y-136839164D02*
X165800000Y-136839164D01*
X165800000Y-136839164D02*
X165692857Y-136874878D01*
X165692857Y-136874878D02*
X165621428Y-136946307D01*
X165621428Y-136946307D02*
X165585714Y-137017735D01*
X165585714Y-137017735D02*
X165550000Y-137160592D01*
X165550000Y-137160592D02*
X165550000Y-137267735D01*
X165550000Y-137267735D02*
X165585714Y-137410592D01*
X165585714Y-137410592D02*
X165621428Y-137482021D01*
X165621428Y-137482021D02*
X165692857Y-137553450D01*
X165692857Y-137553450D02*
X165800000Y-137589164D01*
X165800000Y-137589164D02*
X165871428Y-137589164D01*
X165871428Y-137589164D02*
X165978571Y-137553450D01*
X165978571Y-137553450D02*
X166014285Y-137517735D01*
X166014285Y-137517735D02*
X166014285Y-137267735D01*
X166014285Y-137267735D02*
X165871428Y-137267735D01*
X166335714Y-137589164D02*
X166335714Y-136839164D01*
X166335714Y-136839164D02*
X166764285Y-137589164D01*
X166764285Y-137589164D02*
X166764285Y-136839164D01*
X167121428Y-137589164D02*
X167121428Y-136839164D01*
X167121428Y-136839164D02*
X167299999Y-136839164D01*
X167299999Y-136839164D02*
X167407142Y-136874878D01*
X167407142Y-136874878D02*
X167478571Y-136946307D01*
X167478571Y-136946307D02*
X167514285Y-137017735D01*
X167514285Y-137017735D02*
X167549999Y-137160592D01*
X167549999Y-137160592D02*
X167549999Y-137267735D01*
X167549999Y-137267735D02*
X167514285Y-137410592D01*
X167514285Y-137410592D02*
X167478571Y-137482021D01*
X167478571Y-137482021D02*
X167407142Y-137553450D01*
X167407142Y-137553450D02*
X167299999Y-137589164D01*
X167299999Y-137589164D02*
X167121428Y-137589164D01*
X165978571Y-104874878D02*
X165907143Y-104839164D01*
X165907143Y-104839164D02*
X165800000Y-104839164D01*
X165800000Y-104839164D02*
X165692857Y-104874878D01*
X165692857Y-104874878D02*
X165621428Y-104946307D01*
X165621428Y-104946307D02*
X165585714Y-105017735D01*
X165585714Y-105017735D02*
X165550000Y-105160592D01*
X165550000Y-105160592D02*
X165550000Y-105267735D01*
X165550000Y-105267735D02*
X165585714Y-105410592D01*
X165585714Y-105410592D02*
X165621428Y-105482021D01*
X165621428Y-105482021D02*
X165692857Y-105553450D01*
X165692857Y-105553450D02*
X165800000Y-105589164D01*
X165800000Y-105589164D02*
X165871428Y-105589164D01*
X165871428Y-105589164D02*
X165978571Y-105553450D01*
X165978571Y-105553450D02*
X166014285Y-105517735D01*
X166014285Y-105517735D02*
X166014285Y-105267735D01*
X166014285Y-105267735D02*
X165871428Y-105267735D01*
X166335714Y-105589164D02*
X166335714Y-104839164D01*
X166335714Y-104839164D02*
X166764285Y-105589164D01*
X166764285Y-105589164D02*
X166764285Y-104839164D01*
X167121428Y-105589164D02*
X167121428Y-104839164D01*
X167121428Y-104839164D02*
X167299999Y-104839164D01*
X167299999Y-104839164D02*
X167407142Y-104874878D01*
X167407142Y-104874878D02*
X167478571Y-104946307D01*
X167478571Y-104946307D02*
X167514285Y-105017735D01*
X167514285Y-105017735D02*
X167549999Y-105160592D01*
X167549999Y-105160592D02*
X167549999Y-105267735D01*
X167549999Y-105267735D02*
X167514285Y-105410592D01*
X167514285Y-105410592D02*
X167478571Y-105482021D01*
X167478571Y-105482021D02*
X167407142Y-105553450D01*
X167407142Y-105553450D02*
X167299999Y-105589164D01*
X167299999Y-105589164D02*
X167121428Y-105589164D01*
X177539164Y-112750000D02*
X177182021Y-113000000D01*
X177539164Y-113178571D02*
X176789164Y-113178571D01*
X176789164Y-113178571D02*
X176789164Y-112892857D01*
X176789164Y-112892857D02*
X176824878Y-112821428D01*
X176824878Y-112821428D02*
X176860592Y-112785714D01*
X176860592Y-112785714D02*
X176932021Y-112750000D01*
X176932021Y-112750000D02*
X177039164Y-112750000D01*
X177039164Y-112750000D02*
X177110592Y-112785714D01*
X177110592Y-112785714D02*
X177146307Y-112821428D01*
X177146307Y-112821428D02*
X177182021Y-112892857D01*
X177182021Y-112892857D02*
X177182021Y-113178571D01*
X177539164Y-112392857D02*
X177539164Y-112250000D01*
X177539164Y-112250000D02*
X177503450Y-112178571D01*
X177503450Y-112178571D02*
X177467735Y-112142857D01*
X177467735Y-112142857D02*
X177360592Y-112071428D01*
X177360592Y-112071428D02*
X177217735Y-112035714D01*
X177217735Y-112035714D02*
X176932021Y-112035714D01*
X176932021Y-112035714D02*
X176860592Y-112071428D01*
X176860592Y-112071428D02*
X176824878Y-112107143D01*
X176824878Y-112107143D02*
X176789164Y-112178571D01*
X176789164Y-112178571D02*
X176789164Y-112321428D01*
X176789164Y-112321428D02*
X176824878Y-112392857D01*
X176824878Y-112392857D02*
X176860592Y-112428571D01*
X176860592Y-112428571D02*
X176932021Y-112464285D01*
X176932021Y-112464285D02*
X177110592Y-112464285D01*
X177110592Y-112464285D02*
X177182021Y-112428571D01*
X177182021Y-112428571D02*
X177217735Y-112392857D01*
X177217735Y-112392857D02*
X177253450Y-112321428D01*
X177253450Y-112321428D02*
X177253450Y-112178571D01*
X177253450Y-112178571D02*
X177217735Y-112107143D01*
X177217735Y-112107143D02*
X177182021Y-112071428D01*
X177182021Y-112071428D02*
X177110592Y-112035714D01*
X176528571Y-105364164D02*
X176528571Y-105971307D01*
X176528571Y-105971307D02*
X176564285Y-106042735D01*
X176564285Y-106042735D02*
X176600000Y-106078450D01*
X176600000Y-106078450D02*
X176671428Y-106114164D01*
X176671428Y-106114164D02*
X176814285Y-106114164D01*
X176814285Y-106114164D02*
X176885714Y-106078450D01*
X176885714Y-106078450D02*
X176921428Y-106042735D01*
X176921428Y-106042735D02*
X176957142Y-105971307D01*
X176957142Y-105971307D02*
X176957142Y-105364164D01*
X177671428Y-105364164D02*
X177314285Y-105364164D01*
X177314285Y-105364164D02*
X177278571Y-105721307D01*
X177278571Y-105721307D02*
X177314285Y-105685592D01*
X177314285Y-105685592D02*
X177385714Y-105649878D01*
X177385714Y-105649878D02*
X177564285Y-105649878D01*
X177564285Y-105649878D02*
X177635714Y-105685592D01*
X177635714Y-105685592D02*
X177671428Y-105721307D01*
X177671428Y-105721307D02*
X177707142Y-105792735D01*
X177707142Y-105792735D02*
X177707142Y-105971307D01*
X177707142Y-105971307D02*
X177671428Y-106042735D01*
X177671428Y-106042735D02*
X177635714Y-106078450D01*
X177635714Y-106078450D02*
X177564285Y-106114164D01*
X177564285Y-106114164D02*
X177385714Y-106114164D01*
X177385714Y-106114164D02*
X177314285Y-106078450D01*
X177314285Y-106078450D02*
X177278571Y-106042735D01*
X180254762Y-138556819D02*
X180588095Y-139556819D01*
X180588095Y-139556819D02*
X180921428Y-138556819D01*
X181254762Y-139556819D02*
X181254762Y-138556819D01*
X181730952Y-139556819D02*
X181730952Y-138556819D01*
X181730952Y-138556819D02*
X182302380Y-139556819D01*
X182302380Y-139556819D02*
X182302380Y-138556819D01*
D12*
%TO.C,VIN*%
X175000000Y-147150000D02*
X177400000Y-147150000D01*
X175000000Y-149550000D02*
X175000000Y-147150000D01*
X177400000Y-147150000D02*
X177400000Y-149550000D01*
X177400000Y-149550000D02*
X175000000Y-149550000D01*
%TO.C,GND*%
X170500000Y-147150000D02*
X172900000Y-147150000D01*
X170500000Y-149550000D02*
X170500000Y-147150000D01*
X172900000Y-147150000D02*
X172900000Y-149550000D01*
X172900000Y-149550000D02*
X170500000Y-149550000D01*
%TO.C,C6*%
X173801000Y-131761252D02*
X173801000Y-131238748D01*
X175271000Y-131761252D02*
X175271000Y-131238748D01*
%TO.C,C2*%
X173801000Y-139711252D02*
X173801000Y-139188748D01*
X175271000Y-139711252D02*
X175271000Y-139188748D01*
%TO.C,C1*%
X170507836Y-138310000D02*
X170292164Y-138310000D01*
X170507836Y-137590000D02*
X170292164Y-137590000D01*
%TO.C,C4*%
X175390000Y-142865580D02*
X175390000Y-142584420D01*
X176410000Y-142865580D02*
X176410000Y-142584420D01*
%TO.C,C7*%
X173790000Y-134915580D02*
X173790000Y-134634420D01*
X174810000Y-134915580D02*
X174810000Y-134634420D01*
%TO.C,C5*%
X170507836Y-130360000D02*
X170292164Y-130360000D01*
X170507836Y-129640000D02*
X170292164Y-129640000D01*
%TO.C,C3*%
X173790000Y-142865580D02*
X173790000Y-142584420D01*
X174810000Y-142865580D02*
X174810000Y-142584420D01*
%TO.C,R5*%
X176820000Y-127203641D02*
X176820000Y-126896359D01*
X177580000Y-127203641D02*
X177580000Y-126896359D01*
%TO.C,C16*%
X175390000Y-118865580D02*
X175390000Y-118584420D01*
X176410000Y-118865580D02*
X176410000Y-118584420D01*
%TO.C,R6*%
X177820000Y-127203641D02*
X177820000Y-126896359D01*
X178580000Y-127203641D02*
X178580000Y-126896359D01*
%TO.C,L5*%
X173150000Y-106900000D02*
X168450000Y-106900000D01*
X173150000Y-106900000D02*
X173150000Y-111750000D01*
X168450000Y-106900000D02*
X168450000Y-111750000D01*
X168450000Y-111750000D02*
X173150000Y-111750000D01*
%TO.C,L1*%
X173150000Y-138900000D02*
X168450000Y-138900000D01*
X173150000Y-138900000D02*
X173150000Y-143750000D01*
X168450000Y-138900000D02*
X168450000Y-143750000D01*
X168450000Y-143750000D02*
X173150000Y-143750000D01*
%TO.C,C8*%
X175390000Y-134915580D02*
X175390000Y-134634420D01*
X176410000Y-134915580D02*
X176410000Y-134634420D01*
%TO.C,C9*%
X170507836Y-122360000D02*
X170292164Y-122360000D01*
X170507836Y-121640000D02*
X170292164Y-121640000D01*
%TO.C,C10*%
X173801000Y-123761252D02*
X173801000Y-123238748D01*
X175271000Y-123761252D02*
X175271000Y-123238748D01*
%TO.C,L2*%
X173150000Y-130950000D02*
X168450000Y-130950000D01*
X173150000Y-130950000D02*
X173150000Y-135800000D01*
X168450000Y-130950000D02*
X168450000Y-135800000D01*
X168450000Y-135800000D02*
X173150000Y-135800000D01*
%TO.C,C11*%
X173790000Y-126915580D02*
X173790000Y-126634420D01*
X174810000Y-126915580D02*
X174810000Y-126634420D01*
%TO.C,C12*%
X175390000Y-126915580D02*
X175390000Y-126634420D01*
X176410000Y-126915580D02*
X176410000Y-126634420D01*
%TO.C,C13*%
X170507836Y-114310000D02*
X170292164Y-114310000D01*
X170507836Y-113590000D02*
X170292164Y-113590000D01*
%TO.C,C14*%
X173801000Y-115711252D02*
X173801000Y-115188748D01*
X175271000Y-115711252D02*
X175271000Y-115188748D01*
%TO.C,R2*%
X177820000Y-143153641D02*
X177820000Y-142846359D01*
X178580000Y-143153641D02*
X178580000Y-142846359D01*
%TO.C,C15*%
X173790000Y-118865580D02*
X173790000Y-118584420D01*
X174810000Y-118865580D02*
X174810000Y-118584420D01*
%TO.C,R1*%
X176820000Y-143153641D02*
X176820000Y-142846359D01*
X177580000Y-143153641D02*
X177580000Y-142846359D01*
%TO.C,C17*%
X170507836Y-106310000D02*
X170292164Y-106310000D01*
X170507836Y-105590000D02*
X170292164Y-105590000D01*
%TO.C,C18*%
X173806709Y-107697607D02*
X173806709Y-107175103D01*
X175276709Y-107697607D02*
X175276709Y-107175103D01*
%TO.C,C19*%
X173790000Y-110865580D02*
X173790000Y-110584420D01*
X174810000Y-110865580D02*
X174810000Y-110584420D01*
%TO.C,C20*%
X175390000Y-110865580D02*
X175390000Y-110584420D01*
X176410000Y-110865580D02*
X176410000Y-110584420D01*
%TO.C,R3*%
X176820000Y-135203641D02*
X176820000Y-134896359D01*
X177580000Y-135203641D02*
X177580000Y-134896359D01*
%TO.C,L3*%
X173150000Y-122950000D02*
X168450000Y-122950000D01*
X173150000Y-122950000D02*
X173150000Y-127800000D01*
X168450000Y-122950000D02*
X168450000Y-127800000D01*
X168450000Y-127800000D02*
X173150000Y-127800000D01*
%TO.C,L4*%
X173150000Y-114900000D02*
X168450000Y-114900000D01*
X173150000Y-114900000D02*
X173150000Y-119750000D01*
X168450000Y-114900000D02*
X168450000Y-119750000D01*
X168450000Y-119750000D02*
X173150000Y-119750000D01*
%TO.C,R4*%
X177820000Y-135203641D02*
X177820000Y-134896359D01*
X178580000Y-135203641D02*
X178580000Y-134896359D01*
%TO.C,R8*%
X177820000Y-119153641D02*
X177820000Y-118846359D01*
X178580000Y-119153641D02*
X178580000Y-118846359D01*
%TO.C,R7*%
X176820000Y-119153641D02*
X176820000Y-118846359D01*
X177580000Y-119153641D02*
X177580000Y-118846359D01*
%TO.C,R10*%
X177820000Y-111153641D02*
X177820000Y-110846359D01*
X178580000Y-111153641D02*
X178580000Y-110846359D01*
%TO.C,U3*%
X176180000Y-122500000D02*
X177730000Y-122500000D01*
X177730000Y-124300000D02*
X176430000Y-124300000D01*
%TO.C,1V*%
X165350000Y-141950000D02*
X167750000Y-141950000D01*
X165350000Y-144350000D02*
X165350000Y-141950000D01*
X167750000Y-141950000D02*
X167750000Y-144350000D01*
X167750000Y-144350000D02*
X165350000Y-144350000D01*
%TO.C,GND*%
X165350000Y-122000000D02*
X167750000Y-122000000D01*
X165350000Y-124400000D02*
X165350000Y-122000000D01*
X167750000Y-122000000D02*
X167750000Y-124400000D01*
X167750000Y-124400000D02*
X165350000Y-124400000D01*
%TO.C,5V*%
X165350000Y-109950000D02*
X167750000Y-109950000D01*
X165350000Y-112350000D02*
X165350000Y-109950000D01*
X167750000Y-109950000D02*
X167750000Y-112350000D01*
X167750000Y-112350000D02*
X165350000Y-112350000D01*
%TO.C,U1*%
X176180000Y-138450000D02*
X177730000Y-138450000D01*
X177730000Y-140250000D02*
X176430000Y-140250000D01*
%TO.C,GND*%
X165350000Y-113950000D02*
X167750000Y-113950000D01*
X165350000Y-116350000D02*
X165350000Y-113950000D01*
X167750000Y-113950000D02*
X167750000Y-116350000D01*
X167750000Y-116350000D02*
X165350000Y-116350000D01*
%TO.C,U4*%
X176180000Y-114450000D02*
X177730000Y-114450000D01*
X177730000Y-116250000D02*
X176430000Y-116250000D01*
%TO.C,3V3*%
X165350000Y-117950000D02*
X167750000Y-117950000D01*
X165350000Y-120350000D02*
X165350000Y-117950000D01*
X167750000Y-117950000D02*
X167750000Y-120350000D01*
X167750000Y-120350000D02*
X165350000Y-120350000D01*
%TO.C,1V15*%
X165350000Y-134000000D02*
X167750000Y-134000000D01*
X165350000Y-136400000D02*
X165350000Y-134000000D01*
X167750000Y-134000000D02*
X167750000Y-136400000D01*
X167750000Y-136400000D02*
X165350000Y-136400000D01*
%TO.C,1V8*%
X165350000Y-126000000D02*
X167750000Y-126000000D01*
X165350000Y-128400000D02*
X165350000Y-126000000D01*
X167750000Y-126000000D02*
X167750000Y-128400000D01*
X167750000Y-128400000D02*
X165350000Y-128400000D01*
%TO.C,GND*%
X165350000Y-130000000D02*
X167750000Y-130000000D01*
X165350000Y-132400000D02*
X165350000Y-130000000D01*
X167750000Y-130000000D02*
X167750000Y-132400000D01*
X167750000Y-132400000D02*
X165350000Y-132400000D01*
%TO.C,U2*%
X176180000Y-130500000D02*
X177730000Y-130500000D01*
X177730000Y-132300000D02*
X176430000Y-132300000D01*
%TO.C,GND*%
X165350000Y-138000000D02*
X167750000Y-138000000D01*
X165350000Y-140400000D02*
X165350000Y-138000000D01*
X167750000Y-138000000D02*
X167750000Y-140400000D01*
X167750000Y-140400000D02*
X165350000Y-140400000D01*
X165350000Y-106000000D02*
X167750000Y-106000000D01*
X165350000Y-108400000D02*
X165350000Y-106000000D01*
X167750000Y-106000000D02*
X167750000Y-108400000D01*
X167750000Y-108400000D02*
X165350000Y-108400000D01*
%TO.C,R9*%
X176820000Y-111153641D02*
X176820000Y-110846359D01*
X177580000Y-111153641D02*
X177580000Y-110846359D01*
%TO.C,U5*%
X176180000Y-106450000D02*
X177730000Y-106450000D01*
X177730000Y-108250000D02*
X176430000Y-108250000D01*
%TO.C,VIN*%
X180150000Y-139900000D02*
X182550000Y-139900000D01*
X180150000Y-142300000D02*
X180150000Y-139900000D01*
X182550000Y-139900000D02*
X182550000Y-142300000D01*
X182550000Y-142300000D02*
X180150000Y-142300000D01*
%TO.C,JP2*%
X181325000Y-106700000D02*
X178525000Y-106700000D01*
X181325000Y-104700000D02*
X181325000Y-106700000D01*
X178525000Y-106700000D02*
X178525000Y-104700000D01*
X178525000Y-104700000D02*
X181325000Y-104700000D01*
%TO.C,JP1*%
X181350000Y-122800000D02*
X178550000Y-122800000D01*
X181350000Y-120800000D02*
X181350000Y-122800000D01*
X178550000Y-122800000D02*
X178550000Y-120800000D01*
X178550000Y-120800000D02*
X181350000Y-120800000D01*
%TD*%
M02*
