%TF.GenerationSoftware,KiCad,Pcbnew,8.99.0-unknown-3024a7c569~178~ubuntu22.04.1*%
%TF.CreationDate,2024-05-15T11:10:48+10:00*%
%TF.ProjectId,PSU-Plus,5053552d-506c-4757-932e-6b696361645f,rev?*%
%TF.SameCoordinates,Original*%
%TF.FileFunction,Drillmap*%
%TF.FilePolarity,Positive*%
%FSLAX45Y45*%
G04 Gerber Fmt 4.5, Leading zero omitted, Abs format (unit mm)*
G04 Created by KiCad (PCBNEW 8.99.0-unknown-3024a7c569~178~ubuntu22.04.1) date 2024-05-15 11:10:48*
%MOMM*%
%LPD*%
G01*
G04 APERTURE LIST*
%ADD10C,0.050000*%
%ADD11C,0.200000*%
%ADD12C,0.100000*%
G04 APERTURE END LIST*
D10*
X16745000Y-14995000D02*
X18045000Y-14995000D01*
X18295000Y-14745000D02*
X18295000Y-10295000D01*
X18045000Y-10045000D02*
X16745000Y-10045000D01*
X16495000Y-10295000D02*
X16495000Y-14745000D01*
X16870000Y-14745000D02*
G75*
G02*
X16620000Y-14745000I-125000J0D01*
G01*
X16620000Y-14745000D02*
G75*
G02*
X16870000Y-14745000I125000J0D01*
G01*
X16745000Y-14995000D02*
G75*
G02*
X16495000Y-14745000I0J250000D01*
G01*
X18170000Y-10295000D02*
G75*
G02*
X17920000Y-10295000I-125000J0D01*
G01*
X17920000Y-10295000D02*
G75*
G02*
X18170000Y-10295000I125000J0D01*
G01*
X18170000Y-14745000D02*
G75*
G02*
X17920000Y-14745000I-125000J0D01*
G01*
X17920000Y-14745000D02*
G75*
G02*
X18170000Y-14745000I125000J0D01*
G01*
X16870000Y-10295000D02*
G75*
G02*
X16620000Y-10295000I-125000J0D01*
G01*
X16620000Y-10295000D02*
G75*
G02*
X16870000Y-10295000I125000J0D01*
G01*
X18295000Y-14745000D02*
G75*
G02*
X18045000Y-14995000I-250000J0D01*
G01*
X16494950Y-10295000D02*
G75*
G02*
X16745000Y-10044950I250050J0D01*
G01*
X18045000Y-10045000D02*
G75*
G02*
X18295000Y-10295000I0J-250000D01*
G01*
D11*
D12*
X16585000Y-10650000D02*
X16625000Y-10690000D01*
X16625000Y-10650000D02*
X16585000Y-10690000D01*
X16585000Y-10750000D02*
X16625000Y-10790000D01*
X16625000Y-10750000D02*
X16585000Y-10790000D01*
X16585000Y-11445000D02*
X16625000Y-11485000D01*
X16625000Y-11445000D02*
X16585000Y-11485000D01*
X16585000Y-11545000D02*
X16625000Y-11585000D01*
X16625000Y-11545000D02*
X16585000Y-11585000D01*
X16585000Y-12250000D02*
X16625000Y-12290000D01*
X16625000Y-12250000D02*
X16585000Y-12290000D01*
X16585000Y-12350000D02*
X16625000Y-12390000D01*
X16625000Y-12350000D02*
X16585000Y-12390000D01*
X16585000Y-13050000D02*
X16625000Y-13090000D01*
X16625000Y-13050000D02*
X16585000Y-13090000D01*
X16585000Y-13150000D02*
X16625000Y-13190000D01*
X16625000Y-13150000D02*
X16585000Y-13190000D01*
X16585000Y-13850000D02*
X16625000Y-13890000D01*
X16625000Y-13850000D02*
X16585000Y-13890000D01*
X16585000Y-13950000D02*
X16625000Y-13990000D01*
X16625000Y-13950000D02*
X16585000Y-13990000D01*
X16685000Y-10650000D02*
X16725000Y-10690000D01*
X16725000Y-10650000D02*
X16685000Y-10690000D01*
X16685000Y-10750000D02*
X16725000Y-10790000D01*
X16725000Y-10750000D02*
X16685000Y-10790000D01*
X16685000Y-11445000D02*
X16725000Y-11485000D01*
X16725000Y-11445000D02*
X16685000Y-11485000D01*
X16685000Y-11545000D02*
X16725000Y-11585000D01*
X16725000Y-11545000D02*
X16685000Y-11585000D01*
X16685000Y-12250000D02*
X16725000Y-12290000D01*
X16725000Y-12250000D02*
X16685000Y-12290000D01*
X16685000Y-12350000D02*
X16725000Y-12390000D01*
X16725000Y-12350000D02*
X16685000Y-12390000D01*
X16685000Y-13050000D02*
X16725000Y-13090000D01*
X16725000Y-13050000D02*
X16685000Y-13090000D01*
X16685000Y-13150000D02*
X16725000Y-13190000D01*
X16725000Y-13150000D02*
X16685000Y-13190000D01*
X16685000Y-13850000D02*
X16725000Y-13890000D01*
X16725000Y-13850000D02*
X16685000Y-13890000D01*
X16685000Y-13950000D02*
X16725000Y-13990000D01*
X16725000Y-13950000D02*
X16685000Y-13990000D01*
X16895000Y-10925000D02*
X16935000Y-10965000D01*
X16935000Y-10925000D02*
X16895000Y-10965000D01*
X16895000Y-11725000D02*
X16935000Y-11765000D01*
X16935000Y-11725000D02*
X16895000Y-11765000D01*
X16895000Y-12530000D02*
X16935000Y-12570000D01*
X16935000Y-12530000D02*
X16895000Y-12570000D01*
X16895000Y-13330000D02*
X16935000Y-13370000D01*
X16935000Y-13330000D02*
X16895000Y-13370000D01*
X16900000Y-14120000D02*
X16940000Y-14160000D01*
X16940000Y-14120000D02*
X16900000Y-14160000D01*
X16975000Y-10925000D02*
X17015000Y-10965000D01*
X17015000Y-10925000D02*
X16975000Y-10965000D01*
X16975000Y-11725000D02*
X17015000Y-11765000D01*
X17015000Y-11725000D02*
X16975000Y-11765000D01*
X16975000Y-12530000D02*
X17015000Y-12570000D01*
X17015000Y-12530000D02*
X16975000Y-12570000D01*
X16975000Y-13330000D02*
X17015000Y-13370000D01*
X17015000Y-13330000D02*
X16975000Y-13370000D01*
X16980000Y-14120000D02*
X17020000Y-14160000D01*
X17020000Y-14120000D02*
X16980000Y-14160000D01*
X17055000Y-10925000D02*
X17095000Y-10965000D01*
X17095000Y-10925000D02*
X17055000Y-10965000D01*
X17055000Y-11725000D02*
X17095000Y-11765000D01*
X17095000Y-11725000D02*
X17055000Y-11765000D01*
X17055000Y-12530000D02*
X17095000Y-12570000D01*
X17095000Y-12530000D02*
X17055000Y-12570000D01*
X17055000Y-13330000D02*
X17095000Y-13370000D01*
X17095000Y-13330000D02*
X17055000Y-13370000D01*
X17060000Y-14120000D02*
X17100000Y-14160000D01*
X17100000Y-14120000D02*
X17060000Y-14160000D01*
X17100000Y-14765000D02*
X17140000Y-14805000D01*
X17140000Y-14765000D02*
X17100000Y-14805000D01*
X17100000Y-14865000D02*
X17140000Y-14905000D01*
X17140000Y-14865000D02*
X17100000Y-14905000D01*
X17135000Y-10925000D02*
X17175000Y-10965000D01*
X17175000Y-10925000D02*
X17135000Y-10965000D01*
X17135000Y-11725000D02*
X17175000Y-11765000D01*
X17175000Y-11725000D02*
X17135000Y-11765000D01*
X17135000Y-12530000D02*
X17175000Y-12570000D01*
X17175000Y-12530000D02*
X17135000Y-12570000D01*
X17135000Y-13330000D02*
X17175000Y-13370000D01*
X17175000Y-13330000D02*
X17135000Y-13370000D01*
X17140000Y-14120000D02*
X17180000Y-14160000D01*
X17180000Y-14120000D02*
X17140000Y-14160000D01*
X17180000Y-10530000D02*
X17220000Y-10570000D01*
X17220000Y-10530000D02*
X17180000Y-10570000D01*
X17180000Y-11330000D02*
X17220000Y-11370000D01*
X17220000Y-11330000D02*
X17180000Y-11370000D01*
X17180000Y-12140000D02*
X17220000Y-12180000D01*
X17220000Y-12140000D02*
X17180000Y-12180000D01*
X17180000Y-12940000D02*
X17220000Y-12980000D01*
X17220000Y-12940000D02*
X17180000Y-12980000D01*
X17180000Y-13730000D02*
X17220000Y-13770000D01*
X17220000Y-13730000D02*
X17180000Y-13770000D01*
X17200000Y-14765000D02*
X17240000Y-14805000D01*
X17240000Y-14765000D02*
X17200000Y-14805000D01*
X17200000Y-14865000D02*
X17240000Y-14905000D01*
X17240000Y-14865000D02*
X17200000Y-14905000D01*
X17215000Y-10925000D02*
X17255000Y-10965000D01*
X17255000Y-10925000D02*
X17215000Y-10965000D01*
X17215000Y-11725000D02*
X17255000Y-11765000D01*
X17255000Y-11725000D02*
X17215000Y-11765000D01*
X17215000Y-12530000D02*
X17255000Y-12570000D01*
X17255000Y-12530000D02*
X17215000Y-12570000D01*
X17215000Y-13330000D02*
X17255000Y-13370000D01*
X17255000Y-13330000D02*
X17215000Y-13370000D01*
X17220000Y-14120000D02*
X17260000Y-14160000D01*
X17260000Y-14120000D02*
X17220000Y-14160000D01*
X17265000Y-10990000D02*
X17305000Y-11030000D01*
X17305000Y-10990000D02*
X17265000Y-11030000D01*
X17265000Y-11790000D02*
X17305000Y-11830000D01*
X17305000Y-11790000D02*
X17265000Y-11830000D01*
X17265000Y-12595000D02*
X17305000Y-12635000D01*
X17305000Y-12595000D02*
X17265000Y-12635000D01*
X17265000Y-13395000D02*
X17305000Y-13435000D01*
X17305000Y-13395000D02*
X17265000Y-13435000D01*
X17270000Y-14185000D02*
X17310000Y-14225000D01*
X17310000Y-14185000D02*
X17270000Y-14225000D01*
X17575000Y-10560000D02*
X17615000Y-10600000D01*
X17615000Y-10560000D02*
X17575000Y-10600000D01*
X17575000Y-10865000D02*
X17615000Y-10905000D01*
X17615000Y-10865000D02*
X17575000Y-10905000D01*
X17575000Y-11360000D02*
X17615000Y-11400000D01*
X17615000Y-11360000D02*
X17575000Y-11400000D01*
X17575000Y-11665000D02*
X17615000Y-11705000D01*
X17615000Y-11665000D02*
X17575000Y-11705000D01*
X17575000Y-12165000D02*
X17615000Y-12205000D01*
X17615000Y-12165000D02*
X17575000Y-12205000D01*
X17575000Y-12470000D02*
X17615000Y-12510000D01*
X17615000Y-12470000D02*
X17575000Y-12510000D01*
X17575000Y-12965000D02*
X17615000Y-13005000D01*
X17615000Y-12965000D02*
X17575000Y-13005000D01*
X17575000Y-13270000D02*
X17615000Y-13310000D01*
X17615000Y-13270000D02*
X17575000Y-13310000D01*
X17575000Y-13760000D02*
X17615000Y-13800000D01*
X17615000Y-13760000D02*
X17575000Y-13800000D01*
X17575000Y-14065000D02*
X17615000Y-14105000D01*
X17615000Y-14065000D02*
X17575000Y-14105000D01*
X17655000Y-10560000D02*
X17695000Y-10600000D01*
X17695000Y-10560000D02*
X17655000Y-10600000D01*
X17655000Y-10865000D02*
X17695000Y-10905000D01*
X17695000Y-10865000D02*
X17655000Y-10905000D01*
X17655000Y-11360000D02*
X17695000Y-11400000D01*
X17695000Y-11360000D02*
X17655000Y-11400000D01*
X17655000Y-11665000D02*
X17695000Y-11705000D01*
X17695000Y-11665000D02*
X17655000Y-11705000D01*
X17655000Y-12165000D02*
X17695000Y-12205000D01*
X17695000Y-12165000D02*
X17655000Y-12205000D01*
X17655000Y-12470000D02*
X17695000Y-12510000D01*
X17695000Y-12470000D02*
X17655000Y-12510000D01*
X17655000Y-12965000D02*
X17695000Y-13005000D01*
X17695000Y-12965000D02*
X17655000Y-13005000D01*
X17655000Y-13270000D02*
X17695000Y-13310000D01*
X17695000Y-13270000D02*
X17655000Y-13310000D01*
X17655000Y-13760000D02*
X17695000Y-13800000D01*
X17695000Y-13760000D02*
X17655000Y-13800000D01*
X17655000Y-14065000D02*
X17695000Y-14105000D01*
X17695000Y-14065000D02*
X17655000Y-14105000D01*
X17735000Y-10560000D02*
X17775000Y-10600000D01*
X17775000Y-10560000D02*
X17735000Y-10600000D01*
X17735000Y-10865000D02*
X17775000Y-10905000D01*
X17775000Y-10865000D02*
X17735000Y-10905000D01*
X17735000Y-10945000D02*
X17775000Y-10985000D01*
X17775000Y-10945000D02*
X17735000Y-10985000D01*
X17735000Y-11360000D02*
X17775000Y-11400000D01*
X17775000Y-11360000D02*
X17735000Y-11400000D01*
X17735000Y-11665000D02*
X17775000Y-11705000D01*
X17775000Y-11665000D02*
X17735000Y-11705000D01*
X17735000Y-11745000D02*
X17775000Y-11785000D01*
X17775000Y-11745000D02*
X17735000Y-11785000D01*
X17735000Y-12165000D02*
X17775000Y-12205000D01*
X17775000Y-12165000D02*
X17735000Y-12205000D01*
X17735000Y-12470000D02*
X17775000Y-12510000D01*
X17775000Y-12470000D02*
X17735000Y-12510000D01*
X17735000Y-12550000D02*
X17775000Y-12590000D01*
X17775000Y-12550000D02*
X17735000Y-12590000D01*
X17735000Y-12965000D02*
X17775000Y-13005000D01*
X17775000Y-12965000D02*
X17735000Y-13005000D01*
X17735000Y-13270000D02*
X17775000Y-13310000D01*
X17775000Y-13270000D02*
X17735000Y-13310000D01*
X17735000Y-13350000D02*
X17775000Y-13390000D01*
X17775000Y-13350000D02*
X17735000Y-13390000D01*
X17735000Y-13760000D02*
X17775000Y-13800000D01*
X17775000Y-13760000D02*
X17735000Y-13800000D01*
X17735000Y-14065000D02*
X17775000Y-14105000D01*
X17775000Y-14065000D02*
X17735000Y-14105000D01*
X17735000Y-14145000D02*
X17775000Y-14185000D01*
X17775000Y-14145000D02*
X17735000Y-14185000D01*
X17815000Y-10560000D02*
X17855000Y-10600000D01*
X17855000Y-10560000D02*
X17815000Y-10600000D01*
X17815000Y-10865000D02*
X17855000Y-10905000D01*
X17855000Y-10865000D02*
X17815000Y-10905000D01*
X17815000Y-10945000D02*
X17855000Y-10985000D01*
X17855000Y-10945000D02*
X17815000Y-10985000D01*
X17815000Y-11360000D02*
X17855000Y-11400000D01*
X17855000Y-11360000D02*
X17815000Y-11400000D01*
X17815000Y-11665000D02*
X17855000Y-11705000D01*
X17855000Y-11665000D02*
X17815000Y-11705000D01*
X17815000Y-11745000D02*
X17855000Y-11785000D01*
X17855000Y-11745000D02*
X17815000Y-11785000D01*
X17815000Y-12165000D02*
X17855000Y-12205000D01*
X17855000Y-12165000D02*
X17815000Y-12205000D01*
X17815000Y-12470000D02*
X17855000Y-12510000D01*
X17855000Y-12470000D02*
X17815000Y-12510000D01*
X17815000Y-12550000D02*
X17855000Y-12590000D01*
X17855000Y-12550000D02*
X17815000Y-12590000D01*
X17815000Y-12965000D02*
X17855000Y-13005000D01*
X17855000Y-12965000D02*
X17815000Y-13005000D01*
X17815000Y-13270000D02*
X17855000Y-13310000D01*
X17855000Y-13270000D02*
X17815000Y-13310000D01*
X17815000Y-13350000D02*
X17855000Y-13390000D01*
X17855000Y-13350000D02*
X17815000Y-13390000D01*
X17815000Y-13760000D02*
X17855000Y-13800000D01*
X17855000Y-13760000D02*
X17815000Y-13800000D01*
X17815000Y-14065000D02*
X17855000Y-14105000D01*
X17855000Y-14065000D02*
X17815000Y-14105000D01*
X17815000Y-14145000D02*
X17855000Y-14185000D01*
X17855000Y-14145000D02*
X17815000Y-14185000D01*
X17870000Y-10765000D02*
X17910000Y-10805000D01*
X17910000Y-10765000D02*
X17870000Y-10805000D01*
X17870000Y-11565000D02*
X17910000Y-11605000D01*
X17910000Y-11565000D02*
X17870000Y-11605000D01*
X17870000Y-12370000D02*
X17910000Y-12410000D01*
X17910000Y-12370000D02*
X17870000Y-12410000D01*
X17870000Y-13170000D02*
X17910000Y-13210000D01*
X17910000Y-13170000D02*
X17870000Y-13210000D01*
X17870000Y-13965000D02*
X17910000Y-14005000D01*
X17910000Y-13965000D02*
X17870000Y-14005000D01*
D11*
X16753227Y-15308984D02*
X16753227Y-15108984D01*
X16753227Y-15108984D02*
X16800846Y-15108984D01*
X16800846Y-15108984D02*
X16829417Y-15118508D01*
X16829417Y-15118508D02*
X16848465Y-15137555D01*
X16848465Y-15137555D02*
X16857989Y-15156603D01*
X16857989Y-15156603D02*
X16867513Y-15194698D01*
X16867513Y-15194698D02*
X16867513Y-15223269D01*
X16867513Y-15223269D02*
X16857989Y-15261365D01*
X16857989Y-15261365D02*
X16848465Y-15280412D01*
X16848465Y-15280412D02*
X16829417Y-15299460D01*
X16829417Y-15299460D02*
X16800846Y-15308984D01*
X16800846Y-15308984D02*
X16753227Y-15308984D01*
X16953227Y-15308984D02*
X16953227Y-15175650D01*
X16953227Y-15213746D02*
X16962751Y-15194698D01*
X16962751Y-15194698D02*
X16972275Y-15185174D01*
X16972275Y-15185174D02*
X16991322Y-15175650D01*
X16991322Y-15175650D02*
X17010370Y-15175650D01*
X17077036Y-15308984D02*
X17077036Y-15175650D01*
X17077036Y-15108984D02*
X17067513Y-15118508D01*
X17067513Y-15118508D02*
X17077036Y-15128031D01*
X17077036Y-15128031D02*
X17086560Y-15118508D01*
X17086560Y-15118508D02*
X17077036Y-15108984D01*
X17077036Y-15108984D02*
X17077036Y-15128031D01*
X17200846Y-15308984D02*
X17181798Y-15299460D01*
X17181798Y-15299460D02*
X17172275Y-15280412D01*
X17172275Y-15280412D02*
X17172275Y-15108984D01*
X17305608Y-15308984D02*
X17286560Y-15299460D01*
X17286560Y-15299460D02*
X17277036Y-15280412D01*
X17277036Y-15280412D02*
X17277036Y-15108984D01*
X17534179Y-15308984D02*
X17534179Y-15108984D01*
X17534179Y-15108984D02*
X17600846Y-15251841D01*
X17600846Y-15251841D02*
X17667513Y-15108984D01*
X17667513Y-15108984D02*
X17667513Y-15308984D01*
X17848465Y-15308984D02*
X17848465Y-15204222D01*
X17848465Y-15204222D02*
X17838941Y-15185174D01*
X17838941Y-15185174D02*
X17819894Y-15175650D01*
X17819894Y-15175650D02*
X17781798Y-15175650D01*
X17781798Y-15175650D02*
X17762751Y-15185174D01*
X17848465Y-15299460D02*
X17829417Y-15308984D01*
X17829417Y-15308984D02*
X17781798Y-15308984D01*
X17781798Y-15308984D02*
X17762751Y-15299460D01*
X17762751Y-15299460D02*
X17753227Y-15280412D01*
X17753227Y-15280412D02*
X17753227Y-15261365D01*
X17753227Y-15261365D02*
X17762751Y-15242317D01*
X17762751Y-15242317D02*
X17781798Y-15232793D01*
X17781798Y-15232793D02*
X17829417Y-15232793D01*
X17829417Y-15232793D02*
X17848465Y-15223269D01*
X17943703Y-15175650D02*
X17943703Y-15375650D01*
X17943703Y-15185174D02*
X17962751Y-15175650D01*
X17962751Y-15175650D02*
X18000846Y-15175650D01*
X18000846Y-15175650D02*
X18019894Y-15185174D01*
X18019894Y-15185174D02*
X18029417Y-15194698D01*
X18029417Y-15194698D02*
X18038941Y-15213746D01*
X18038941Y-15213746D02*
X18038941Y-15270888D01*
X18038941Y-15270888D02*
X18029417Y-15289936D01*
X18029417Y-15289936D02*
X18019894Y-15299460D01*
X18019894Y-15299460D02*
X18000846Y-15308984D01*
X18000846Y-15308984D02*
X17962751Y-15308984D01*
X17962751Y-15308984D02*
X17943703Y-15299460D01*
X18124656Y-15289936D02*
X18134179Y-15299460D01*
X18134179Y-15299460D02*
X18124656Y-15308984D01*
X18124656Y-15308984D02*
X18115132Y-15299460D01*
X18115132Y-15299460D02*
X18124656Y-15289936D01*
X18124656Y-15289936D02*
X18124656Y-15308984D01*
X18124656Y-15185174D02*
X18134179Y-15194698D01*
X18134179Y-15194698D02*
X18124656Y-15204222D01*
X18124656Y-15204222D02*
X18115132Y-15194698D01*
X18115132Y-15194698D02*
X18124656Y-15185174D01*
X18124656Y-15185174D02*
X18124656Y-15204222D01*
D12*
X16452450Y-15617500D02*
X16492450Y-15657500D01*
X16492450Y-15617500D02*
X16452450Y-15657500D01*
D11*
X16791322Y-15528984D02*
X16810370Y-15528984D01*
X16810370Y-15528984D02*
X16829417Y-15538508D01*
X16829417Y-15538508D02*
X16838941Y-15548031D01*
X16838941Y-15548031D02*
X16848465Y-15567079D01*
X16848465Y-15567079D02*
X16857989Y-15605174D01*
X16857989Y-15605174D02*
X16857989Y-15652793D01*
X16857989Y-15652793D02*
X16848465Y-15690888D01*
X16848465Y-15690888D02*
X16838941Y-15709936D01*
X16838941Y-15709936D02*
X16829417Y-15719460D01*
X16829417Y-15719460D02*
X16810370Y-15728984D01*
X16810370Y-15728984D02*
X16791322Y-15728984D01*
X16791322Y-15728984D02*
X16772274Y-15719460D01*
X16772274Y-15719460D02*
X16762751Y-15709936D01*
X16762751Y-15709936D02*
X16753227Y-15690888D01*
X16753227Y-15690888D02*
X16743703Y-15652793D01*
X16743703Y-15652793D02*
X16743703Y-15605174D01*
X16743703Y-15605174D02*
X16753227Y-15567079D01*
X16753227Y-15567079D02*
X16762751Y-15548031D01*
X16762751Y-15548031D02*
X16772274Y-15538508D01*
X16772274Y-15538508D02*
X16791322Y-15528984D01*
X16943703Y-15709936D02*
X16953227Y-15719460D01*
X16953227Y-15719460D02*
X16943703Y-15728984D01*
X16943703Y-15728984D02*
X16934179Y-15719460D01*
X16934179Y-15719460D02*
X16943703Y-15709936D01*
X16943703Y-15709936D02*
X16943703Y-15728984D01*
X17124656Y-15595650D02*
X17124656Y-15728984D01*
X17077036Y-15519460D02*
X17029417Y-15662317D01*
X17029417Y-15662317D02*
X17153227Y-15662317D01*
X17267513Y-15528984D02*
X17286560Y-15528984D01*
X17286560Y-15528984D02*
X17305608Y-15538508D01*
X17305608Y-15538508D02*
X17315132Y-15548031D01*
X17315132Y-15548031D02*
X17324656Y-15567079D01*
X17324656Y-15567079D02*
X17334179Y-15605174D01*
X17334179Y-15605174D02*
X17334179Y-15652793D01*
X17334179Y-15652793D02*
X17324656Y-15690888D01*
X17324656Y-15690888D02*
X17315132Y-15709936D01*
X17315132Y-15709936D02*
X17305608Y-15719460D01*
X17305608Y-15719460D02*
X17286560Y-15728984D01*
X17286560Y-15728984D02*
X17267513Y-15728984D01*
X17267513Y-15728984D02*
X17248465Y-15719460D01*
X17248465Y-15719460D02*
X17238941Y-15709936D01*
X17238941Y-15709936D02*
X17229417Y-15690888D01*
X17229417Y-15690888D02*
X17219894Y-15652793D01*
X17219894Y-15652793D02*
X17219894Y-15605174D01*
X17219894Y-15605174D02*
X17229417Y-15567079D01*
X17229417Y-15567079D02*
X17238941Y-15548031D01*
X17238941Y-15548031D02*
X17248465Y-15538508D01*
X17248465Y-15538508D02*
X17267513Y-15528984D01*
X17457989Y-15528984D02*
X17477037Y-15528984D01*
X17477037Y-15528984D02*
X17496084Y-15538508D01*
X17496084Y-15538508D02*
X17505608Y-15548031D01*
X17505608Y-15548031D02*
X17515132Y-15567079D01*
X17515132Y-15567079D02*
X17524656Y-15605174D01*
X17524656Y-15605174D02*
X17524656Y-15652793D01*
X17524656Y-15652793D02*
X17515132Y-15690888D01*
X17515132Y-15690888D02*
X17505608Y-15709936D01*
X17505608Y-15709936D02*
X17496084Y-15719460D01*
X17496084Y-15719460D02*
X17477037Y-15728984D01*
X17477037Y-15728984D02*
X17457989Y-15728984D01*
X17457989Y-15728984D02*
X17438941Y-15719460D01*
X17438941Y-15719460D02*
X17429417Y-15709936D01*
X17429417Y-15709936D02*
X17419894Y-15690888D01*
X17419894Y-15690888D02*
X17410370Y-15652793D01*
X17410370Y-15652793D02*
X17410370Y-15605174D01*
X17410370Y-15605174D02*
X17419894Y-15567079D01*
X17419894Y-15567079D02*
X17429417Y-15548031D01*
X17429417Y-15548031D02*
X17438941Y-15538508D01*
X17438941Y-15538508D02*
X17457989Y-15528984D01*
X17610370Y-15728984D02*
X17610370Y-15595650D01*
X17610370Y-15614698D02*
X17619894Y-15605174D01*
X17619894Y-15605174D02*
X17638941Y-15595650D01*
X17638941Y-15595650D02*
X17667513Y-15595650D01*
X17667513Y-15595650D02*
X17686560Y-15605174D01*
X17686560Y-15605174D02*
X17696084Y-15624222D01*
X17696084Y-15624222D02*
X17696084Y-15728984D01*
X17696084Y-15624222D02*
X17705608Y-15605174D01*
X17705608Y-15605174D02*
X17724656Y-15595650D01*
X17724656Y-15595650D02*
X17753227Y-15595650D01*
X17753227Y-15595650D02*
X17772275Y-15605174D01*
X17772275Y-15605174D02*
X17781798Y-15624222D01*
X17781798Y-15624222D02*
X17781798Y-15728984D01*
X17877037Y-15728984D02*
X17877037Y-15595650D01*
X17877037Y-15614698D02*
X17886560Y-15605174D01*
X17886560Y-15605174D02*
X17905608Y-15595650D01*
X17905608Y-15595650D02*
X17934179Y-15595650D01*
X17934179Y-15595650D02*
X17953227Y-15605174D01*
X17953227Y-15605174D02*
X17962751Y-15624222D01*
X17962751Y-15624222D02*
X17962751Y-15728984D01*
X17962751Y-15624222D02*
X17972275Y-15605174D01*
X17972275Y-15605174D02*
X17991322Y-15595650D01*
X17991322Y-15595650D02*
X18019894Y-15595650D01*
X18019894Y-15595650D02*
X18038941Y-15605174D01*
X18038941Y-15605174D02*
X18048465Y-15624222D01*
X18048465Y-15624222D02*
X18048465Y-15728984D01*
X18438941Y-15519460D02*
X18267513Y-15776603D01*
X18696084Y-15528984D02*
X18715132Y-15528984D01*
X18715132Y-15528984D02*
X18734180Y-15538508D01*
X18734180Y-15538508D02*
X18743703Y-15548031D01*
X18743703Y-15548031D02*
X18753227Y-15567079D01*
X18753227Y-15567079D02*
X18762751Y-15605174D01*
X18762751Y-15605174D02*
X18762751Y-15652793D01*
X18762751Y-15652793D02*
X18753227Y-15690888D01*
X18753227Y-15690888D02*
X18743703Y-15709936D01*
X18743703Y-15709936D02*
X18734180Y-15719460D01*
X18734180Y-15719460D02*
X18715132Y-15728984D01*
X18715132Y-15728984D02*
X18696084Y-15728984D01*
X18696084Y-15728984D02*
X18677037Y-15719460D01*
X18677037Y-15719460D02*
X18667513Y-15709936D01*
X18667513Y-15709936D02*
X18657989Y-15690888D01*
X18657989Y-15690888D02*
X18648465Y-15652793D01*
X18648465Y-15652793D02*
X18648465Y-15605174D01*
X18648465Y-15605174D02*
X18657989Y-15567079D01*
X18657989Y-15567079D02*
X18667513Y-15548031D01*
X18667513Y-15548031D02*
X18677037Y-15538508D01*
X18677037Y-15538508D02*
X18696084Y-15528984D01*
X18848465Y-15709936D02*
X18857989Y-15719460D01*
X18857989Y-15719460D02*
X18848465Y-15728984D01*
X18848465Y-15728984D02*
X18838941Y-15719460D01*
X18838941Y-15719460D02*
X18848465Y-15709936D01*
X18848465Y-15709936D02*
X18848465Y-15728984D01*
X18981799Y-15528984D02*
X19000846Y-15528984D01*
X19000846Y-15528984D02*
X19019894Y-15538508D01*
X19019894Y-15538508D02*
X19029418Y-15548031D01*
X19029418Y-15548031D02*
X19038941Y-15567079D01*
X19038941Y-15567079D02*
X19048465Y-15605174D01*
X19048465Y-15605174D02*
X19048465Y-15652793D01*
X19048465Y-15652793D02*
X19038941Y-15690888D01*
X19038941Y-15690888D02*
X19029418Y-15709936D01*
X19029418Y-15709936D02*
X19019894Y-15719460D01*
X19019894Y-15719460D02*
X19000846Y-15728984D01*
X19000846Y-15728984D02*
X18981799Y-15728984D01*
X18981799Y-15728984D02*
X18962751Y-15719460D01*
X18962751Y-15719460D02*
X18953227Y-15709936D01*
X18953227Y-15709936D02*
X18943703Y-15690888D01*
X18943703Y-15690888D02*
X18934180Y-15652793D01*
X18934180Y-15652793D02*
X18934180Y-15605174D01*
X18934180Y-15605174D02*
X18943703Y-15567079D01*
X18943703Y-15567079D02*
X18953227Y-15548031D01*
X18953227Y-15548031D02*
X18962751Y-15538508D01*
X18962751Y-15538508D02*
X18981799Y-15528984D01*
X19238941Y-15728984D02*
X19124656Y-15728984D01*
X19181799Y-15728984D02*
X19181799Y-15528984D01*
X19181799Y-15528984D02*
X19162751Y-15557555D01*
X19162751Y-15557555D02*
X19143703Y-15576603D01*
X19143703Y-15576603D02*
X19124656Y-15586127D01*
X19419894Y-15528984D02*
X19324656Y-15528984D01*
X19324656Y-15528984D02*
X19315132Y-15624222D01*
X19315132Y-15624222D02*
X19324656Y-15614698D01*
X19324656Y-15614698D02*
X19343703Y-15605174D01*
X19343703Y-15605174D02*
X19391322Y-15605174D01*
X19391322Y-15605174D02*
X19410370Y-15614698D01*
X19410370Y-15614698D02*
X19419894Y-15624222D01*
X19419894Y-15624222D02*
X19429418Y-15643269D01*
X19429418Y-15643269D02*
X19429418Y-15690888D01*
X19429418Y-15690888D02*
X19419894Y-15709936D01*
X19419894Y-15709936D02*
X19410370Y-15719460D01*
X19410370Y-15719460D02*
X19391322Y-15728984D01*
X19391322Y-15728984D02*
X19343703Y-15728984D01*
X19343703Y-15728984D02*
X19324656Y-15719460D01*
X19324656Y-15719460D02*
X19315132Y-15709936D01*
X19496084Y-15528984D02*
X19629418Y-15528984D01*
X19629418Y-15528984D02*
X19543703Y-15728984D01*
X19696084Y-15528984D02*
X19696084Y-15567079D01*
X19772275Y-15528984D02*
X19772275Y-15567079D01*
X20067513Y-15805174D02*
X20057989Y-15795650D01*
X20057989Y-15795650D02*
X20038942Y-15767079D01*
X20038942Y-15767079D02*
X20029418Y-15748031D01*
X20029418Y-15748031D02*
X20019894Y-15719460D01*
X20019894Y-15719460D02*
X20010370Y-15671841D01*
X20010370Y-15671841D02*
X20010370Y-15633746D01*
X20010370Y-15633746D02*
X20019894Y-15586127D01*
X20019894Y-15586127D02*
X20029418Y-15557555D01*
X20029418Y-15557555D02*
X20038942Y-15538508D01*
X20038942Y-15538508D02*
X20057989Y-15509936D01*
X20057989Y-15509936D02*
X20067513Y-15500412D01*
X20248465Y-15728984D02*
X20134180Y-15728984D01*
X20191322Y-15728984D02*
X20191322Y-15528984D01*
X20191322Y-15528984D02*
X20172275Y-15557555D01*
X20172275Y-15557555D02*
X20153227Y-15576603D01*
X20153227Y-15576603D02*
X20134180Y-15586127D01*
X20438942Y-15728984D02*
X20324656Y-15728984D01*
X20381799Y-15728984D02*
X20381799Y-15528984D01*
X20381799Y-15528984D02*
X20362751Y-15557555D01*
X20362751Y-15557555D02*
X20343703Y-15576603D01*
X20343703Y-15576603D02*
X20324656Y-15586127D01*
X20610370Y-15595650D02*
X20610370Y-15728984D01*
X20562751Y-15519460D02*
X20515132Y-15662317D01*
X20515132Y-15662317D02*
X20638942Y-15662317D01*
X20867513Y-15728984D02*
X20867513Y-15528984D01*
X20953227Y-15728984D02*
X20953227Y-15624222D01*
X20953227Y-15624222D02*
X20943704Y-15605174D01*
X20943704Y-15605174D02*
X20924656Y-15595650D01*
X20924656Y-15595650D02*
X20896084Y-15595650D01*
X20896084Y-15595650D02*
X20877037Y-15605174D01*
X20877037Y-15605174D02*
X20867513Y-15614698D01*
X21077037Y-15728984D02*
X21057989Y-15719460D01*
X21057989Y-15719460D02*
X21048465Y-15709936D01*
X21048465Y-15709936D02*
X21038942Y-15690888D01*
X21038942Y-15690888D02*
X21038942Y-15633746D01*
X21038942Y-15633746D02*
X21048465Y-15614698D01*
X21048465Y-15614698D02*
X21057989Y-15605174D01*
X21057989Y-15605174D02*
X21077037Y-15595650D01*
X21077037Y-15595650D02*
X21105608Y-15595650D01*
X21105608Y-15595650D02*
X21124656Y-15605174D01*
X21124656Y-15605174D02*
X21134180Y-15614698D01*
X21134180Y-15614698D02*
X21143704Y-15633746D01*
X21143704Y-15633746D02*
X21143704Y-15690888D01*
X21143704Y-15690888D02*
X21134180Y-15709936D01*
X21134180Y-15709936D02*
X21124656Y-15719460D01*
X21124656Y-15719460D02*
X21105608Y-15728984D01*
X21105608Y-15728984D02*
X21077037Y-15728984D01*
X21257989Y-15728984D02*
X21238942Y-15719460D01*
X21238942Y-15719460D02*
X21229418Y-15700412D01*
X21229418Y-15700412D02*
X21229418Y-15528984D01*
X21410370Y-15719460D02*
X21391323Y-15728984D01*
X21391323Y-15728984D02*
X21353227Y-15728984D01*
X21353227Y-15728984D02*
X21334180Y-15719460D01*
X21334180Y-15719460D02*
X21324656Y-15700412D01*
X21324656Y-15700412D02*
X21324656Y-15624222D01*
X21324656Y-15624222D02*
X21334180Y-15605174D01*
X21334180Y-15605174D02*
X21353227Y-15595650D01*
X21353227Y-15595650D02*
X21391323Y-15595650D01*
X21391323Y-15595650D02*
X21410370Y-15605174D01*
X21410370Y-15605174D02*
X21419894Y-15624222D01*
X21419894Y-15624222D02*
X21419894Y-15643269D01*
X21419894Y-15643269D02*
X21324656Y-15662317D01*
X21496085Y-15719460D02*
X21515132Y-15728984D01*
X21515132Y-15728984D02*
X21553227Y-15728984D01*
X21553227Y-15728984D02*
X21572275Y-15719460D01*
X21572275Y-15719460D02*
X21581799Y-15700412D01*
X21581799Y-15700412D02*
X21581799Y-15690888D01*
X21581799Y-15690888D02*
X21572275Y-15671841D01*
X21572275Y-15671841D02*
X21553227Y-15662317D01*
X21553227Y-15662317D02*
X21524656Y-15662317D01*
X21524656Y-15662317D02*
X21505608Y-15652793D01*
X21505608Y-15652793D02*
X21496085Y-15633746D01*
X21496085Y-15633746D02*
X21496085Y-15624222D01*
X21496085Y-15624222D02*
X21505608Y-15605174D01*
X21505608Y-15605174D02*
X21524656Y-15595650D01*
X21524656Y-15595650D02*
X21553227Y-15595650D01*
X21553227Y-15595650D02*
X21572275Y-15605174D01*
X21648466Y-15805174D02*
X21657989Y-15795650D01*
X21657989Y-15795650D02*
X21677037Y-15767079D01*
X21677037Y-15767079D02*
X21686561Y-15748031D01*
X21686561Y-15748031D02*
X21696085Y-15719460D01*
X21696085Y-15719460D02*
X21705608Y-15671841D01*
X21705608Y-15671841D02*
X21705608Y-15633746D01*
X21705608Y-15633746D02*
X21696085Y-15586127D01*
X21696085Y-15586127D02*
X21686561Y-15557555D01*
X21686561Y-15557555D02*
X21677037Y-15538508D01*
X21677037Y-15538508D02*
X21657989Y-15509936D01*
X21657989Y-15509936D02*
X21648466Y-15500412D01*
M02*
