M48
; DRILL file {KiCad 7.0.7} date Wed May  8 01:14:49 2024
; FORMAT={-:-/ absolute / inch / decimal}
; #@! TF.CreationDate,2024-05-08T01:14:49-04:00
; #@! TF.GenerationSoftware,Kicad,Pcbnew,7.0.7
; #@! TF.FileFunction,Plated,1,2,PTH
FMAT,2
INCH
; #@! TA.AperFunction,Plated,PTH,ViaDrill
T1C0.0157
%
G90
G05
T1
X6.5374Y-4.2008
X6.5374Y-4.2402
X6.5374Y-4.5138
X6.5374Y-4.5531
X6.5374Y-4.8307
X6.5374Y-4.8701
X6.5374Y-5.1457
X6.5374Y-5.185
X6.5374Y-5.4606
X6.5374Y-5.5
X6.5768Y-4.2008
X6.5768Y-4.2402
X6.5768Y-4.5138
X6.5768Y-4.5531
X6.5768Y-4.8307
X6.5768Y-4.8701
X6.5768Y-5.1457
X6.5768Y-5.185
X6.5768Y-5.4606
X6.5768Y-5.5
X6.6594Y-4.3091
X6.6594Y-4.624
X6.6594Y-4.9409
X6.6594Y-5.2559
X6.6614Y-5.5669
X6.6909Y-4.3091
X6.6909Y-4.624
X6.6909Y-4.9409
X6.6909Y-5.2559
X6.6929Y-5.5669
X6.7224Y-4.3091
X6.7224Y-4.624
X6.7224Y-4.9409
X6.7224Y-5.2559
X6.7244Y-5.5669
X6.7402Y-5.8209
X6.7402Y-5.8602
X6.7539Y-4.3091
X6.7539Y-4.624
X6.7539Y-4.9409
X6.7539Y-5.2559
X6.7559Y-5.5669
X6.7618Y-4.1713
X6.7618Y-4.4862
X6.7618Y-4.8031
X6.7618Y-5.1181
X6.7618Y-5.4311
X6.7795Y-5.8209
X6.7795Y-5.8602
X6.7854Y-4.3091
X6.7854Y-4.624
X6.7854Y-4.9409
X6.7854Y-5.2559
X6.7874Y-5.5669
X6.8051Y-4.3346
X6.8051Y-4.6496
X6.8051Y-4.9665
X6.8051Y-5.2815
X6.8071Y-5.5925
X6.9272Y-4.1654
X6.9272Y-4.2854
X6.9272Y-4.4803
X6.9272Y-4.6004
X6.9272Y-4.7972
X6.9272Y-4.9173
X6.9272Y-5.1122
X6.9272Y-5.2323
X6.9272Y-5.4252
X6.9272Y-5.5453
X6.9587Y-4.1654
X6.9587Y-4.2854
X6.9587Y-4.4803
X6.9587Y-4.6004
X6.9587Y-4.7972
X6.9587Y-4.9173
X6.9587Y-5.1122
X6.9587Y-5.2323
X6.9587Y-5.4252
X6.9587Y-5.5453
X6.9902Y-4.1654
X6.9902Y-4.2854
X6.9902Y-4.3169
X6.9902Y-4.4803
X6.9902Y-4.6004
X6.9902Y-4.6319
X6.9902Y-4.7972
X6.9902Y-4.9173
X6.9902Y-4.9488
X6.9902Y-5.1122
X6.9902Y-5.2323
X6.9902Y-5.2638
X6.9902Y-5.4252
X6.9902Y-5.5453
X6.9902Y-5.5768
X7.0217Y-4.1654
X7.0217Y-4.2854
X7.0217Y-4.3169
X7.0217Y-4.4803
X7.0217Y-4.6004
X7.0217Y-4.6319
X7.0217Y-4.7972
X7.0217Y-4.9173
X7.0217Y-4.9488
X7.0217Y-5.1122
X7.0217Y-5.2323
X7.0217Y-5.2638
X7.0217Y-5.4252
X7.0217Y-5.5453
X7.0217Y-5.5768
X7.0433Y-4.2461
X7.0433Y-4.561
X7.0433Y-4.878
X7.0433Y-5.1929
X7.0433Y-5.5059
T0
M30
