M48
; DRILL file {KiCad 8.99.0-unknown-3024a7c569~178~ubuntu22.04.1} date 2024-05-15T11:10:48+1000
; FORMAT={-:-/ absolute / metric / decimal}
; #@! TF.CreationDate,2024-05-15T11:10:48+10:00
; #@! TF.GenerationSoftware,Kicad,Pcbnew,8.99.0-unknown-3024a7c569~178~ubuntu22.04.1
; #@! TF.FileFunction,Plated,1,2,PTH
FMAT,2
METRIC
; #@! TA.AperFunction,Plated,PTH,ViaDrill
T1C0.400
%
G90
G05
T1
X166.05Y-106.7
X166.05Y-107.7
X166.05Y-114.65
X166.05Y-115.65
X166.05Y-122.7
X166.05Y-123.7
X166.05Y-130.7
X166.05Y-131.7
X166.05Y-138.7
X166.05Y-139.7
X167.05Y-106.7
X167.05Y-107.7
X167.05Y-114.65
X167.05Y-115.65
X167.05Y-122.7
X167.05Y-123.7
X167.05Y-130.7
X167.05Y-131.7
X167.05Y-138.7
X167.05Y-139.7
X169.15Y-109.45
X169.15Y-117.45
X169.15Y-125.5
X169.15Y-133.5
X169.2Y-141.4
X169.95Y-109.45
X169.95Y-117.45
X169.95Y-125.5
X169.95Y-133.5
X170.0Y-141.4
X170.75Y-109.45
X170.75Y-117.45
X170.75Y-125.5
X170.75Y-133.5
X170.8Y-141.4
X171.2Y-147.85
X171.2Y-148.85
X171.55Y-109.45
X171.55Y-117.45
X171.55Y-125.5
X171.55Y-133.5
X171.6Y-141.4
X172.0Y-105.5
X172.0Y-113.5
X172.0Y-121.6
X172.0Y-129.6
X172.0Y-137.5
X172.2Y-147.85
X172.2Y-148.85
X172.35Y-109.45
X172.35Y-117.45
X172.35Y-125.5
X172.35Y-133.5
X172.4Y-141.4
X172.85Y-110.1
X172.85Y-118.1
X172.85Y-126.15
X172.85Y-134.15
X172.9Y-142.05
X175.95Y-105.8
X175.95Y-108.85
X175.95Y-113.8
X175.95Y-116.85
X175.95Y-121.85
X175.95Y-124.9
X175.95Y-129.85
X175.95Y-132.9
X175.95Y-137.8
X175.95Y-140.85
X176.75Y-105.8
X176.75Y-108.85
X176.75Y-113.8
X176.75Y-116.85
X176.75Y-121.85
X176.75Y-124.9
X176.75Y-129.85
X176.75Y-132.9
X176.75Y-137.8
X176.75Y-140.85
X177.55Y-105.8
X177.55Y-108.85
X177.55Y-109.65
X177.55Y-113.8
X177.55Y-116.85
X177.55Y-117.65
X177.55Y-121.85
X177.55Y-124.9
X177.55Y-125.7
X177.55Y-129.85
X177.55Y-132.9
X177.55Y-133.7
X177.55Y-137.8
X177.55Y-140.85
X177.55Y-141.65
X178.35Y-105.8
X178.35Y-108.85
X178.35Y-109.65
X178.35Y-113.8
X178.35Y-116.85
X178.35Y-117.65
X178.35Y-121.85
X178.35Y-124.9
X178.35Y-125.7
X178.35Y-129.85
X178.35Y-132.9
X178.35Y-133.7
X178.35Y-137.8
X178.35Y-140.85
X178.35Y-141.65
X178.9Y-107.85
X178.9Y-115.85
X178.9Y-123.9
X178.9Y-131.9
X178.9Y-139.85
M30
