%TF.GenerationSoftware,KiCad,Pcbnew,8.99.0-unknown-3024a7c569~178~ubuntu22.04.1*%
%TF.CreationDate,2024-05-15T11:10:46+10:00*%
%TF.ProjectId,PSU-Plus,5053552d-506c-4757-932e-6b696361645f,rev?*%
%TF.SameCoordinates,Original*%
%TF.FileFunction,Paste,Top*%
%TF.FilePolarity,Positive*%
%FSLAX46Y46*%
G04 Gerber Fmt 4.6, Leading zero omitted, Abs format (unit mm)*
G04 Created by KiCad (PCBNEW 8.99.0-unknown-3024a7c569~178~ubuntu22.04.1) date 2024-05-15 11:10:46*
%MOMM*%
%LPD*%
G01*
G04 APERTURE LIST*
G04 Aperture macros list*
%AMRoundRect*
0 Rectangle with rounded corners*
0 $1 Rounding radius*
0 $2 $3 $4 $5 $6 $7 $8 $9 X,Y pos of 4 corners*
0 Add a 4 corners polygon primitive as box body*
4,1,4,$2,$3,$4,$5,$6,$7,$8,$9,$2,$3,0*
0 Add four circle primitives for the rounded corners*
1,1,$1+$1,$2,$3*
1,1,$1+$1,$4,$5*
1,1,$1+$1,$6,$7*
1,1,$1+$1,$8,$9*
0 Add four rect primitives between the rounded corners*
20,1,$1+$1,$2,$3,$4,$5,0*
20,1,$1+$1,$4,$5,$6,$7,0*
20,1,$1+$1,$6,$7,$8,$9,0*
20,1,$1+$1,$8,$9,$2,$3,0*%
G04 Aperture macros list end*
%ADD10RoundRect,0.140000X0.140000X0.170000X-0.140000X0.170000X-0.140000X-0.170000X0.140000X-0.170000X0*%
%ADD11R,2.500000X1.900000*%
%ADD12RoundRect,0.250000X0.475000X-0.250000X0.475000X0.250000X-0.475000X0.250000X-0.475000X-0.250000X0*%
%ADD13RoundRect,0.225000X0.250000X-0.225000X0.250000X0.225000X-0.250000X0.225000X-0.250000X-0.225000X0*%
%ADD14RoundRect,0.135000X0.185000X-0.135000X0.185000X0.135000X-0.185000X0.135000X-0.185000X-0.135000X0*%
%ADD15RoundRect,0.085000X-0.265000X-0.085000X0.265000X-0.085000X0.265000X0.085000X-0.265000X0.085000X0*%
G04 APERTURE END LIST*
D10*
%TO.C,C1*%
X169920000Y-137500000D03*
X170880000Y-137500000D03*
%TD*%
D11*
%TO.C,L2*%
X170750000Y-131350000D03*
X170750000Y-135450000D03*
%TD*%
%TO.C,L5*%
X170750000Y-107300000D03*
X170750000Y-111400000D03*
%TD*%
%TO.C,L4*%
X170750000Y-115300000D03*
X170750000Y-119400000D03*
%TD*%
%TO.C,L3*%
X170750000Y-123350000D03*
X170750000Y-127450000D03*
%TD*%
%TO.C,L1*%
X170750000Y-139300000D03*
X170750000Y-143400000D03*
%TD*%
D12*
%TO.C,C6*%
X174536000Y-132450000D03*
X174536000Y-130550000D03*
%TD*%
%TO.C,C2*%
X174536000Y-140400000D03*
X174536000Y-138500000D03*
%TD*%
D13*
%TO.C,C4*%
X175900000Y-143500000D03*
X175900000Y-141950000D03*
%TD*%
%TO.C,C7*%
X174400000Y-135550000D03*
X174400000Y-134000000D03*
%TD*%
D10*
%TO.C,C5*%
X170880000Y-129600000D03*
X169920000Y-129600000D03*
%TD*%
D13*
%TO.C,C3*%
X174400000Y-143500000D03*
X174400000Y-141950000D03*
%TD*%
D14*
%TO.C,R5*%
X177200000Y-127560000D03*
X177200000Y-126540000D03*
%TD*%
D13*
%TO.C,C16*%
X175900000Y-119500000D03*
X175900000Y-117950000D03*
%TD*%
D14*
%TO.C,R6*%
X178200000Y-127560000D03*
X178200000Y-126540000D03*
%TD*%
D13*
%TO.C,C8*%
X175900000Y-135550000D03*
X175900000Y-134000000D03*
%TD*%
D10*
%TO.C,C9*%
X170880000Y-121600000D03*
X169920000Y-121600000D03*
%TD*%
D12*
%TO.C,C10*%
X174536000Y-124450000D03*
X174536000Y-122550000D03*
%TD*%
D13*
%TO.C,C11*%
X174400000Y-127550000D03*
X174400000Y-126000000D03*
%TD*%
%TO.C,C12*%
X175900000Y-127550000D03*
X175900000Y-126000000D03*
%TD*%
D10*
%TO.C,C13*%
X170880000Y-113500000D03*
X169920000Y-113500000D03*
%TD*%
D12*
%TO.C,C14*%
X174536000Y-116400000D03*
X174536000Y-114500000D03*
%TD*%
D14*
%TO.C,R2*%
X178200000Y-143510000D03*
X178200000Y-142490000D03*
%TD*%
D13*
%TO.C,C15*%
X174400000Y-119500000D03*
X174400000Y-117950000D03*
%TD*%
D14*
%TO.C,R1*%
X177200000Y-143510000D03*
X177200000Y-142490000D03*
%TD*%
D10*
%TO.C,C17*%
X170880000Y-105500000D03*
X169920000Y-105500000D03*
%TD*%
D12*
%TO.C,C18*%
X174541709Y-108386355D03*
X174541709Y-106486355D03*
%TD*%
D13*
%TO.C,C19*%
X174400000Y-111500000D03*
X174400000Y-109950000D03*
%TD*%
%TO.C,C20*%
X175900000Y-111500000D03*
X175900000Y-109950000D03*
%TD*%
D14*
%TO.C,R3*%
X177200000Y-135560000D03*
X177200000Y-134540000D03*
%TD*%
%TO.C,R4*%
X178200000Y-135560000D03*
X178200000Y-134540000D03*
%TD*%
%TO.C,R8*%
X178200000Y-119510000D03*
X178200000Y-118490000D03*
%TD*%
%TO.C,R7*%
X177200000Y-119510000D03*
X177200000Y-118490000D03*
%TD*%
%TO.C,R10*%
X178200000Y-111510000D03*
X178200000Y-110490000D03*
%TD*%
%TO.C,R9*%
X177200000Y-111510000D03*
X177200000Y-110490000D03*
%TD*%
D15*
%TO.C,U5*%
X176330000Y-106850000D03*
X176330000Y-107350000D03*
X176330000Y-107850000D03*
X177830000Y-107850000D03*
X177830000Y-107350000D03*
X177830000Y-106850000D03*
%TD*%
%TO.C,U2*%
X176330000Y-130900000D03*
X176330000Y-131400000D03*
X176330000Y-131900000D03*
X177830000Y-131900000D03*
X177830000Y-131400000D03*
X177830000Y-130900000D03*
%TD*%
%TO.C,U4*%
X176330000Y-114850000D03*
X176330000Y-115350000D03*
X176330000Y-115850000D03*
X177830000Y-115850000D03*
X177830000Y-115350000D03*
X177830000Y-114850000D03*
%TD*%
%TO.C,U3*%
X176330000Y-122900000D03*
X176330000Y-123400000D03*
X176330000Y-123900000D03*
X177830000Y-123900000D03*
X177830000Y-123400000D03*
X177830000Y-122900000D03*
%TD*%
%TO.C,U1*%
X176330000Y-138850000D03*
X176330000Y-139350000D03*
X176330000Y-139850000D03*
X177830000Y-139850000D03*
X177830000Y-139350000D03*
X177830000Y-138850000D03*
%TD*%
M02*
